<svg width="1240" height="367" viewBox="0 0 1240 367" fill="none" xmlns="http://www.w3.org/2000/svg">
<g opacity="0.1">
<path d="M709.309 187.142C672.201 250.417 638.391 221.231 644.438 312.576H579.694C588.778 210.883 528.266 246.062 505.866 163.258C487.903 96.474 542.858 26.1694 612.068 27.7346C692.661 26.5766 747.164 116.022 709.309 187.142Z" fill="url(#paint0_linear_484_2041)"/>
<path opacity="0.75" d="M725.846 132.224C724.855 113.61 719.13 95.1099 709.29 78.7254C699.444 62.33 685.791 48.5715 669.808 38.9371C652.851 28.7156 633.42 23.3128 613.616 23.3128C613.108 23.3128 612.597 23.3164 612.087 23.3233C611.319 23.3065 610.569 23.2983 609.8 23.2983C592.526 23.2983 575.842 27.4794 560.211 35.7253C545.575 43.4464 532.38 54.6484 522.053 68.1204C511.741 81.5722 504.363 97.1932 500.716 113.294C496.817 130.512 497.117 147.708 501.61 164.411C511.732 201.828 529.47 216.141 545.12 228.769C564.732 244.594 580.222 257.093 575.301 312.184L574.872 316.987H649.152L648.84 312.285C647.121 286.317 648.604 268.813 653.507 257.2C657.937 246.707 665.065 240.937 674.089 233.631C685.176 224.656 698.974 213.487 713.115 189.374L713.161 189.295L713.204 189.215C722.527 171.699 726.899 151.992 725.846 132.224ZM709.311 187.142C672.202 250.418 638.392 221.231 644.439 312.576H579.695C588.779 210.883 528.267 246.062 505.868 163.259C487.904 96.4743 542.859 26.1697 612.069 27.735C692.662 26.5769 747.165 116.022 709.311 187.142Z" fill="#1260CC"/>
<g opacity="0.5">
<path d="M618.203 277.37H614.35C614.35 265.603 614.659 248.953 617.096 234.252H606.923C609.36 248.953 609.668 265.603 609.668 277.37H605.816C605.816 265.572 605.505 248.816 603.016 234.252C589.042 234.24 568.051 237.497 567.316 217.472C567.316 208.219 574.844 200.692 584.097 200.692C594.847 200.202 602.923 212.267 606.225 230.4H617.794C621.102 212.263 629.166 200.205 639.922 200.692C649.175 200.692 656.703 208.219 656.703 217.473C655.964 237.501 634.966 234.24 621.002 234.252C618.514 248.816 618.203 265.572 618.203 277.37ZM621.724 230.4H639.922C673.996 223.675 632.165 175.444 621.724 230.4ZM584.097 204.544C567.104 204.851 567.11 230.098 584.097 230.4L602.295 230.4C599.122 214.156 592.609 204.254 584.097 204.544Z" fill="#F5F5F5"/>
</g>
<path d="M650.626 277.372H573.391C571.167 277.372 569.347 279.189 569.347 281.417V312.825C570.302 368.898 653.721 368.903 654.671 312.823C654.671 312.825 654.671 281.417 654.671 281.417C654.671 279.189 652.849 277.372 650.626 277.372Z" fill="#8CC9E8"/>
<path d="M658.721 295.957C658.721 297.418 657.526 298.613 656.065 298.613H567.953C566.492 298.613 565.297 297.418 565.297 295.957C565.297 294.497 566.492 293.303 567.953 293.303H656.065C657.526 293.303 658.721 294.497 658.721 295.957ZM658.721 280.026C658.721 281.487 657.526 282.682 656.065 282.682H567.953C566.492 282.682 565.297 281.487 565.297 280.026C565.297 278.566 566.492 277.372 567.953 277.372H656.065C657.526 277.372 658.721 278.566 658.721 280.026Z" fill="#0095AF"/>
<path opacity="0.25" d="M667.737 179.758C656.334 179.78 645.71 177.89 639.528 171.124C634.79 177.614 620.815 178.542 614.433 171.378C605.908 176.102 597.96 178.951 589.972 178.952C574.986 179.193 560.17 169.867 559.531 157.66C554.503 158.285 549.334 157.035 546.54 152.625C536.795 154.665 529.46 148.976 526.17 141.838C509.965 134.611 513.124 106.934 522.462 97.5329C523.677 85.0823 542.233 63.6288 555.161 62.0003C556.148 51.9817 565.334 46.59 573.918 43.3015C580.487 40.0778 588.415 39.4619 595.065 42.7563C599.423 34.6321 611.24 33.4239 618.277 38.7322C627.068 34.0898 639.658 37.1652 644.737 45.8436C646.629 45.4179 649.901 44.7246 652.582 44.6493C659.234 45.1857 667.719 50.1735 668.614 57.3135C675.41 58.8774 700.564 74.6923 697.734 90.3505C710.687 93.5451 710.15 118.844 703.681 126.787C708.159 130.155 707.954 148.085 699.347 150.983C698.375 167.821 685.398 181.059 667.737 179.758Z" fill="#246CD0"/>
</g>
<g opacity="0.2">
<path d="M465.401 364.515H5.59919C2.50679 364.515 0 362.008 0 358.916C0 355.823 2.50679 353.316 5.59919 353.316H465.401C468.493 353.316 471 355.823 471 358.916C471 362.008 468.493 364.515 465.401 364.515Z" fill="url(#paint1_linear_484_2041)"/>
<path d="M374.951 320.139C386.983 320.124 395.62 312.25 393.022 307.972C389.11 301.534 377.446 311.283 374.951 320.139ZM367.986 337.204C369.133 335.602 370.213 333.958 371.234 332.279C371.234 332.279 371.234 332.279 371.234 332.279C371.869 331.364 372.882 329.521 373.456 328.386C373.457 328.385 373.457 328.385 373.457 328.385C376.25 323.146 378.462 317.58 380.064 311.745C380.108 311.583 380.119 311.42 380.101 311.263C381.731 302.445 376.384 293.939 371.186 295.113C365.931 296.301 363.776 308.243 374.456 320.202C371.302 327.852 367.23 334.24 362.973 339.486L364.514 341.701C365.726 340.239 366.887 338.74 367.986 337.204Z" fill="url(#paint2_linear_484_2041)"/>
<path d="M364.842 324.973C368.157 335.04 364.926 346.416 360.148 356.133H298.712C299.692 348.502 302.365 339.416 308.303 329.566C325.071 301.749 357.103 301.464 364.842 324.973Z" fill="url(#paint3_linear_484_2041)"/>
<path d="M377.62 356.133C383.021 346.595 393.818 343.188 398.992 348.525C399.015 348.549 399.038 348.573 399.061 348.597C401.752 351.442 399.701 356.133 395.784 356.133H377.62Z" fill="url(#paint4_linear_484_2041)"/>
<path d="M386.206 343.247C387.92 347.41 386.249 352.114 383.78 356.133H352.021C352.527 352.977 353.909 349.219 356.978 345.146C365.647 333.642 382.205 333.525 386.206 343.247Z" fill="url(#paint5_linear_484_2041)"/>
<path d="M304.293 356.42C304.293 356.42 313.31 354.101 313.967 353.894C316.819 352.551 315.864 358.431 316.204 358.77C316.204 358.77 305.762 358.793 304.638 358.666C303.515 358.538 302.628 357.693 304.293 356.42Z" fill="#030126"/>
<path d="M311.708 268.604C311.708 268.604 312.235 298.939 312.589 305.007C312.944 311.076 324.618 312.337 327.832 304.484C331.049 296.635 335.308 285.708 335.34 277.719C335.369 269.73 333.449 263.636 327.683 258.914C321.918 254.192 311.557 260.432 311.708 268.604Z" fill="url(#paint6_linear_484_2041)"/>
<path d="M322.069 298.695C307.416 296.796 314.005 309.969 312.84 319.801C312.818 324.021 312.46 331.847 312.384 339.125H319.398C322.146 330.167 326.561 313.191 327.598 309.097C328.916 303.909 328.077 299.702 322.069 298.695Z" fill="url(#paint7_linear_484_2041)"/>
<path d="M312.498 354.751C312.97 355.638 314.84 355.704 315.162 354.859C314.97 353.218 317.283 343.786 319.014 339.125H312.667C312.582 347.244 312.498 354.751 312.498 354.751Z" fill="#F4AD7D"/>
<path d="M308.422 251.381C300.672 251.317 283.822 251.326 278.245 251.339C275.987 251.344 274.283 253.909 276.816 254.197C278.931 253.723 308.169 260.575 309.613 256.113C310.462 253.926 311.163 251.403 308.422 251.381Z" fill="#F4AD7D"/>
<path d="M307.728 246.365C307.728 246.365 304.901 253.197 304.434 255.371C304.098 256.929 306.297 257.22 307.644 257.419C308.99 257.618 312.576 254.019 314.481 250.172C315.939 247.227 308.256 245.999 307.728 246.365Z" fill="#F4AD7D"/>
<path d="M319.81 224.115C315.449 229.821 304.955 249.51 304.955 249.51C306.037 252.517 315.491 256.863 316.925 256.077C316.925 256.077 320.791 251.51 324.946 245.509C326.978 242.575 328.3 239.304 326.796 231.722C325.871 227.067 322.448 220.663 319.81 224.115Z" fill="#14B6C8"/>
<path d="M338.363 355.705C338.512 352.22 340.788 354.932 342.473 353.969C343.11 353.759 344.081 353.406 344.387 355.041C344.421 355.222 344.449 355.419 344.465 355.652C344.628 357.986 344.722 358.716 344.722 358.716C344.919 358.725 337.962 358.786 338.157 358.773C338.157 358.773 338.24 358.041 338.363 355.705Z" fill="#030126"/>
<path d="M326.049 270.885C326.049 270.885 331.406 300.67 333.736 308.494C335.435 314.198 347.251 314.557 349.033 306.441C350.812 298.324 351.143 284.94 351.404 265.113C351.53 255.515 324.527 263.026 326.049 270.885Z" fill="#001F3E"/>
<path d="M348.383 316.157C349.06 310.958 349.068 300.113 343.108 299.831C337.148 299.549 333.271 303.54 333.358 304.597C333.797 309.972 335.812 326.699 337.682 339.518L345.1 339.45C346.369 332.03 347.871 320.081 348.383 316.157Z" fill="#001F3E"/>
<path d="M344.863 339.453L338.035 339.514C339.335 348.434 340.27 354.636 340.27 354.636C340.121 355.65 342.707 356.21 342.907 354.833C342.509 353.415 343.811 343.906 344.863 339.453Z" fill="#F4AD7D"/>
<path d="M327.962 222.458C320.937 222.121 319.027 222.45 318.279 229.539C315.737 253.633 312.246 258.986 311.127 271.479C311.127 271.479 313.831 276.278 328.95 277.148C348.585 278.278 352.043 276.041 352.043 276.041C352.043 276.041 352.148 246.051 347.905 231.868C345.923 222.942 336.307 222.576 327.962 222.458Z" fill="url(#paint8_linear_484_2041)"/>
<path d="M319.882 214.029C316.444 212.062 314.439 203.182 317.891 201.735C325.713 198.458 327.322 203.182 331.584 203.182C338.325 203.652 337.274 215.453 331.61 219.098C329.663 219.607 328.98 211.58 319.882 214.029Z" fill="#001F3E"/>
<path d="M324.285 222.484C323.632 225.272 321.386 231.39 328.097 231.349C335.981 231.305 338.032 223.245 337.635 222.306C336.731 220.167 333.551 221.17 331.56 221.209C329.57 221.249 324.839 220.121 324.285 222.484Z" fill="url(#paint9_linear_484_2041)"/>
<path d="M335.577 222.052C332.43 221.71 329.201 221.765 326.018 222.375C322.367 233.741 335.802 229.567 335.577 222.052Z" fill="#F4AD7D"/>
<path d="M333.046 220.126C330.825 214.901 329.762 214.29 327.463 210.428C327.436 210.275 320.783 212.62 318.638 209.714C319.156 210.478 320.468 224.303 325.832 219.676C326.089 221.257 326.904 222.971 327.112 224.36C328.156 230.053 336.131 226.615 333.046 220.126Z" fill="#F4AD7D"/>
<path d="M362.006 247.719C357.63 253.665 354.317 268.805 351.793 272.638C350.552 274.524 352.574 278.743 353.812 276.515C354.091 274.627 370.343 250.94 366.833 248.436C365.14 246.812 363.63 245.511 362.006 247.719Z" fill="#F4AD7D"/>
<path d="M361.896 241.372C361.896 241.372 366.308 247.304 367.294 249.297C368.001 250.726 365.94 251.546 364.682 252.069C363.426 252.591 359.068 249.98 356.279 246.716C354.145 244.218 361.294 241.146 361.896 241.372Z" fill="#F4AD7D"/>
<path d="M345.437 226.449C351.435 230.397 365.353 243.742 365.353 243.742C365.353 243.742 364.972 245.741 362.16 248.569C357.938 252.814 355.355 253.04 355.355 253.04C355.355 253.04 352.593 251.249 347.096 246.448C344.408 244.101 342.413 242.118 340.822 233.772C339.934 229.109 341.233 223.683 345.437 226.449Z" fill="#14B6C8"/>
<path d="M353.222 270.65C352.918 269.767 351.45 268.197 350.801 268.557C349.482 269.286 351.354 270.21 351.507 272.457C351.605 273.889 353.742 274.457 353.742 274.457C353.742 274.457 353.853 272.485 353.222 270.65Z" fill="#F4AD7D"/>
<path d="M350.402 278.453C352.644 278.957 353.507 278.473 353.58 276.343C353.614 275.347 353.909 273.351 353.612 272.308C353.133 270.627 353.43 270.052 349.307 271.277C347.309 271.87 348.366 277.996 350.402 278.453Z" fill="#F4AD7D"/>
<path d="M331.035 211.104C332.361 212.484 329.122 215.922 327.807 213.861C325.979 212.261 329.888 209.592 331.035 211.104Z" fill="#F4AD7D"/>
<path d="M304.138 251.335C304.55 251.335 304.888 250.998 304.888 250.585C304.888 250.18 304.556 249.848 304.151 249.848H289.914C289.406 249.841 289.396 250.423 289.424 250.793C288.842 251.996 303.905 251.053 304.138 251.335Z" fill="#001F3E"/>
<path d="M290.873 249.999C291.049 250.72 290.584 251.336 289.842 251.336H263.19C262.449 251.336 261.698 250.72 261.524 249.999L256.921 230.966C256.747 230.245 257.211 229.627 257.953 229.627H284.604C285.346 229.627 286.097 230.245 286.271 230.966L290.873 249.999Z" fill="#001F3E"/>
<path d="M290.871 249.999L286.268 230.965C285.978 229.627 284.421 229.535 283.32 229.627C284.062 229.627 284.812 230.232 284.987 230.952L289.589 249.991C289.765 250.713 289.3 251.336 288.558 251.336C289.504 251.39 291.225 251.453 290.871 249.999Z" fill="url(#paint10_linear_484_2041)"/>
<path d="M276.724 240.736C277.209 242.917 276.112 244.684 274.277 244.684C270.558 244.976 267.721 237.151 272.523 236.789C274.359 236.789 276.239 238.557 276.724 240.736Z" fill="#14B6C8"/>
<path d="M271.695 240.737C272.105 242.585 273.519 244.132 275.058 244.562C270.412 246.012 267.292 235.904 273.359 236.913C272.011 237.343 271.284 238.889 271.695 240.737Z" fill="url(#paint11_linear_484_2041)"/>
<path d="M273.028 253.552C272.156 253.22 270.634 251.702 271.015 251.065C271.786 249.77 272.649 251.672 274.89 251.897C276.318 252.041 276.816 254.196 276.816 254.196C276.816 254.196 274.842 254.243 273.028 253.552Z" fill="#F4AD7D"/>
<path d="M280.837 249.569C281.869 254.702 278.292 254.451 274.673 253.995C273.009 253.462 272.885 253.947 273.386 249.623C273.625 247.552 280.446 247.52 280.837 249.569Z" fill="#F4AD7D"/>
<path d="M353.596 198.75C353.568 205.105 343.904 205.105 343.877 198.75C343.986 192.361 353.488 192.363 353.596 198.75Z" fill="#EF6035"/>
<path d="M352.911 198.054C352.576 198.059 352.449 197.432 352.8 197.346C353.221 197.232 353.37 198.053 352.911 198.054ZM352.609 197.195C352.398 197.207 351.512 195.922 351.853 195.793C352.277 195.439 353.353 197.142 352.609 197.195ZM351.499 195.758C350.872 195.43 350.286 194.924 349.542 194.829C349.387 194.797 349.288 194.646 349.319 194.492C349.481 193.731 352.698 195.397 351.499 195.758Z" fill="url(#paint12_linear_484_2041)"/>
<path d="M351.447 198.749C351.498 202.266 345.974 202.266 346.026 198.749C345.975 195.233 351.498 195.233 351.447 198.749Z" fill="#001F3E"/>
<path d="M350.857 198.261C350.602 198.251 350.393 197.715 350.665 197.587C351.023 197.421 351.298 198.251 350.857 198.261ZM350.423 197.511C350.043 197.338 349.773 196.906 349.315 196.83C349.19 196.792 349.12 196.661 349.158 196.536C349.374 195.959 351.276 197.284 350.423 197.511Z" fill="url(#paint13_linear_484_2041)"/>
<path d="M347.255 198.75C347.255 197.253 347.918 196.039 348.736 196.039C345.219 195.988 345.22 201.512 348.736 201.46C347.918 201.46 347.255 200.247 347.255 198.75Z" fill="url(#paint14_linear_484_2041)"/>
<path d="M391.135 198.75C391.107 205.105 381.443 205.105 381.416 198.75C381.525 192.361 391.027 192.363 391.135 198.75Z" fill="#EF6035"/>
<path d="M390.451 198.054C390.116 198.059 389.989 197.432 390.34 197.346C390.761 197.232 390.91 198.053 390.451 198.054ZM390.149 197.195C389.939 197.207 389.052 195.922 389.393 195.793C389.817 195.439 390.893 197.142 390.149 197.195ZM389.039 195.758C388.412 195.43 387.826 194.924 387.082 194.829C386.927 194.797 386.828 194.646 386.859 194.492C387.021 193.731 390.239 195.397 389.039 195.758Z" fill="url(#paint15_linear_484_2041)"/>
<path d="M388.987 198.75C389.038 202.267 383.514 202.267 383.566 198.75C383.515 195.233 389.038 195.233 388.987 198.75Z" fill="#001F3E"/>
<path d="M388.396 198.261C388.142 198.251 387.932 197.715 388.204 197.587C388.562 197.421 388.837 198.251 388.396 198.261ZM387.962 197.511C387.582 197.338 387.312 196.906 386.854 196.83C386.729 196.792 386.659 196.661 386.697 196.536C386.913 195.959 388.815 197.284 387.962 197.511Z" fill="url(#paint16_linear_484_2041)"/>
<path d="M384.793 198.75C384.793 197.253 385.456 196.039 386.274 196.039C382.757 195.988 382.758 201.512 386.274 201.46C385.456 201.46 384.793 200.247 384.793 198.75Z" fill="url(#paint17_linear_484_2041)"/>
<path d="M333.877 106.775C333.849 113.13 324.185 113.13 324.158 106.775C324.267 100.386 333.769 100.388 333.877 106.775Z" fill="#EF6035"/>
<path d="M333.192 106.078C332.856 106.083 332.73 105.457 333.08 105.37C333.501 105.256 333.651 106.078 333.192 106.078ZM332.89 105.219C332.679 105.231 331.792 103.947 332.133 103.817C332.557 103.463 333.633 105.166 332.89 105.219ZM331.779 103.783C331.153 103.454 330.566 102.949 329.822 102.853C329.668 102.822 329.568 102.67 329.6 102.516C329.762 101.756 332.979 103.421 331.779 103.783Z" fill="url(#paint18_linear_484_2041)"/>
<path d="M331.728 106.774C331.779 110.291 326.255 110.291 326.307 106.774C326.256 103.258 331.78 103.258 331.728 106.774Z" fill="#001F3E"/>
<path d="M331.138 106.287C330.883 106.276 330.673 105.74 330.945 105.612C331.303 105.446 331.578 106.277 331.138 106.287ZM330.703 105.537C330.323 105.364 330.053 104.931 329.595 104.855C329.471 104.817 329.4 104.686 329.438 104.562C329.654 103.985 331.556 105.31 330.703 105.537Z" fill="url(#paint19_linear_484_2041)"/>
<path d="M327.536 106.775C327.536 105.278 328.199 104.064 329.017 104.064C325.5 104.013 325.502 109.537 329.017 109.485C328.199 109.485 327.536 108.272 327.536 106.775Z" fill="url(#paint20_linear_484_2041)"/>
<path d="M380.114 5.43214C380.085 11.7874 370.422 11.7871 370.395 5.43184C370.504 -0.956463 380.005 -0.955228 380.114 5.43214Z" fill="#EF6035"/>
<path d="M379.428 4.73637C379.092 4.74127 378.966 4.11511 379.316 4.02836C379.737 3.9144 379.887 4.73595 379.428 4.73637ZM379.126 3.87742C378.915 3.88966 378.028 2.60483 378.369 2.47538C378.793 2.12144 379.869 3.82437 379.126 3.87742ZM378.016 2.44089C377.389 2.11246 376.803 1.60688 376.058 1.51159C375.904 1.47987 375.804 1.32839 375.836 1.17414C375.998 0.41371 379.215 2.07935 378.016 2.44089Z" fill="url(#paint21_linear_484_2041)"/>
<path d="M377.964 5.43198C378.016 8.94875 372.492 8.94881 372.543 5.43173C372.492 1.9153 378.016 1.91529 377.964 5.43198Z" fill="#001F3E"/>
<path d="M377.373 4.9441C377.118 4.9333 376.908 4.39717 377.181 4.26923C377.539 4.10336 377.813 4.93378 377.373 4.9441ZM376.938 4.19388C376.559 4.02108 376.289 3.58857 375.83 3.5127C375.706 3.4747 375.636 3.34364 375.673 3.21899C375.89 2.64198 377.792 3.96678 376.938 4.19388Z" fill="url(#paint22_linear_484_2041)"/>
<path d="M373.773 5.43153C373.773 3.93473 374.436 2.72106 375.255 2.72106C371.737 2.66985 371.739 8.19393 375.255 8.14197C374.436 8.14197 373.773 6.92876 373.773 5.43153Z" fill="url(#paint23_linear_484_2041)"/>
<path d="M262.593 301.985V303.356L313.935 354.699C315.755 354.201 317.525 353.582 319.234 352.847L268.372 301.985H262.593ZM282.672 301.985L328.212 347.526C329.544 346.484 330.809 345.361 332 344.164L289.821 301.985H282.672ZM264.026 326.24L292.486 354.699C295.223 355.447 298.075 355.917 301.01 356.073L262.653 317.716C262.809 320.651 263.279 323.502 264.026 326.24ZM332.721 301.985H325.571L343.578 319.993C343.843 317.832 343.837 315.299 343.825 313.09L332.721 301.985ZM304.121 301.985L338.23 336.095C339.128 334.571 339.931 332.984 340.627 331.341L311.271 301.985H304.121Z" fill="url(#paint24_linear_484_2041)"/>
<path d="M38.9935 261.324C46.4447 262.939 58.0132 258.758 63.3183 259.092C65.6421 259.239 69.0454 261.096 71.1806 258.556C72.797 256.632 72.5236 254.805 70.4747 254.747C67.627 254.666 65.6022 252.623 63.4057 256.21C61.6489 256.861 46.3818 256.193 41.6012 256.209C39.4419 256.212 36.5045 256.468 36.1228 257.978C35.5159 260.383 36.4427 260.943 38.9935 261.324Z" fill="#E5A377"/>
<path d="M57.2584 234.728C57.4454 233.953 58.2525 233.318 59.0497 233.318C63.2893 233.317 82.0695 233.32 85.8981 233.318C86.9023 233.296 87.6747 234.285 87.4146 235.256L82.9328 253.772C82.7397 254.573 81.991 255.155 81.1524 255.155H80.1972H52.3115L57.2584 234.728Z" fill="url(#paint25_linear_484_2041)"/>
<path d="M37.8703 255.155C49.2515 255.155 69.1511 255.155 80.5816 255.155C83.2816 255.57 83.1358 252.348 83.695 250.628L87.4159 235.256C87.4737 235.014 87.4773 234.759 87.4227 234.518C87.3726 234.297 87.2756 234.088 87.1324 233.906C88.241 234.963 89.0185 235.515 88.3918 237.172H88.3924L84.2949 254.099C83.9521 255.522 82.631 256.555 81.1537 256.555C80.8872 256.551 80.4506 256.557 80.1984 256.555L37.8703 256.555C37.1988 256.613 37.2958 255.116 37.8703 255.155Z" fill="#001F3E"/>
<path d="M81.1523 254.035C81.4602 254.035 81.7719 253.809 81.844 253.509L86.3261 234.992C86.3983 234.693 86.2058 234.438 85.898 234.438H59.0383C58.7304 234.438 58.4193 234.702 58.3466 235.002C58.6272 235.461 52.886 254.204 54.2925 254.035C54.2932 254.035 81.1523 254.035 81.1523 254.035Z" fill="url(#paint26_linear_484_2041)"/>
<path d="M37.8702 255.156H66.0761C65.2167 255.16 65.1624 256.593 66.0761 256.555H37.8702C37.223 256.606 37.2703 255.132 37.8702 255.156Z" fill="url(#paint27_linear_484_2041)"/>
<path d="M31.1187 232.409C31.3992 230.126 31.3467 228.925 31.724 226.858C38.4632 225.679 39.4885 220.867 39.6345 218.03C39.6345 218.03 40.6772 221.547 40.8216 225.016C40.8839 228.089 40.8052 229.202 37.6108 229.117C37.6759 231.3 37.8142 231.611 37.8372 233.195C38.4092 238.322 30.2851 238.822 31.1187 232.409Z" fill="#F7BB92"/>
<path d="M31.2182 256.156C31.2182 256.156 34.955 259.66 36.7316 260.7C38.0056 261.445 40.3481 260.548 40.9091 259.422C41.4706 258.297 39.3458 254.104 36.515 251.321C34.3464 249.189 31.0487 255.586 31.2182 256.156Z" fill="#E5A377"/>
<path d="M25.5857 355.865C25.4136 352.575 23.2909 355.153 21.6892 354.259C19.0663 352.976 19.9023 358.616 19.6026 358.761C19.4386 358.771 25.969 358.771 25.805 358.761C25.805 358.761 25.7202 358.071 25.5857 355.865Z" fill="#030126"/>
<path d="M35.2476 278.904C35.2476 278.904 30.1914 306.509 28.9523 311.993C27.7128 317.476 16.8714 316.867 15.1195 309.218C13.3692 301.566 10.9429 290.067 13.49 278.587C15.0905 271.374 16.1573 271.089 22.1305 267.651C28.1048 264.211 36.6179 271.468 35.2476 278.904Z" fill="#F7BB92"/>
<path d="M29.9077 307.34C29.2811 315.954 23.6983 355.439 23.6983 355.439C23.4437 355.92 21.3472 355.591 21.3193 354.865C22.8646 346.427 7.99485 305.729 20.6576 302.922C26.2852 302.605 29.9816 306.341 29.9077 307.34Z" fill="#F7BB92"/>
<path d="M53.2743 356.605C53.2743 356.605 44.9368 354.454 44.3298 354.263C41.7102 352.985 42.5589 358.534 42.2559 358.769C42.2559 358.769 51.9145 358.801 52.9545 358.685C53.9945 358.567 54.8141 357.786 53.2743 356.605Z" fill="#030126"/>
<path d="M47.3456 277.926C47.3456 277.926 50.3394 302.297 50.7396 307.904C51.1393 313.511 42.752 319.385 38.8632 312.569C34.9766 305.75 27.5926 292.92 26.6089 285.596C23.9284 265.607 38.8917 258.097 47.3456 277.926Z" fill="#F7BB92"/>
<path d="M50.7933 309.234C49.9351 321.765 46.4909 348.92 45.7846 354.985C45.7845 355.421 43.8741 356.31 43.3022 355.416C45.389 346.539 29.2422 305.474 43.4942 303.058C49.1267 302.832 51.1034 305.849 50.7933 309.234Z" fill="#F7BB92"/>
<path d="M12.7534 278.761C11.7957 285.704 12.3249 305.883 12.7534 311.742C12.7534 311.742 14.8831 314.297 28.4557 314.474C42.0288 314.65 52.4732 310.574 52.4732 310.574C52.4732 310.574 50.3937 284.937 49.8518 279.821C48.9325 264.662 12.5072 257.496 12.7534 278.761Z" fill="url(#paint28_linear_484_2041)"/>
<path d="M45.9927 239.976C45.4557 232.245 38.8657 231.58 31.126 231.789C24 231.535 21.1205 235.364 18.9159 242.848C13.3593 261.721 12.2295 280.477 12.2295 280.477C12.2295 280.477 15.6515 283.294 32.9013 282.873C46.9053 282.531 50.2025 279.371 50.2025 279.371C50.2025 279.371 47.7222 249.035 45.9927 239.976Z" fill="url(#paint29_linear_484_2041)"/>
<path d="M62.8009 232.939C63.0152 231.761 63.3783 230.575 64.0787 230.531C65.1816 230.462 64.5763 232.156 65.3079 234.082C65.788 235.345 63.6774 236.809 63.6774 236.809C63.6774 236.809 62.469 234.744 62.8009 232.939Z" fill="#F7BB92"/>
<path d="M49.8516 256.676C52.0235 249.368 61.2572 241.239 63.5166 236.428C64.5068 234.321 64.5172 230.444 67.7723 229.796C70.2362 229.304 72.8849 232.399 71.2106 232.537C68.3711 232.77 70.287 237.54 66.086 237.739C64.6698 238.966 57.9065 252.669 55.5919 256.853C54.5486 258.743 52.9115 261.195 51.4034 260.802C49.0035 260.176 48.9587 259.095 49.8516 256.676Z" fill="#F7BB92"/>
<path d="M43.9866 256.004C43.9866 256.004 47.5588 259.675 49.2856 260.795C50.5246 261.597 52.9059 260.808 53.5172 259.71C54.1302 258.612 52.1994 254.326 49.4988 251.417C47.4297 249.188 43.8438 255.427 43.9866 256.004Z" fill="#F7BB92"/>
<path d="M40.1999 253.565C44.4567 260.734 44.7137 260.282 44.7137 260.282C47.2679 260.537 52.4987 256.436 52.9479 253.573C52.9479 253.573 48.2837 242.645 44.7476 235.623C44.2582 234.651 42.7917 232.517 41.1426 235.326C38.9461 239.068 39.0598 251.644 40.1999 253.565Z" fill="#14B6C8"/>
<path d="M35.463 232.528C34.1155 221.921 40.4823 225.901 40.1601 219.04C39.4338 216.003 38.3992 212.204 31.8699 211.681C26.4299 211.244 21.8778 216.83 18.3985 227.154C16.8341 231.796 8.34883 229.643 2.33459 239.094C-1.359 244.902 -0.656916 255.684 9.99958 261.584C29.2517 269.248 45.3806 257.134 35.463 232.528Z" fill="url(#paint30_linear_484_2041)"/>
<path d="M68.205 258.098C69.1215 257.328 69.9723 256.425 69.6639 255.795C69.1773 254.803 68.0055 256.168 65.9698 256.487C64.635 256.696 64.4092 259.254 64.4092 259.254C64.4092 259.254 66.8014 259.281 68.205 258.098Z" fill="#E5A377"/>
<path d="M37.5556 224.535C37.0214 223.679 35.4909 223.153 34.9534 223.746C34.4175 224.342 34.692 225.467 35.5713 226.261C36.5146 227.155 36.5551 226.427 37.1548 225.854C37.198 225.088 37.5709 224.559 37.5556 224.535Z" fill="#F7BB92"/>
<path d="M300.061 355.555C290.622 343.034 295.15 318.238 307.311 322.659C324.041 328.742 300.061 355.555 300.061 355.555Z" fill="url(#paint31_linear_484_2041)"/>
<path d="M236.733 324.973C233.418 335.04 236.649 346.416 241.427 356.133H302.863C301.883 348.502 299.21 339.416 293.272 329.566C276.504 301.749 244.472 301.464 236.733 324.973Z" fill="url(#paint32_linear_484_2041)"/>
<path d="M221.195 317.006C209.17 316.617 200.781 308.478 203.512 304.283C207.622 297.97 218.977 308.076 221.195 317.006Z" fill="url(#paint33_linear_484_2041)"/>
<path d="M231.936 337.512C230.84 335.875 229.811 334.199 228.842 332.489C219.67 335.174 211.311 331.522 212.114 327.517C213.132 322.439 221.21 324.292 226.742 328.528C224.113 323.205 222.074 317.573 220.655 311.691C220.615 311.527 220.61 311.364 220.633 311.207C219.277 302.343 224.886 294.007 230.045 295.343C235.261 296.693 237.044 308.696 225.997 320.318C228.912 328.062 232.784 334.573 236.876 339.949L235.267 342.115C234.101 340.616 232.987 339.082 231.936 337.512Z" fill="url(#paint34_linear_484_2041)"/>
<path d="M225.311 356.133C219.418 345.726 207.635 342.008 201.99 347.832C200.944 348.91 200.354 350.056 200.094 351.214C199.526 353.743 201.506 356.133 204.098 356.133H225.311Z" fill="url(#paint35_linear_484_2041)"/>
<path d="M290.912 356.133C300.885 338.521 320.825 332.228 330.378 342.084C332.148 343.909 333.146 345.848 333.586 347.807C334.548 352.087 331.197 356.133 326.811 356.133H290.912Z" fill="url(#paint36_linear_484_2041)"/>
<path d="M214.74 343.166C213.016 347.355 214.697 352.089 217.182 356.133H249.139C248.629 352.957 247.238 349.176 244.15 345.077C235.428 333.502 218.766 333.383 214.74 343.166Z" fill="url(#paint37_linear_484_2041)"/>
<path d="M36.6909 356.354C46.1301 343.833 41.6019 319.037 29.4408 323.458C12.7112 329.541 36.6909 356.354 36.6909 356.354Z" fill="url(#paint38_linear_484_2041)"/>
<path d="M100.019 325.772C103.334 335.84 100.103 347.215 95.3253 356.932H33.8889C34.8686 349.301 37.5424 340.215 43.4797 330.365C60.2482 302.548 92.2801 302.263 100.019 325.772Z" fill="url(#paint39_linear_484_2041)"/>
<path d="M115.557 317.805C127.582 317.416 135.971 309.278 133.24 305.083C129.13 298.769 117.775 308.876 115.557 317.805Z" fill="url(#paint40_linear_484_2041)"/>
<path d="M104.816 338.311C105.912 336.674 106.941 334.998 107.91 333.288C117.082 335.974 125.441 332.321 124.638 328.316C123.62 323.239 115.542 325.091 110.01 329.328C112.638 324.004 114.678 318.372 116.097 312.49C116.137 312.327 116.142 312.163 116.119 312.006C117.474 303.143 111.866 294.807 106.707 296.142C101.491 297.492 99.7079 309.496 110.755 321.117C107.839 328.861 103.968 335.372 99.8757 340.748L101.485 342.914C102.651 341.415 103.765 339.881 104.816 338.311Z" fill="url(#paint41_linear_484_2041)"/>
<path d="M111.441 356.933C117.334 346.525 129.117 342.807 134.762 348.631C135.808 349.71 136.398 350.855 136.658 352.013C137.226 354.542 135.246 356.933 132.654 356.933H111.441Z" fill="url(#paint42_linear_484_2041)"/>
<path d="M45.8398 356.932C35.8668 339.32 15.9272 333.027 6.37386 342.883C4.60437 344.708 3.60596 346.647 3.16558 348.607C2.20361 352.887 5.55447 356.932 9.94119 356.932H45.8398Z" fill="url(#paint43_linear_484_2041)"/>
<path d="M122.012 343.965C123.736 348.155 122.055 352.888 119.57 356.932H87.613C88.1226 353.756 89.5135 349.975 92.6019 345.877C101.324 334.301 117.986 334.183 122.012 343.965Z" fill="url(#paint44_linear_484_2041)"/>
<path d="M396.216 109.545C396.188 115.901 386.524 115.9 386.497 109.545C386.606 103.157 396.108 103.158 396.216 109.545Z" fill="#EF6035"/>
<path d="M395.532 108.85C395.197 108.855 395.07 108.229 395.421 108.142C395.842 108.028 395.991 108.85 395.532 108.85ZM395.231 107.991C395.02 108.003 394.133 106.719 394.474 106.589C394.898 106.235 395.974 107.938 395.231 107.991ZM394.12 106.555C393.493 106.226 392.907 105.721 392.163 105.625C392.008 105.594 391.909 105.442 391.941 105.288C392.102 104.527 395.32 106.193 394.12 106.555Z" fill="url(#paint45_linear_484_2041)"/>
<path d="M394.067 109.546C394.118 113.063 388.594 113.063 388.646 109.546C388.595 106.03 394.118 106.03 394.067 109.546Z" fill="#001F3E"/>
<path d="M393.477 109.059C393.223 109.048 393.013 108.512 393.285 108.384C393.643 108.218 393.918 109.049 393.477 109.059ZM393.043 108.309C392.663 108.136 392.393 107.703 391.935 107.627C391.81 107.589 391.74 107.458 391.778 107.334C391.994 106.757 393.896 108.082 393.043 108.309Z" fill="url(#paint46_linear_484_2041)"/>
<path d="M389.875 109.547C389.875 108.05 390.538 106.836 391.356 106.836C387.839 106.785 387.84 112.309 391.356 112.257C390.538 112.257 389.875 111.044 389.875 109.547Z" fill="url(#paint47_linear_484_2041)"/>
</g>
<g opacity="0.2">
<path d="M774.599 366.962H1234.4C1237.49 366.962 1240 364.455 1240 361.363C1240 358.27 1237.49 355.764 1234.4 355.764H774.599C771.507 355.764 769 358.27 769 361.363C769 364.455 771.507 366.962 774.599 366.962Z" fill="url(#paint48_linear_484_2041)"/>
<path d="M988.467 325.371C976.435 325.356 967.798 317.481 970.396 313.203C974.308 306.765 985.972 316.514 988.467 325.371ZM995.432 342.435C994.285 340.833 993.205 339.19 992.184 337.511C992.184 337.511 992.184 337.511 992.184 337.511C991.549 336.595 990.536 334.752 989.962 333.617C989.961 333.617 989.961 333.617 989.961 333.616C987.168 328.378 984.955 322.811 983.354 316.977C983.31 316.815 983.299 316.652 983.317 316.494C981.687 307.677 987.034 299.17 992.232 300.345C997.487 301.533 999.642 313.475 988.962 325.434C992.116 333.084 996.188 339.471 1000.45 344.717L998.904 346.933C997.692 345.47 996.531 343.971 995.432 342.435Z" fill="url(#paint49_linear_484_2041)"/>
<path d="M998.576 330.204C995.261 340.272 998.492 351.647 1003.27 361.365H1064.71C1063.73 353.734 1061.05 344.647 1055.12 334.797C1038.35 306.98 1006.31 306.695 998.576 330.204Z" fill="url(#paint50_linear_484_2041)"/>
<path d="M985.798 361.364C980.397 351.827 969.6 348.419 964.426 353.756C964.403 353.78 964.38 353.805 964.357 353.829C961.666 356.674 963.717 361.364 967.634 361.364H985.798Z" fill="url(#paint51_linear_484_2041)"/>
<path d="M977.212 348.478C975.498 352.641 977.169 357.346 979.638 361.364H1011.4C1010.89 358.208 1009.51 354.451 1006.44 350.378C997.771 338.874 981.213 338.756 977.212 348.478Z" fill="url(#paint52_linear_484_2041)"/>
<path d="M886.405 201.109C886.433 207.464 896.097 207.464 896.124 201.109C896.015 194.72 886.513 194.722 886.405 201.109Z" fill="#EF6035"/>
<path d="M887.09 200.413C887.425 200.418 887.552 199.791 887.201 199.705C886.78 199.591 886.631 200.412 887.09 200.413ZM887.392 199.554C887.603 199.566 888.489 198.281 888.148 198.152C887.724 197.798 886.648 199.501 887.392 199.554ZM888.502 198.117C889.129 197.789 889.715 197.283 890.459 197.188C890.614 197.156 890.713 197.005 890.682 196.85C890.52 196.09 887.302 197.756 888.502 198.117Z" fill="url(#paint53_linear_484_2041)"/>
<path d="M888.554 201.108C888.503 204.625 894.027 204.625 893.975 201.108C894.026 197.592 888.503 197.592 888.554 201.108Z" fill="#001F3E"/>
<path d="M889.144 200.62C889.399 200.61 889.608 200.073 889.336 199.945C888.978 199.78 888.703 200.61 889.144 200.62ZM889.578 199.87C889.958 199.697 890.228 199.265 890.686 199.189C890.811 199.151 890.881 199.02 890.843 198.895C890.627 198.318 888.725 199.643 889.578 199.87Z" fill="url(#paint54_linear_484_2041)"/>
<path d="M892.746 201.109C892.746 199.612 892.083 198.398 891.265 198.398C894.782 198.347 894.781 203.871 891.265 203.819C892.083 203.819 892.746 202.606 892.746 201.109Z" fill="url(#paint55_linear_484_2041)"/>
<path d="M848.865 201.109C848.893 207.464 858.557 207.464 858.584 201.109C858.475 194.72 848.973 194.722 848.865 201.109Z" fill="#EF6035"/>
<path d="M849.549 200.413C849.884 200.418 850.011 199.791 849.66 199.705C849.239 199.591 849.09 200.412 849.549 200.413ZM849.851 199.554C850.061 199.566 850.948 198.281 850.607 198.152C850.183 197.798 849.107 199.501 849.851 199.554ZM850.961 198.117C851.588 197.789 852.174 197.283 852.918 197.188C853.073 197.156 853.172 197.005 853.141 196.85C852.979 196.09 849.761 197.756 850.961 198.117Z" fill="url(#paint56_linear_484_2041)"/>
<path d="M851.013 201.109C850.962 204.626 856.486 204.626 856.434 201.108C856.485 197.592 850.962 197.592 851.013 201.109Z" fill="#001F3E"/>
<path d="M851.604 200.62C851.858 200.61 852.068 200.073 851.796 199.945C851.438 199.78 851.163 200.61 851.604 200.62ZM852.038 199.87C852.418 199.697 852.688 199.265 853.146 199.189C853.271 199.151 853.341 199.02 853.303 198.895C853.087 198.318 851.185 199.643 852.038 199.87Z" fill="url(#paint57_linear_484_2041)"/>
<path d="M855.207 201.109C855.207 199.612 854.544 198.398 853.726 198.398C857.243 198.347 857.242 203.871 853.726 203.819C854.544 203.819 855.207 202.606 855.207 201.109Z" fill="url(#paint58_linear_484_2041)"/>
<path d="M1149.93 116.06C1149.96 122.415 1159.63 122.415 1159.65 116.06C1159.54 109.671 1150.04 109.673 1149.93 116.06Z" fill="#EF6035"/>
<path d="M1150.62 115.365C1150.95 115.37 1151.08 114.744 1150.73 114.657C1150.31 114.543 1150.16 115.364 1150.62 115.365ZM1150.92 114.506C1151.13 114.518 1152.02 113.233 1151.68 113.104C1151.25 112.75 1150.18 114.453 1150.92 114.506ZM1152.03 113.069C1152.66 112.741 1153.24 112.235 1153.99 112.14C1154.14 112.108 1154.24 111.957 1154.21 111.803C1154.05 111.042 1150.83 112.708 1152.03 113.069Z" fill="url(#paint59_linear_484_2041)"/>
<path d="M1152.08 116.059C1152.03 119.576 1157.56 119.576 1157.5 116.059C1157.55 112.543 1152.03 112.543 1152.08 116.059Z" fill="#001F3E"/>
<path d="M1152.67 115.573C1152.93 115.563 1153.14 115.027 1152.87 114.899C1152.51 114.733 1152.23 115.563 1152.67 115.573ZM1153.11 114.823C1153.49 114.65 1153.76 114.218 1154.22 114.142C1154.34 114.104 1154.41 113.973 1154.37 113.848C1154.16 113.271 1152.25 114.596 1153.11 114.823Z" fill="url(#paint60_linear_484_2041)"/>
<path d="M906.123 109.133C906.151 115.489 915.815 115.488 915.842 109.133C915.733 102.745 906.231 102.746 906.123 109.133Z" fill="#EF6035"/>
<path d="M906.808 108.437C907.144 108.441 907.27 107.815 906.92 107.729C906.499 107.615 906.349 108.436 906.808 108.437ZM907.11 107.578C907.321 107.59 908.208 106.305 907.867 106.176C907.443 105.822 906.367 107.525 907.11 107.578ZM908.221 106.141C908.847 105.813 909.434 105.307 910.178 105.212C910.332 105.18 910.432 105.029 910.4 104.874C910.238 104.114 907.021 105.78 908.221 106.141Z" fill="url(#paint61_linear_484_2041)"/>
<path d="M908.272 109.133C908.221 112.649 913.745 112.649 913.693 109.132C913.744 105.616 908.22 105.616 908.272 109.133Z" fill="#001F3E"/>
<path d="M908.862 108.645C909.117 108.634 909.327 108.098 909.055 107.97C908.697 107.805 908.422 108.635 908.862 108.645ZM909.297 107.895C909.677 107.722 909.947 107.29 910.405 107.214C910.529 107.176 910.6 107.045 910.562 106.92C910.346 106.343 908.444 107.668 909.297 107.895Z" fill="url(#paint62_linear_484_2041)"/>
<path d="M912.464 109.133C912.464 107.636 911.801 106.423 910.983 106.423C914.5 106.371 914.498 111.896 910.983 111.844C911.801 111.844 912.464 110.63 912.464 109.133Z" fill="url(#paint63_linear_484_2041)"/>
<path d="M949.066 160.389C949.094 166.744 958.758 166.744 958.785 160.389C958.676 154.001 949.174 154.002 949.066 160.389Z" fill="#EF6035"/>
<path d="M949.752 159.694C950.087 159.699 950.214 159.073 949.863 158.986C949.442 158.872 949.293 159.693 949.752 159.694ZM950.054 158.835C950.265 158.847 951.151 157.562 950.811 157.433C950.386 157.079 949.31 158.782 950.054 158.835ZM951.164 157.398C951.791 157.07 952.377 156.564 953.122 156.469C953.276 156.437 953.376 156.286 953.344 156.132C953.182 155.371 949.965 157.037 951.164 157.398Z" fill="url(#paint64_linear_484_2041)"/>
<path d="M951.215 160.389C951.164 163.906 956.688 163.906 956.636 160.389C956.688 156.873 951.164 156.873 951.215 160.389Z" fill="#001F3E"/>
<path d="M951.807 159.901C952.062 159.89 952.271 159.354 951.999 159.226C951.641 159.06 951.366 159.891 951.807 159.901ZM952.241 159.151C952.621 158.978 952.891 158.546 953.35 158.47C953.474 158.432 953.544 158.301 953.507 158.176C953.29 157.599 951.388 158.924 952.241 159.151Z" fill="url(#paint65_linear_484_2041)"/>
<path d="M955.408 160.389C955.408 158.892 954.744 157.679 953.926 157.679C957.444 157.627 957.442 163.151 953.926 163.099C954.744 163.099 955.408 161.886 955.408 160.389Z" fill="url(#paint66_linear_484_2041)"/>
<path d="M654.237 302V303.371L602.895 354.713C601.075 354.216 599.305 353.596 597.596 352.862L648.458 302H654.237ZM634.159 302L588.618 347.541C587.286 346.499 586.021 345.376 584.83 344.179L627.009 302H634.159ZM652.804 326.254L624.344 354.714C621.607 355.461 618.755 355.931 615.82 356.088L654.177 317.73C654.021 320.666 653.551 323.517 652.804 326.254ZM584.109 302H591.259L573.252 320.008C572.987 317.847 572.993 315.313 573.005 313.104L584.109 302ZM612.709 302L578.6 336.109C577.702 334.585 576.899 332.999 576.203 331.356L605.559 302H612.709Z" fill="url(#paint67_linear_484_2041)"/>
<path d="M1040.91 255.07C1047.34 253.773 1062.68 253.981 1068.11 253.981L1068.34 256.829C1062.93 256.679 1041.62 263.892 1038.74 260.098C1037.75 257.666 1038.23 255.612 1040.91 255.07ZM1068.72 253.992C1068.52 253.081 1067.92 249.944 1068.84 250.05C1070.59 250.25 1069.93 251.437 1071.51 253.003C1072.52 254.015 1070.58 256.804 1070.58 256.804C1070.58 256.804 1069.14 255.894 1068.72 253.992Z" fill="#F7BB92"/>
<path d="M1067.16 254.049C1071.03 254.049 1069.95 254.369 1071.95 250.56C1072.92 248.714 1079.21 249.767 1079.21 251.853C1079.21 255.755 1078.5 257.209 1075.16 257.536C1072.6 257.787 1069.66 256.574 1067.87 256.881C1067.87 256.881 1066.96 254.049 1067.16 254.049Z" fill="#F7BB92"/>
<path d="M1057.72 232.202C1057.9 231.426 1058.71 230.792 1059.51 230.792C1063.75 230.79 1082.53 230.793 1086.36 230.792C1087.36 230.769 1088.13 231.758 1087.87 232.73L1083.39 251.245C1083.2 252.047 1082.45 252.629 1081.61 252.629H1080.66H1052.77L1057.72 232.202Z" fill="url(#paint68_linear_484_2041)"/>
<path d="M1038.33 252.628C1049.71 252.628 1069.61 252.628 1081.04 252.628C1083.74 253.043 1083.59 249.821 1084.15 248.101L1087.87 232.729C1087.93 232.488 1087.94 232.232 1087.88 231.991C1087.83 231.77 1087.73 231.561 1087.59 231.379C1088.7 232.436 1089.48 232.988 1088.85 234.645H1088.85L1084.75 251.572C1084.41 252.995 1083.09 254.028 1081.61 254.028C1081.35 254.024 1080.91 254.03 1080.66 254.028H1038.33C1037.66 254.086 1037.75 252.59 1038.33 252.628Z" fill="#001F3E"/>
<path d="M1081.61 251.509C1081.92 251.509 1082.23 251.282 1082.3 250.983L1086.79 232.466C1086.86 232.166 1086.67 231.912 1086.36 231.912H1059.5C1059.19 231.912 1058.88 232.176 1058.81 232.475C1059.09 232.934 1053.35 251.678 1054.75 251.509C1054.75 251.509 1081.61 251.509 1081.61 251.509Z" fill="url(#paint69_linear_484_2041)"/>
<path d="M1038.33 252.629H1066.54C1065.68 252.633 1065.62 254.066 1066.54 254.028H1038.33C1037.68 254.079 1037.73 252.606 1038.33 252.629Z" fill="url(#paint70_linear_484_2041)"/>
<path d="M1033.79 271.897C1033.79 271.897 1027.09 304.792 1025.77 310.599C1024.46 316.404 1012.98 315.759 1011.13 307.659C1009.28 299.559 1005.88 286.329 1008.57 266.172C1009.83 256.659 1035.24 264.024 1033.79 271.897Z" fill="url(#paint71_linear_484_2041)"/>
<path d="M1011.87 317.422C1011.14 312.23 1011.04 301.358 1016.99 301.022C1022.95 300.686 1026.86 304.682 1026.79 305.74C1026.4 311.118 1024.53 327.858 1022.78 340.736H1015.36C1014.03 333.177 1012.41 321.341 1011.87 317.422Z" fill="url(#paint72_linear_484_2041)"/>
<path d="M1015.6 340.735H1022.43C1021.21 349.414 1020.21 356.653 1020.21 356.653C1019.92 357.191 1017.7 356.724 1017.69 356.006C1018.07 354.68 1016.7 345.029 1015.6 340.735Z" fill="#F7BB92"/>
<path d="M1024.79 356.881C1021.69 355.784 1019.47 355.461 1018.81 355.254C1015.96 353.911 1016.92 359.791 1016.57 360.129C1016.57 360.129 1025.14 360.153 1026.26 360.026C1027.39 359.898 1026.62 357.529 1024.79 356.881Z" fill="#030126"/>
<path d="M1049 269.964C1049 269.964 1048.48 300.299 1048.12 306.367C1047.77 312.435 1036.09 313.697 1032.88 305.844C1029.66 297.995 1025.4 287.067 1025.37 279.079C1025.34 271.09 1027.26 264.995 1033.03 260.274C1038.79 255.552 1049.15 261.792 1049 269.964Z" fill="#001F3E"/>
<path d="M1038.64 300.055C1053.22 298.05 1046.74 311.49 1047.87 321.287C1047.89 325.507 1048.25 333.457 1048.33 340.736H1041.31C1038.56 331.498 1034.15 314.677 1033.11 310.583C1031.79 305.395 1032.63 301.063 1038.64 300.055Z" fill="#001F3E"/>
<path d="M1048.21 356.235C1047.71 357.074 1045.83 357.102 1045.55 356.248C1045.74 354.802 1043.45 345.116 1041.7 340.735H1048.04C1048.13 348.854 1048.21 356.235 1048.21 356.235Z" fill="#F7BB92"/>
<path d="M1052.72 356.881C1049.62 355.783 1047.4 355.46 1046.74 355.253C1043.89 353.911 1044.85 359.79 1044.51 360.129C1044.51 360.129 1053.07 360.152 1054.19 360.026C1055.32 359.897 1054.55 357.528 1052.72 356.881Z" fill="#030126"/>
<path d="M1024.4 221.47C1025.68 215.938 1026.62 215.152 1028.21 210.948C1028.21 210.792 1034.57 211.801 1036.17 208.566C1036.24 209.252 1037.7 223.597 1031.43 219.77C1031.45 221.371 1030.95 223.201 1030.98 224.606C1030.95 230.392 1022.5 228.399 1024.4 221.47Z" fill="#F7BB92"/>
<path d="M1034.26 222.641C1035.03 225.398 1037.53 231.416 1030.83 231.659C1022.95 231.948 1020.56 223.983 1020.91 223.027C1021.73 220.852 1024.95 221.72 1026.94 221.674C1028.93 221.63 1033.61 220.303 1034.26 222.641Z" fill="#001F3E"/>
<path d="M1033.21 222.817C1040.24 222.662 1041.88 225.664 1043.17 232.674C1046.44 250.473 1048.85 264.337 1050.1 273.345C1049.68 275.795 1045.94 279.611 1030.8 280.089C1011.15 280.709 1006.97 277.433 1006.97 277.433C1006.97 277.433 1008.42 245.774 1013.03 231.706C1015.25 222.834 1024.87 222.717 1033.21 222.817Z" fill="url(#paint73_linear_484_2041)"/>
<path d="M1036.37 211.584C1039.61 211.141 1040.86 200.786 1035.71 200.081C1028.91 199.148 1031.69 204.479 1028.58 204.322C1019.46 203.86 1018.46 207.433 1019.85 212.475C1020.96 216.521 1022.58 219.284 1025.99 219.154C1027.39 219.1 1029.42 219.899 1030.79 214.29C1031.65 210.784 1033.32 211.999 1036.37 211.584Z" fill="#001F3E"/>
<path d="M1075.41 218.964C1075.99 218.23 1077.94 216.122 1078.54 216.561C1079.67 217.392 1078.32 218.303 1077.95 220.494C1077.61 222.501 1074.8 222.989 1074.8 222.989C1074.8 222.989 1074.21 220.494 1075.41 218.964Z" fill="#F4AD7D"/>
<path d="M1057.21 246.75C1059.47 239.722 1072.37 224.445 1072.98 221.023C1073.38 218.801 1070.91 217.608 1074.69 214.167C1076.24 212.766 1081.15 212.791 1080.8 214.368C1080.51 215.692 1078.61 214.6 1076.88 216.637C1076.23 217.393 1077.11 220.067 1076.03 222.375C1074.62 223.743 1064.85 251.551 1060.61 250.244C1058.31 249.821 1056.37 249.359 1057.21 246.75Z" fill="#F4AD7D"/>
<path d="M1057.69 239.581C1057.69 239.581 1062.28 245.377 1063.32 247.339C1064.07 248.745 1062.04 249.628 1060.8 250.189C1059.56 250.748 1055.12 248.271 1052.24 245.093C1050.03 242.66 1057.08 239.374 1057.69 239.581Z" fill="#F4AD7D"/>
<path d="M1039.79 224.52C1045.9 228.284 1060.14 240.899 1060.14 240.899C1060.14 240.899 1060.49 243.534 1057.76 246.446C1053.67 250.817 1051.5 251.443 1051.5 251.443C1051.5 251.443 1047.43 249.277 1041.31 244.921C1038.4 242.852 1036.91 240.675 1035.94 232.389C1035.38 227.674 1035.5 221.882 1039.79 224.52Z" fill="url(#paint74_linear_484_2041)"/>
<path d="M1028.75 212.673C1027.13 214.079 1030.51 217.791 1032.06 216.303C1033.69 214.899 1030.3 211.184 1028.75 212.673Z" fill="#F7BB92"/>
<path d="M1201.01 263.683C1193.56 265.298 1181.99 261.116 1176.68 261.451C1174.36 261.597 1170.95 263.455 1168.82 260.914C1167.2 258.991 1167.48 257.163 1169.53 257.105C1172.37 257.024 1174.4 254.982 1176.59 258.568C1178.35 259.219 1193.62 258.551 1198.4 258.567C1200.56 258.571 1203.5 258.826 1203.88 260.336C1204.48 262.742 1203.56 263.301 1201.01 263.683Z" fill="#E5A377"/>
<path d="M1182.74 237.086C1182.55 236.311 1181.75 235.677 1180.95 235.677C1176.71 235.675 1157.93 235.678 1154.1 235.677C1153.1 235.654 1152.33 236.643 1152.59 237.615L1157.07 256.13C1157.26 256.932 1158.01 257.514 1158.85 257.514H1159.8H1187.69L1182.74 237.086Z" fill="url(#paint75_linear_484_2041)"/>
<path d="M1202.13 257.513C1190.75 257.513 1170.85 257.513 1159.42 257.513C1156.72 257.929 1156.86 254.707 1156.3 252.986L1152.58 237.614C1152.53 237.373 1152.52 237.118 1152.58 236.877C1152.63 236.655 1152.72 236.446 1152.87 236.264C1151.76 237.321 1150.98 237.873 1151.61 239.53H1151.61L1155.71 256.457C1156.05 257.88 1157.37 258.913 1158.85 258.913C1159.11 258.91 1159.55 258.916 1159.8 258.913L1202.13 258.913C1202.8 258.972 1202.7 257.475 1202.13 257.513Z" fill="#001F3E"/>
<path d="M1158.85 256.394C1158.54 256.394 1158.23 256.167 1158.16 255.868L1153.67 237.351C1153.6 237.051 1153.79 236.796 1154.1 236.796H1180.96C1181.27 236.796 1181.58 237.06 1181.65 237.36C1181.37 237.819 1187.11 256.562 1185.71 256.393C1185.71 256.394 1158.85 256.394 1158.85 256.394Z" fill="url(#paint76_linear_484_2041)"/>
<path d="M1202.13 257.514H1173.92C1174.78 257.519 1174.84 258.951 1173.92 258.914H1202.13C1202.78 258.965 1202.73 257.491 1202.13 257.514Z" fill="url(#paint77_linear_484_2041)"/>
<path d="M1208.88 234.767C1208.6 232.484 1208.65 231.284 1208.28 229.217C1201.54 228.037 1200.51 223.226 1200.37 220.388C1200.37 220.388 1199.32 223.906 1199.18 227.374C1199.12 230.447 1199.19 231.561 1202.39 231.476C1202.32 233.658 1202.19 233.97 1202.16 235.553C1201.59 240.68 1209.71 241.18 1208.88 234.767Z" fill="#F7BB92"/>
<path d="M1208.78 258.514C1208.78 258.514 1205.04 262.019 1203.27 263.058C1201.99 263.803 1199.65 262.906 1199.09 261.78C1198.53 260.655 1200.65 256.462 1203.48 253.679C1205.65 251.548 1208.95 257.944 1208.78 258.514Z" fill="#E5A377"/>
<path d="M1214.41 358.223C1214.59 354.933 1216.71 357.512 1218.31 356.617C1220.93 355.335 1220.1 360.974 1220.4 361.119C1220.56 361.129 1214.03 361.129 1214.2 361.119C1214.2 361.119 1214.28 360.429 1214.41 358.223Z" fill="#030126"/>
<path d="M1204.75 281.262C1204.75 281.262 1209.81 308.867 1211.05 314.352C1212.29 319.834 1223.13 319.226 1224.88 311.576C1226.63 303.925 1229.06 292.425 1226.51 280.946C1224.91 273.732 1223.84 273.448 1217.87 270.01C1211.9 266.569 1203.38 273.827 1204.75 281.262Z" fill="#F7BB92"/>
<path d="M1210.09 309.699C1210.72 318.312 1216.3 357.798 1216.3 357.798C1216.56 358.279 1218.65 357.949 1218.68 357.224C1217.14 348.785 1232.01 308.087 1219.34 305.28C1213.71 304.963 1210.02 308.7 1210.09 309.699Z" fill="#F7BB92"/>
<path d="M1186.73 358.964C1186.73 358.964 1195.06 356.813 1195.67 356.622C1198.29 355.343 1197.44 360.892 1197.74 361.128C1197.74 361.128 1188.09 361.159 1187.05 361.043C1186.01 360.926 1185.19 360.144 1186.73 358.964Z" fill="#030126"/>
<path d="M1192.65 280.285C1192.65 280.285 1189.66 304.655 1189.26 310.262C1188.86 315.869 1197.25 321.744 1201.14 314.927C1205.02 308.109 1212.41 295.279 1213.39 287.954C1216.07 267.965 1201.11 260.455 1192.65 280.285Z" fill="#F7BB92"/>
<path d="M1189.21 311.593C1190.06 324.124 1193.51 351.279 1194.22 357.344C1194.22 357.78 1196.13 358.668 1196.7 357.774C1194.61 348.898 1210.76 307.832 1196.51 305.417C1190.87 305.191 1188.9 308.208 1189.21 311.593Z" fill="#F7BB92"/>
<path d="M1227.25 281.119C1228.2 288.063 1227.68 308.242 1227.25 314.1C1227.25 314.1 1225.12 316.656 1211.54 316.832C1197.97 317.009 1187.53 312.932 1187.53 312.932C1187.53 312.932 1189.61 287.296 1190.15 282.18C1191.07 267.02 1227.49 259.855 1227.25 281.119Z" fill="url(#paint78_linear_484_2041)"/>
<path d="M1194.01 242.334C1194.54 234.603 1201.13 233.938 1208.87 234.147C1216 233.894 1218.88 237.722 1221.08 245.206C1226.64 264.079 1227.77 282.835 1227.77 282.835C1227.77 282.835 1224.35 285.652 1207.1 285.231C1193.09 284.89 1189.8 281.729 1189.8 281.729C1189.8 281.729 1192.28 251.393 1194.01 242.334Z" fill="#5A25D4"/>
<path d="M1177.2 235.297C1176.98 234.12 1176.62 232.934 1175.92 232.889C1174.82 232.82 1175.42 234.514 1174.69 236.441C1174.21 237.704 1176.32 239.167 1176.32 239.167C1176.32 239.167 1177.53 237.102 1177.2 235.297Z" fill="#F7BB92"/>
<path d="M1190.15 259.034C1187.98 251.726 1178.74 243.598 1176.48 238.787C1175.49 236.679 1175.48 232.802 1172.23 232.154C1169.76 231.662 1167.12 234.758 1168.79 234.895C1171.63 235.128 1169.71 239.899 1173.91 240.097C1175.33 241.324 1182.09 255.028 1184.41 259.211C1185.45 261.101 1187.09 263.553 1188.6 263.161C1191 262.534 1191.04 261.453 1190.15 259.034Z" fill="#F7BB92"/>
<path d="M1196.01 258.362C1196.01 258.362 1192.44 262.033 1190.71 263.154C1189.48 263.956 1187.09 263.167 1186.48 262.068C1185.87 260.971 1187.8 256.684 1190.5 253.775C1192.57 251.547 1196.16 257.785 1196.01 258.362Z" fill="#F7BB92"/>
<path d="M1199.8 255.923C1195.54 263.093 1195.29 262.64 1195.29 262.64C1192.73 262.895 1187.5 258.794 1187.05 255.932C1187.05 255.932 1191.72 245.004 1195.25 237.982C1195.74 237.009 1197.21 234.875 1198.86 237.684C1201.05 241.426 1200.94 254.002 1199.8 255.923Z" fill="#1491D0"/>
<path d="M1204.54 234.887C1205.88 224.279 1199.52 228.259 1199.84 221.399C1200.57 218.361 1201.6 214.562 1208.13 214.039C1213.57 213.603 1218.12 219.188 1221.6 229.512C1223.17 234.154 1231.65 232.001 1237.67 241.453C1241.36 247.26 1240.66 258.043 1230 263.943C1210.75 271.607 1194.62 259.492 1204.54 234.887Z" fill="url(#paint79_linear_484_2041)"/>
<path d="M1171.79 260.457C1170.88 259.686 1170.03 258.784 1170.34 258.153C1170.82 257.162 1171.99 258.527 1174.03 258.845C1175.36 259.054 1175.59 261.612 1175.59 261.612C1175.59 261.612 1173.2 261.639 1171.79 260.457Z" fill="#E5A377"/>
<path d="M1202.44 226.893C1202.98 226.038 1204.51 225.511 1205.05 226.105C1205.58 226.7 1205.31 227.826 1204.43 228.62C1203.49 229.513 1203.44 228.786 1202.85 228.212C1202.8 227.446 1202.43 226.917 1202.44 226.893Z" fill="#F7BB92"/>
<path d="M1063.36 360.786C1072.8 348.265 1068.27 323.469 1056.11 327.891C1039.38 333.973 1063.36 360.786 1063.36 360.786Z" fill="url(#paint80_linear_484_2041)"/>
<path d="M1126.69 330.204C1130 340.272 1126.77 351.647 1121.99 361.365H1060.55C1061.53 353.734 1064.21 344.647 1070.15 334.797C1086.91 306.98 1118.95 306.695 1126.69 330.204Z" fill="url(#paint81_linear_484_2041)"/>
<path d="M1142.22 322.238C1154.25 321.849 1162.64 313.71 1159.91 309.515C1155.8 303.201 1144.44 313.308 1142.22 322.238Z" fill="url(#paint82_linear_484_2041)"/>
<path d="M1131.48 342.743C1132.58 341.106 1133.61 339.43 1134.58 337.72C1143.75 340.406 1152.11 336.753 1151.3 332.748C1150.29 327.671 1142.21 329.523 1136.68 333.76C1139.3 328.437 1141.34 322.804 1142.76 316.922C1142.8 316.759 1142.81 316.596 1142.79 316.439C1144.14 307.575 1138.53 299.239 1133.37 300.574C1128.16 301.924 1126.37 313.928 1137.42 325.549C1134.51 333.293 1130.63 339.804 1126.54 345.18L1128.15 347.346C1129.32 345.847 1130.43 344.313 1131.48 342.743Z" fill="url(#paint83_linear_484_2041)"/>
<path d="M1138.11 361.365C1144 350.958 1155.78 347.239 1161.43 353.063C1162.47 354.142 1163.06 355.288 1163.32 356.445C1163.89 358.975 1161.91 361.365 1159.32 361.365H1138.11Z" fill="url(#paint84_linear_484_2041)"/>
<path d="M1072.51 361.364C1062.53 343.752 1042.59 337.46 1033.04 347.315C1031.27 349.141 1030.27 351.08 1029.83 353.039C1028.87 357.319 1032.22 361.364 1036.61 361.364H1072.51Z" fill="url(#paint85_linear_484_2041)"/>
<path d="M1148.68 348.397C1150.4 352.587 1148.72 357.32 1146.24 361.364H1114.28C1114.79 358.189 1116.18 354.408 1119.27 350.309C1127.99 338.733 1144.65 338.615 1148.68 348.397Z" fill="url(#paint86_linear_484_2041)"/>
<path d="M843.784 111.904C843.812 118.259 853.476 118.259 853.503 111.904C853.394 105.515 843.892 105.516 843.784 111.904Z" fill="#EF6035"/>
<path d="M844.468 111.209C844.803 111.213 844.93 110.587 844.579 110.501C844.158 110.387 844.009 111.208 844.468 111.209ZM844.769 110.35C844.98 110.362 845.867 109.077 845.526 108.948C845.102 108.594 844.026 110.297 844.769 110.35ZM845.88 108.913C846.507 108.585 847.093 108.079 847.837 107.984C847.992 107.952 848.091 107.801 848.059 107.646C847.898 106.886 844.68 108.552 845.88 108.913Z" fill="url(#paint87_linear_484_2041)"/>
<path d="M845.933 111.905C845.882 115.421 851.406 115.421 851.354 111.904C851.405 108.388 845.882 108.388 845.933 111.905Z" fill="#001F3E"/>
<path d="M846.523 111.417C846.777 111.406 846.987 110.87 846.715 110.742C846.357 110.577 846.082 111.407 846.523 111.417ZM846.957 110.667C847.337 110.494 847.607 110.062 848.065 109.986C848.19 109.948 848.26 109.817 848.222 109.692C848.006 109.115 846.104 110.44 846.957 110.667Z" fill="url(#paint88_linear_484_2041)"/>
<path d="M850.125 111.905C850.125 110.408 849.462 109.195 848.644 109.195C852.161 109.143 852.16 114.668 848.644 114.616C849.462 114.616 850.125 113.402 850.125 111.905Z" fill="url(#paint89_linear_484_2041)"/>
</g>
<defs>
<linearGradient id="paint0_linear_484_2041" x1="612.01" y1="149.062" x2="612.01" y2="269.694" gradientUnits="userSpaceOnUse">
<stop offset="0.004" stop-color="#CDEDF4"/>
<stop offset="1" stop-color="#1260CC"/>
</linearGradient>
<linearGradient id="paint1_linear_484_2041" x1="0" y1="358.916" x2="471" y2="358.916" gradientUnits="userSpaceOnUse">
<stop stop-color="#3A9BDC" stop-opacity="0.37"/>
<stop offset="1" stop-color="#1260CC"/>
</linearGradient>
<linearGradient id="paint2_linear_484_2041" x1="380.209" y1="305.186" x2="364.126" y2="327.273" gradientUnits="userSpaceOnUse">
<stop offset="0.007" stop-color="#299BD4"/>
<stop offset="1" stop-color="#1491D0"/>
</linearGradient>
<linearGradient id="paint3_linear_484_2041" x1="388.236" y1="332.056" x2="345.228" y2="332.056" gradientUnits="userSpaceOnUse">
<stop offset="0.007" stop-color="#299BD4"/>
<stop offset="1" stop-color="#1491D0"/>
</linearGradient>
<linearGradient id="paint4_linear_484_2041" x1="377.62" y1="351.067" x2="400.283" y2="351.067" gradientUnits="userSpaceOnUse">
<stop offset="0.007" stop-color="#3FA5D8"/>
<stop offset="1" stop-color="#52AEDC"/>
</linearGradient>
<linearGradient id="paint5_linear_484_2041" x1="382.413" y1="346.176" x2="346.32" y2="346.176" gradientUnits="userSpaceOnUse">
<stop offset="0.007" stop-color="#299BD4"/>
<stop offset="1" stop-color="#1491D0"/>
</linearGradient>
<linearGradient id="paint6_linear_484_2041" x1="322.53" y1="299.235" x2="323.173" y2="282.348" gradientUnits="userSpaceOnUse">
<stop stop-color="#000427"/>
<stop offset="1" stop-color="#001F3E"/>
</linearGradient>
<linearGradient id="paint7_linear_484_2041" x1="320.488" y1="299.201" x2="321.131" y2="282.332" gradientUnits="userSpaceOnUse">
<stop stop-color="#000427"/>
<stop offset="1" stop-color="#001F3E"/>
</linearGradient>
<linearGradient id="paint8_linear_484_2041" x1="333.473" y1="231.8" x2="331.544" y2="274.657" gradientUnits="userSpaceOnUse">
<stop stop-color="#1260CC"/>
<stop offset="1" stop-color="#1260CC"/>
</linearGradient>
<linearGradient id="paint9_linear_484_2041" x1="330.783" y1="222.258" x2="330.006" y2="230.513" gradientUnits="userSpaceOnUse">
<stop stop-color="#000427"/>
<stop offset="1" stop-color="#001F3E"/>
</linearGradient>
<linearGradient id="paint10_linear_484_2041" x1="287.119" y1="249.416" x2="287.119" y2="230.235" gradientUnits="userSpaceOnUse">
<stop stop-opacity="0"/>
<stop offset="1"/>
</linearGradient>
<linearGradient id="paint11_linear_484_2041" x1="272.528" y1="244.239" x2="272.528" y2="236.548" gradientUnits="userSpaceOnUse">
<stop stop-color="#0099B2" stop-opacity="0.9"/>
<stop offset="1" stop-color="#0099B2" stop-opacity="0.15"/>
</linearGradient>
<linearGradient id="paint12_linear_484_2041" x1="344.098" y1="190.768" x2="355.54" y2="198.999" gradientUnits="userSpaceOnUse">
<stop stop-color="white"/>
<stop offset="1" stop-color="white" stop-opacity="0"/>
</linearGradient>
<linearGradient id="paint13_linear_484_2041" x1="341.647" y1="191.767" x2="353.302" y2="199.303" gradientUnits="userSpaceOnUse">
<stop stop-color="white"/>
<stop offset="1" stop-color="white" stop-opacity="0"/>
</linearGradient>
<linearGradient id="paint14_linear_484_2041" x1="347.418" y1="196.405" x2="347.418" y2="200.847" gradientUnits="userSpaceOnUse">
<stop stop-color="#000C16" stop-opacity="0.1"/>
<stop offset="1" stop-color="#000C16" stop-opacity="0.9"/>
</linearGradient>
<linearGradient id="paint15_linear_484_2041" x1="381.638" y1="190.768" x2="393.08" y2="198.999" gradientUnits="userSpaceOnUse">
<stop stop-color="white"/>
<stop offset="1" stop-color="white" stop-opacity="0"/>
</linearGradient>
<linearGradient id="paint16_linear_484_2041" x1="379.186" y1="191.767" x2="390.841" y2="199.303" gradientUnits="userSpaceOnUse">
<stop stop-color="white"/>
<stop offset="1" stop-color="white" stop-opacity="0"/>
</linearGradient>
<linearGradient id="paint17_linear_484_2041" x1="384.955" y1="196.405" x2="384.955" y2="200.847" gradientUnits="userSpaceOnUse">
<stop stop-color="#000C16" stop-opacity="0.1"/>
<stop offset="1" stop-color="#000C16" stop-opacity="0.9"/>
</linearGradient>
<linearGradient id="paint18_linear_484_2041" x1="324.378" y1="98.7922" x2="335.82" y2="107.023" gradientUnits="userSpaceOnUse">
<stop stop-color="white"/>
<stop offset="1" stop-color="white" stop-opacity="0"/>
</linearGradient>
<linearGradient id="paint19_linear_484_2041" x1="321.927" y1="99.7927" x2="333.582" y2="107.328" gradientUnits="userSpaceOnUse">
<stop stop-color="white"/>
<stop offset="1" stop-color="white" stop-opacity="0"/>
</linearGradient>
<linearGradient id="paint20_linear_484_2041" x1="327.699" y1="104.429" x2="327.699" y2="108.872" gradientUnits="userSpaceOnUse">
<stop stop-color="#000C16" stop-opacity="0.1"/>
<stop offset="1" stop-color="#000C16" stop-opacity="0.9"/>
</linearGradient>
<linearGradient id="paint21_linear_484_2041" x1="370.615" y1="-2.54967" x2="382.057" y2="5.68115" gradientUnits="userSpaceOnUse">
<stop stop-color="white"/>
<stop offset="1" stop-color="white" stop-opacity="0"/>
</linearGradient>
<linearGradient id="paint22_linear_484_2041" x1="368.163" y1="-1.55006" x2="379.818" y2="5.98562" gradientUnits="userSpaceOnUse">
<stop stop-color="white"/>
<stop offset="1" stop-color="white" stop-opacity="0"/>
</linearGradient>
<linearGradient id="paint23_linear_484_2041" x1="373.936" y1="3.08613" x2="373.936" y2="7.52881" gradientUnits="userSpaceOnUse">
<stop stop-color="#000C16" stop-opacity="0.1"/>
<stop offset="1" stop-color="#000C16" stop-opacity="0.9"/>
</linearGradient>
<linearGradient id="paint24_linear_484_2041" x1="303.211" y1="353.956" x2="303.211" y2="298.9" gradientUnits="userSpaceOnUse">
<stop offset="0.004" stop-color="#0095AF" stop-opacity="0.15"/>
<stop offset="0.993" stop-color="#0095AF" stop-opacity="0.5"/>
</linearGradient>
<linearGradient id="paint25_linear_484_2041" x1="69.8884" y1="252.201" x2="69.8884" y2="234.179" gradientUnits="userSpaceOnUse">
<stop stop-color="#000427"/>
<stop offset="1" stop-color="#001F3E"/>
</linearGradient>
<linearGradient id="paint26_linear_484_2041" x1="70.2057" y1="252.72" x2="70.2057" y2="234.973" gradientUnits="userSpaceOnUse">
<stop stop-color="#0093AE"/>
<stop offset="1" stop-color="#11B5C8"/>
</linearGradient>
<linearGradient id="paint27_linear_484_2041" x1="37.6642" y1="255.856" x2="64.572" y2="255.856" gradientUnits="userSpaceOnUse">
<stop stop-opacity="0"/>
<stop offset="1"/>
</linearGradient>
<linearGradient id="paint28_linear_484_2041" x1="32.3447" y1="309.487" x2="32.3447" y2="287.793" gradientUnits="userSpaceOnUse">
<stop stop-color="#2331A7"/>
<stop offset="1" stop-color="#23598E"/>
</linearGradient>
<linearGradient id="paint29_linear_484_2041" x1="31.2073" y1="280.796" x2="31.6276" y2="238.765" gradientUnits="userSpaceOnUse">
<stop/>
<stop offset="1" stop-color="#3A9BDC"/>
</linearGradient>
<linearGradient id="paint30_linear_484_2041" x1="14.2529" y1="258.448" x2="32.0413" y2="219.228" gradientUnits="userSpaceOnUse">
<stop stop-color="#000427"/>
<stop offset="1" stop-color="#001F3E"/>
</linearGradient>
<linearGradient id="paint31_linear_484_2041" x1="307.399" y1="326.002" x2="302.789" y2="336.509" gradientUnits="userSpaceOnUse">
<stop offset="0.007" stop-color="#3FA5D8"/>
<stop offset="1" stop-color="#52AEDC"/>
</linearGradient>
<linearGradient id="paint32_linear_484_2041" x1="267.516" y1="338.339" x2="301.397" y2="354.314" gradientUnits="userSpaceOnUse">
<stop offset="0.007" stop-color="#3FA5D8"/>
<stop offset="1" stop-color="#52AEDC"/>
</linearGradient>
<linearGradient id="paint33_linear_484_2041" x1="226.094" y1="342.46" x2="208.832" y2="304.505" gradientUnits="userSpaceOnUse">
<stop offset="0.007" stop-color="#299BD4"/>
<stop offset="1" stop-color="#1491D0"/>
</linearGradient>
<linearGradient id="paint34_linear_484_2041" x1="234.156" y1="338.793" x2="216.894" y2="300.838" gradientUnits="userSpaceOnUse">
<stop offset="0.007" stop-color="#299BD4"/>
<stop offset="1" stop-color="#1491D0"/>
</linearGradient>
<linearGradient id="paint35_linear_484_2041" x1="225.355" y1="350.606" x2="203.794" y2="350.606" gradientUnits="userSpaceOnUse">
<stop offset="0.007" stop-color="#299BD4"/>
<stop offset="1" stop-color="#1491D0"/>
</linearGradient>
<linearGradient id="paint36_linear_484_2041" x1="320.288" y1="347.166" x2="300.56" y2="352.634" gradientUnits="userSpaceOnUse">
<stop offset="0.007" stop-color="#3FA5D8"/>
<stop offset="1" stop-color="#52AEDC"/>
</linearGradient>
<linearGradient id="paint37_linear_484_2041" x1="256.648" y1="361.385" x2="290.529" y2="377.361" gradientUnits="userSpaceOnUse">
<stop offset="0.007" stop-color="#3FA5D8"/>
<stop offset="0.056" stop-color="#40A5D8"/>
<stop offset="1" stop-color="#52AEDC"/>
</linearGradient>
<linearGradient id="paint38_linear_484_2041" x1="29.3531" y1="326.801" x2="33.9635" y2="337.309" gradientUnits="userSpaceOnUse">
<stop offset="0.007" stop-color="#3FA5D8"/>
<stop offset="1" stop-color="#52AEDC"/>
</linearGradient>
<linearGradient id="paint39_linear_484_2041" x1="69.2358" y1="339.138" x2="35.3545" y2="355.114" gradientUnits="userSpaceOnUse">
<stop offset="0.007" stop-color="#3FA5D8"/>
<stop offset="1" stop-color="#52AEDC"/>
</linearGradient>
<linearGradient id="paint40_linear_484_2041" x1="110.658" y1="343.259" x2="127.92" y2="305.304" gradientUnits="userSpaceOnUse">
<stop offset="0.007" stop-color="#299BD4"/>
<stop offset="1" stop-color="#1491D0"/>
</linearGradient>
<linearGradient id="paint41_linear_484_2041" x1="102.596" y1="339.592" x2="119.858" y2="301.637" gradientUnits="userSpaceOnUse">
<stop offset="0.007" stop-color="#299BD4"/>
<stop offset="1" stop-color="#1491D0"/>
</linearGradient>
<linearGradient id="paint42_linear_484_2041" x1="111.397" y1="351.405" x2="132.958" y2="351.405" gradientUnits="userSpaceOnUse">
<stop offset="0.007" stop-color="#299BD4"/>
<stop offset="1" stop-color="#1491D0"/>
</linearGradient>
<linearGradient id="paint43_linear_484_2041" x1="16.4637" y1="347.965" x2="36.1919" y2="353.433" gradientUnits="userSpaceOnUse">
<stop offset="0.007" stop-color="#3FA5D8"/>
<stop offset="1" stop-color="#52AEDC"/>
</linearGradient>
<linearGradient id="paint44_linear_484_2041" x1="80.1036" y1="362.184" x2="46.2226" y2="378.16" gradientUnits="userSpaceOnUse">
<stop offset="0.007" stop-color="#3FA5D8"/>
<stop offset="0.056" stop-color="#40A5D8"/>
<stop offset="1" stop-color="#52AEDC"/>
</linearGradient>
<linearGradient id="paint45_linear_484_2041" x1="386.719" y1="101.564" x2="398.161" y2="109.795" gradientUnits="userSpaceOnUse">
<stop stop-color="white"/>
<stop offset="1" stop-color="white" stop-opacity="0"/>
</linearGradient>
<linearGradient id="paint46_linear_484_2041" x1="384.267" y1="102.565" x2="395.922" y2="110.1" gradientUnits="userSpaceOnUse">
<stop stop-color="white"/>
<stop offset="1" stop-color="white" stop-opacity="0"/>
</linearGradient>
<linearGradient id="paint47_linear_484_2041" x1="390.038" y1="107.201" x2="390.038" y2="111.644" gradientUnits="userSpaceOnUse">
<stop stop-color="#000C16" stop-opacity="0.1"/>
<stop offset="1" stop-color="#000C16" stop-opacity="0.9"/>
</linearGradient>
<linearGradient id="paint48_linear_484_2041" x1="769" y1="361.363" x2="1240" y2="361.363" gradientUnits="userSpaceOnUse">
<stop stop-color="#DFECF7"/>
<stop offset="1" stop-color="#B9D0EE"/>
</linearGradient>
<linearGradient id="paint49_linear_484_2041" x1="983.209" y1="310.418" x2="999.292" y2="332.505" gradientUnits="userSpaceOnUse">
<stop offset="0.007" stop-color="#299BD4"/>
<stop offset="1" stop-color="#1491D0"/>
</linearGradient>
<linearGradient id="paint50_linear_484_2041" x1="975.182" y1="337.287" x2="1018.19" y2="337.287" gradientUnits="userSpaceOnUse">
<stop offset="0.007" stop-color="#299BD4"/>
<stop offset="1" stop-color="#1491D0"/>
</linearGradient>
<linearGradient id="paint51_linear_484_2041" x1="985.798" y1="356.299" x2="963.135" y2="356.299" gradientUnits="userSpaceOnUse">
<stop offset="0.007" stop-color="#3FA5D8"/>
<stop offset="1" stop-color="#52AEDC"/>
</linearGradient>
<linearGradient id="paint52_linear_484_2041" x1="981.005" y1="351.407" x2="1017.1" y2="351.407" gradientUnits="userSpaceOnUse">
<stop offset="0.007" stop-color="#299BD4"/>
<stop offset="1" stop-color="#1491D0"/>
</linearGradient>
<linearGradient id="paint53_linear_484_2041" x1="895.903" y1="193.127" x2="884.461" y2="201.357" gradientUnits="userSpaceOnUse">
<stop stop-color="white"/>
<stop offset="1" stop-color="white" stop-opacity="0"/>
</linearGradient>
<linearGradient id="paint54_linear_484_2041" x1="898.354" y1="194.126" x2="886.699" y2="201.662" gradientUnits="userSpaceOnUse">
<stop stop-color="white"/>
<stop offset="1" stop-color="white" stop-opacity="0"/>
</linearGradient>
<linearGradient id="paint55_linear_484_2041" x1="892.583" y1="198.763" x2="892.583" y2="203.206" gradientUnits="userSpaceOnUse">
<stop stop-color="#000C16" stop-opacity="0.1"/>
<stop offset="1" stop-color="#000C16" stop-opacity="0.9"/>
</linearGradient>
<linearGradient id="paint56_linear_484_2041" x1="858.362" y1="193.127" x2="846.92" y2="201.357" gradientUnits="userSpaceOnUse">
<stop stop-color="white"/>
<stop offset="1" stop-color="white" stop-opacity="0"/>
</linearGradient>
<linearGradient id="paint57_linear_484_2041" x1="860.814" y1="194.126" x2="849.159" y2="201.662" gradientUnits="userSpaceOnUse">
<stop stop-color="white"/>
<stop offset="1" stop-color="white" stop-opacity="0"/>
</linearGradient>
<linearGradient id="paint58_linear_484_2041" x1="855.045" y1="198.763" x2="855.045" y2="203.206" gradientUnits="userSpaceOnUse">
<stop stop-color="#000C16" stop-opacity="0.1"/>
<stop offset="1" stop-color="#000C16" stop-opacity="0.9"/>
</linearGradient>
<linearGradient id="paint59_linear_484_2041" x1="1159.43" y1="108.079" x2="1147.99" y2="116.31" gradientUnits="userSpaceOnUse">
<stop stop-color="white"/>
<stop offset="1" stop-color="white" stop-opacity="0"/>
</linearGradient>
<linearGradient id="paint60_linear_484_2041" x1="1161.88" y1="109.079" x2="1150.23" y2="116.615" gradientUnits="userSpaceOnUse">
<stop stop-color="white"/>
<stop offset="1" stop-color="white" stop-opacity="0"/>
</linearGradient>
<linearGradient id="paint61_linear_484_2041" x1="915.622" y1="101.151" x2="904.18" y2="109.381" gradientUnits="userSpaceOnUse">
<stop stop-color="white"/>
<stop offset="1" stop-color="white" stop-opacity="0"/>
</linearGradient>
<linearGradient id="paint62_linear_484_2041" x1="918.073" y1="102.151" x2="906.418" y2="109.687" gradientUnits="userSpaceOnUse">
<stop stop-color="white"/>
<stop offset="1" stop-color="white" stop-opacity="0"/>
</linearGradient>
<linearGradient id="paint63_linear_484_2041" x1="912.301" y1="106.788" x2="912.301" y2="111.23" gradientUnits="userSpaceOnUse">
<stop stop-color="#000C16" stop-opacity="0.1"/>
<stop offset="1" stop-color="#000C16" stop-opacity="0.9"/>
</linearGradient>
<linearGradient id="paint64_linear_484_2041" x1="958.565" y1="152.408" x2="947.123" y2="160.639" gradientUnits="userSpaceOnUse">
<stop stop-color="white"/>
<stop offset="1" stop-color="white" stop-opacity="0"/>
</linearGradient>
<linearGradient id="paint65_linear_484_2041" x1="961.017" y1="153.407" x2="949.362" y2="160.943" gradientUnits="userSpaceOnUse">
<stop stop-color="white"/>
<stop offset="1" stop-color="white" stop-opacity="0"/>
</linearGradient>
<linearGradient id="paint66_linear_484_2041" x1="955.245" y1="158.044" x2="955.245" y2="162.486" gradientUnits="userSpaceOnUse">
<stop stop-color="#000C16" stop-opacity="0.1"/>
<stop offset="1" stop-color="#000C16" stop-opacity="0.9"/>
</linearGradient>
<linearGradient id="paint67_linear_484_2041" x1="613.619" y1="353.971" x2="613.619" y2="298.915" gradientUnits="userSpaceOnUse">
<stop offset="0.004" stop-color="#0095AF" stop-opacity="0.15"/>
<stop offset="0.993" stop-color="#0095AF" stop-opacity="0.5"/>
</linearGradient>
<linearGradient id="paint68_linear_484_2041" x1="1070.35" y1="249.674" x2="1070.35" y2="231.653" gradientUnits="userSpaceOnUse">
<stop stop-color="#000427"/>
<stop offset="1" stop-color="#001F3E"/>
</linearGradient>
<linearGradient id="paint69_linear_484_2041" x1="1070.67" y1="250.193" x2="1070.67" y2="232.447" gradientUnits="userSpaceOnUse">
<stop stop-color="#0093AE"/>
<stop offset="1" stop-color="#11B5C8"/>
</linearGradient>
<linearGradient id="paint70_linear_484_2041" x1="1038.12" y1="253.329" x2="1065.03" y2="253.329" gradientUnits="userSpaceOnUse">
<stop stop-opacity="0"/>
<stop offset="1"/>
</linearGradient>
<linearGradient id="paint71_linear_484_2041" x1="1020.8" y1="307.206" x2="1020.73" y2="282.832" gradientUnits="userSpaceOnUse">
<stop stop-color="#000427"/>
<stop offset="1" stop-color="#001F3E"/>
</linearGradient>
<linearGradient id="paint72_linear_484_2041" x1="1019.15" y1="307.212" x2="1019.08" y2="282.838" gradientUnits="userSpaceOnUse">
<stop stop-color="#000427"/>
<stop offset="1" stop-color="#001F3E"/>
</linearGradient>
<linearGradient id="paint73_linear_484_2041" x1="1028.53" y1="280.167" x2="1028.53" y2="222.801" gradientUnits="userSpaceOnUse">
<stop stop-color="#1462CD"/>
<stop offset="1"/>
</linearGradient>
<linearGradient id="paint74_linear_484_2041" x1="1037.14" y1="228.498" x2="1053.09" y2="245.669" gradientUnits="userSpaceOnUse">
<stop stop-color="#EF6035"/>
<stop offset="1" stop-color="#EB3100"/>
</linearGradient>
<linearGradient id="paint75_linear_484_2041" x1="1170.11" y1="254.559" x2="1170.11" y2="236.538" gradientUnits="userSpaceOnUse">
<stop stop-color="#000427"/>
<stop offset="1" stop-color="#001F3E"/>
</linearGradient>
<linearGradient id="paint76_linear_484_2041" x1="1169.79" y1="255.078" x2="1169.79" y2="237.332" gradientUnits="userSpaceOnUse">
<stop stop-color="#0093AE"/>
<stop offset="1" stop-color="#11B5C8"/>
</linearGradient>
<linearGradient id="paint77_linear_484_2041" x1="1202.34" y1="258.214" x2="1175.43" y2="258.214" gradientUnits="userSpaceOnUse">
<stop stop-opacity="0"/>
<stop offset="1"/>
</linearGradient>
<linearGradient id="paint78_linear_484_2041" x1="1207.66" y1="311.845" x2="1207.66" y2="290.152" gradientUnits="userSpaceOnUse">
<stop stop-color="#5162F5" stop-opacity="0.89"/>
<stop offset="1" stop-color="#001F3E"/>
</linearGradient>
<linearGradient id="paint79_linear_484_2041" x1="1225.75" y1="260.807" x2="1207.96" y2="221.587" gradientUnits="userSpaceOnUse">
<stop stop-color="#000427"/>
<stop offset="1" stop-color="#001F3E"/>
</linearGradient>
<linearGradient id="paint80_linear_484_2041" x1="1056.02" y1="331.233" x2="1060.63" y2="341.741" gradientUnits="userSpaceOnUse">
<stop offset="0.007" stop-color="#3FA5D8"/>
<stop offset="1" stop-color="#52AEDC"/>
</linearGradient>
<linearGradient id="paint81_linear_484_2041" x1="1095.9" y1="343.57" x2="1062.02" y2="359.546" gradientUnits="userSpaceOnUse">
<stop offset="0.007" stop-color="#3FA5D8"/>
<stop offset="1" stop-color="#52AEDC"/>
</linearGradient>
<linearGradient id="paint82_linear_484_2041" x1="1137.32" y1="347.691" x2="1154.59" y2="309.736" gradientUnits="userSpaceOnUse">
<stop offset="0.007" stop-color="#299BD4"/>
<stop offset="1" stop-color="#1491D0"/>
</linearGradient>
<linearGradient id="paint83_linear_484_2041" x1="1129.26" y1="344.025" x2="1146.52" y2="306.069" gradientUnits="userSpaceOnUse">
<stop offset="0.007" stop-color="#299BD4"/>
<stop offset="1" stop-color="#1491D0"/>
</linearGradient>
<linearGradient id="paint84_linear_484_2041" x1="1138.06" y1="355.838" x2="1159.62" y2="355.838" gradientUnits="userSpaceOnUse">
<stop offset="0.007" stop-color="#299BD4"/>
<stop offset="1" stop-color="#1491D0"/>
</linearGradient>
<linearGradient id="paint85_linear_484_2041" x1="1043.13" y1="352.397" x2="1062.86" y2="357.866" gradientUnits="userSpaceOnUse">
<stop offset="0.007" stop-color="#3FA5D8"/>
<stop offset="1" stop-color="#52AEDC"/>
</linearGradient>
<linearGradient id="paint86_linear_484_2041" x1="1106.77" y1="366.616" x2="1072.89" y2="382.592" gradientUnits="userSpaceOnUse">
<stop offset="0.007" stop-color="#3FA5D8"/>
<stop offset="0.056" stop-color="#40A5D8"/>
<stop offset="1" stop-color="#52AEDC"/>
</linearGradient>
<linearGradient id="paint87_linear_484_2041" x1="853.281" y1="103.922" x2="841.839" y2="112.153" gradientUnits="userSpaceOnUse">
<stop stop-color="white"/>
<stop offset="1" stop-color="white" stop-opacity="0"/>
</linearGradient>
<linearGradient id="paint88_linear_484_2041" x1="855.733" y1="104.923" x2="844.078" y2="112.459" gradientUnits="userSpaceOnUse">
<stop stop-color="white"/>
<stop offset="1" stop-color="white" stop-opacity="0"/>
</linearGradient>
<linearGradient id="paint89_linear_484_2041" x1="849.962" y1="109.56" x2="849.962" y2="114.002" gradientUnits="userSpaceOnUse">
<stop stop-color="#000C16" stop-opacity="0.1"/>
<stop offset="1" stop-color="#000C16" stop-opacity="0.9"/>
</linearGradient>
</defs>
</svg>
