<svg width="212" height="53" viewBox="0 0 212 53" fill="none" xmlns="http://www.w3.org/2000/svg">
<path d="M27 0H212L185 53H0L27 0Z" fill="url(#paint0_linear_301_1403)"/>
<mask id="mask0_301_1403" style="mask-type:alpha" maskUnits="userSpaceOnUse" x="0" y="0" width="212" height="53">
<path d="M27 0H212L185 53H0L27 0Z" fill="#2CD99D"/>
</mask>
<g mask="url(#mask0_301_1403)">
<rect x="195" y="-2" width="4.5" height="4.5" fill="white"/>
<rect x="204" y="-2" width="4.5" height="4.5" fill="white"/>
<rect x="195" y="7" width="4.5" height="4.5" fill="white"/>
<rect x="204" y="7" width="4.5" height="4.5" fill="white"/>
<rect x="199.5" y="2.5" width="4.5" height="4.5" fill="white"/>
<rect x="208.5" y="2.5" width="4.5" height="4.5" fill="white"/>
<rect x="199.5" y="11.5" width="4.5" height="4.5" fill="white"/>
<rect x="208.5" y="11.5" width="4.5" height="4.5" fill="white"/>
<rect width="4.5" height="4.5" transform="matrix(-1 0 0 1 16.5 41)" fill="white"/>
<rect width="4.5" height="4.5" transform="matrix(-1 0 0 1 7.5 41)" fill="white"/>
<rect width="4.5" height="4.5" transform="matrix(-1 0 0 1 16.5 50)" fill="white"/>
<rect width="4.5" height="4.5" transform="matrix(-1 0 0 1 7.5 50)" fill="white"/>
<rect width="4.5" height="4.5" transform="matrix(-1 0 0 1 12 45.5)" fill="white"/>
<rect width="4.5" height="4.5" transform="matrix(-1 0 0 1 3 45.5)" fill="white"/>
</g>
<defs>
<linearGradient id="paint0_linear_301_1403" x1="27.062" y1="7.29045" x2="98.0862" y2="94.7894" gradientUnits="userSpaceOnUse">
<stop stop-color="#3A9BDC"/>
<stop offset="1" stop-color="#1260CC"/>
</linearGradient>
</defs>
</svg>
