<svg width="820" height="670" viewBox="0 0 820 670" fill="none" xmlns="http://www.w3.org/2000/svg">
<path d="M371.853 475.971L366.109 481.592L363.09 470.548L371.853 475.971Z" fill="url(#paint0_linear_476_1996)"/>
<path d="M373.791 477.171L373.474 477.723L367.758 487.627L366.109 481.592L371.853 475.972L373.791 477.171Z" fill="url(#paint1_linear_476_1996)"/>
<path d="M376.121 478.251L381.876 472.641L384.873 483.691L376.121 478.251Z" fill="url(#paint2_linear_476_1996)"/>
<path d="M374.185 477.048L374.504 476.497L380.239 466.604L381.876 472.642L376.121 478.251L374.185 477.048Z" fill="url(#paint3_linear_476_1996)"/>
<g clip-path="url(#clip0_476_1996)" filter="url(#filter0_d_476_1996)">
<path d="M677.437 177.263C678.02 184.151 679.524 190.958 681.905 197.454C682.623 199.402 683.505 201.431 685.239 202.571C687.62 204.138 690.768 203.512 693.523 202.763C693.54 202.758 693.561 202.752 693.577 202.747C693.828 204.449 693.925 206.333 694.112 208.201C694.187 208.965 694.294 209.752 694.706 210.394C695.075 210.967 695.67 211.362 696.29 211.641C696.328 211.657 696.365 211.673 696.403 211.689C697.275 212.064 698.228 212.251 699.18 212.24C700.272 212.23 701.348 211.952 702.402 211.636C706.115 210.518 709.664 208.843 712.891 206.685C710.835 192.076 715.738 181.448 714.501 177.418C713.881 175.401 712.773 173.571 711.735 171.735C710.263 169.156 708.893 166.511 707.133 164.119C705.366 161.733 703.178 159.581 700.47 158.355C697.356 156.948 693.742 156.852 690.425 157.676C684.152 159.239 678.689 164.376 677.544 170.734C677.164 172.88 677.255 175.085 677.437 177.263Z" fill="#FFC5A6"/>
<path d="M702.573 153.952C702.573 153.952 713.147 148.814 718.724 158.426C724.3 168.037 721.153 176.332 718.617 182.053C716.08 187.774 712.826 196.856 712.826 198.89C712.826 198.89 704.735 194.956 702.262 185.098C702.262 185.098 708.678 182.905 706.164 176.665C703.649 170.425 694.748 174.39 697.104 188.668C697.104 188.668 693.941 179.677 691.581 176.846C689.221 174.015 687.304 173.641 680.877 174.722C674.456 175.802 663.206 172.046 663.206 158.164C663.206 158.164 670.116 159.839 675.446 158.475C683.237 156.489 692.689 145.187 702.573 153.952Z" fill="url(#paint4_linear_476_1996)"/>
<path d="M694.117 208.2C694.192 208.965 694.3 209.753 694.712 210.395C695.081 210.967 695.675 211.363 696.295 211.641L701.711 198.407C698.64 200.97 693.577 202.747 693.577 202.747C693.577 202.747 693.93 206.328 694.117 208.2Z" fill="#FF9F6B"/>
<path d="M599.769 197.353C597.008 194.912 594.471 192.215 592.202 189.314C590.998 187.778 589.864 186.167 589.082 184.38C588.616 183.31 588.279 182.095 588.659 180.992C588.943 180.168 589.585 179.526 590.233 178.943C591.303 177.98 592.496 177.065 593.899 176.738C596.334 176.171 598.769 177.466 600.936 178.718C601.889 179.27 602.862 179.831 603.59 180.661C604.324 181.495 604.773 182.55 605.051 183.625C605.913 186.927 605.286 190.432 604.356 193.719C604.045 194.815 603.676 195.95 602.879 196.769C602.081 197.587 600.636 198.117 599.769 197.353Z" fill="#FFC5A6"/>
<path d="M622.544 277.754C622.848 279.637 623.134 281.659 622.316 283.386C621.458 285.201 619.576 286.265 617.804 287.218C615.868 288.262 613.934 289.299 611.997 290.343C611.409 290.661 610.766 291.031 610.539 291.663C610.223 292.55 610.876 293.491 611.603 294.091C613.649 295.777 616.45 296.212 619.101 296.249C622.724 296.3 626.563 295.619 629.28 293.215C630.903 291.784 632.031 289.811 633.804 288.574C635.321 287.512 637.177 287.076 638.879 286.342C640.583 285.608 642.272 284.391 642.702 282.591C643.182 280.592 641.73 278.387 639.736 277.878C639.015 277.693 638.257 277.707 637.51 277.717C632.59 277.779 627.668 277.849 622.544 277.754Z" fill="#FFC5A6"/>
<g filter="url(#filter1_d_476_1996)">
<path d="M593.914 195.104C600.09 193.408 606.608 192.974 612.698 194.425C614.839 204.577 617.739 214.574 621.357 224.302C623.139 229.086 625.402 234.165 629.888 236.611C635.533 239.688 642.538 237.478 648.323 234.669C663.313 227.396 676.59 216.372 692.592 211.727C694.989 211.031 696.338 214.392 698.789 213.979C707.143 212.588 707.319 207.017 723.138 209.013C727.307 209.013 734.082 210.907 737.743 213.257C743.929 217.222 746.493 224.87 748.317 231.993C750.538 240.662 752.304 249.449 753.476 258.483C753.524 268.908 754.354 279.327 756.275 290.485C741.703 292.781 726.991 294.189 712.248 294.692C703.733 294.986 695.128 294.97 686.796 293.193C684.452 279.718 682.113 266.248 679.603 252.997C667.648 255.299 655.693 257.605 643.737 259.907C635.624 261.47 626.639 262.893 619.57 258.616C613.72 255.079 610.611 248.444 608.015 242.118C601.754 226.872 597.976 211.566 593.914 195.104Z" fill="url(#paint5_linear_476_1996)"/>
</g>
<path d="M702.872 216.238C701.684 220.076 700.699 223.977 699.875 228.429C702.021 248.043 704.862 267.576 708.39 286.986C708.464 287.409 708.545 287.859 708.394 288.265C708.298 288.533 708.116 288.758 707.935 288.977C706.511 290.711 705.081 292.445 703.658 294.184C702.192 292.68 700.726 291.182 699.259 289.678C698.794 289.202 698.312 288.704 698.077 288.078C697.889 287.58 697.873 287.034 697.862 286.499C697.387 267.822 696.91 249.146 696.429 230.469C696.38 228.676 696.337 226.872 696.027 225.101C695.674 223.078 694.973 221.114 694.823 219.064C694.657 216.779 695.171 214.51 695.684 212.279C695.733 212.064 695.792 211.84 695.963 211.701C696.155 211.551 696.423 211.561 696.67 211.583C697.873 211.684 699.083 211.781 700.287 211.882C700.742 211.92 701.234 211.978 701.55 212.305C701.759 212.525 701.849 212.83 701.935 213.124C702.219 214.114 702.497 215.098 702.872 216.238Z" fill="#0E1223"/>
<path d="M694.192 208.811C695.187 210.25 696.503 211.106 698.633 211.577C703.305 210.095 708.63 207.831 712.558 204.989C713.414 206.338 714.094 207.681 714.629 208.896C711.21 213.943 707.185 218.582 702.674 222.687C701.667 219.492 700.276 216.421 698.537 213.552C696.867 216.067 695.214 218.951 693.892 222.976C692.618 217.956 692.457 214.087 694.192 208.811Z" fill="#0E1223"/>
<path d="M631.753 298.011C633.838 290.905 636.695 283.982 640.323 277.13C647.226 277.912 654.131 278.7 661.035 279.483C664.996 279.933 669.003 280.387 673.041 279.855C677.08 279.325 681.214 277.713 684.252 274.597C687.202 271.57 688.836 267.462 690.326 263.472C693.023 256.224 695.519 248.908 697.8 241.535C699.323 236.612 701.11 231.162 705.331 228.418C706.637 227.569 708.079 227.053 709.529 226.633C713.241 225.556 717.136 225.085 720.713 226.005C724.292 226.92 727.509 229.371 728.834 232.982C730.493 237.514 728.986 242.888 727.38 247.759C722.254 263.309 716.094 278.623 708.051 292.955C705.306 297.842 702.103 302.855 697.367 305.471C694.247 307.196 690.75 307.704 687.36 307.873C680.175 308.229 673.12 307.184 666.153 305.99C654.556 303.99 643.067 301.584 631.753 298.011Z" fill="url(#paint6_linear_476_1996)"/>
<path d="M704.53 214.4C699.084 224.27 699.027 235.963 695.909 246.596C694.242 252.288 692.054 257.885 689.447 263.213C688.117 265.929 686.63 268.572 684.921 271.069C683.339 273.38 681.586 275.705 679.321 277.384C675.206 280.435 669.962 280.119 665.126 279.554C664.448 279.475 664.483 278.404 665.173 278.484C669.356 278.972 674.059 279.415 677.82 277.116C680.194 275.664 681.981 273.379 683.567 271.14C685.264 268.744 686.749 266.194 688.074 263.576C690.749 258.291 692.947 252.687 694.666 247.022C696.263 241.762 697.136 236.347 698.164 230.955C699.288 225.049 700.696 219.145 703.619 213.839C703.953 213.227 704.862 213.793 704.53 214.4Z" fill="#203752"/>
<path d="M694.127 238.666C695.065 239.628 696.003 240.598 696.94 241.561C697.138 241.768 697.126 242.121 696.918 242.319C696.704 242.519 696.366 242.503 696.161 242.297C695.223 241.335 694.285 240.364 693.348 239.401C693.15 239.194 693.163 238.842 693.37 238.644C693.584 238.444 693.922 238.46 694.127 238.666ZM690.825 244.104C692.473 244.46 694.068 245.02 695.582 245.758C695.844 245.885 695.895 246.265 695.757 246.494C695.589 246.762 695.278 246.794 695.021 246.67C693.587 245.976 692.068 245.463 690.515 245.13C690.229 245.071 690.084 244.719 690.164 244.461C690.244 244.163 690.539 244.046 690.825 244.104ZM732.538 231.375C728.767 246.53 724.118 261.555 717.315 275.649C713.93 282.656 710.014 289.41 705.443 295.709C703.248 298.734 700.971 301.93 698.123 304.386C695.613 306.557 692.538 307.865 689.288 308.438C682.489 309.635 675.857 307.414 669.284 305.953C668.613 305.803 668.932 304.783 669.598 304.93C675.252 306.186 681.009 308.128 686.867 307.673C690.078 307.423 693.304 306.526 695.985 304.698C699.094 302.582 701.409 299.347 703.63 296.37C712.752 284.146 719.288 270.214 724.272 255.854C727.1 247.712 729.438 239.415 731.519 231.056C731.682 230.394 732.705 230.708 732.538 231.375Z" fill="#203752"/>
</g>
<path opacity="0.1" d="M50.3518 221.107C33.7414 311.11 124.008 382.651 208.2 317.463C355.488 203.439 282.575 248.403 361.661 261.704C440.746 275.005 447.837 142.245 384.345 143.958C320.854 145.67 301.343 198.575 235 149.839C168.658 101.102 64.2104 146.116 50.3518 221.107Z" fill="#2A94F4"/>
<path d="M222.505 356C279.04 356 324.87 310.127 324.87 253.539C324.87 196.952 279.04 151.079 222.505 151.079C165.971 151.079 120.14 196.952 120.14 253.539C120.14 310.127 165.971 356 222.505 356Z" fill="#CCE9FF"/>
<path d="M108.91 231.255C117.344 231.255 124.182 224.412 124.182 215.97C124.182 207.527 117.344 200.684 108.91 200.684C100.476 200.684 93.6382 207.527 93.6382 215.97C93.6382 224.412 100.476 231.255 108.91 231.255Z" fill="#0B4870"/>
<path d="M118.455 188.475C122.918 188.475 126.537 184.853 126.537 180.386C126.537 175.918 122.918 172.296 118.455 172.296C113.991 172.296 110.373 175.918 110.373 180.386C110.373 184.853 113.991 188.475 118.455 188.475Z" fill="#3A9BDC"/>
<path d="M134.644 207.061C136.122 207.061 137.321 205.861 137.321 204.381C137.321 202.901 136.122 201.701 134.644 201.701C133.165 201.701 131.966 202.901 131.966 204.381C131.966 205.861 133.165 207.061 134.644 207.061Z" fill="#0B4870"/>
<mask id="mask0_476_1996" style="mask-type:luminance" maskUnits="userSpaceOnUse" x="120" y="99" width="249" height="257">
<path d="M324.87 253.54C324.87 310.118 279.03 356 222.505 356C165.98 356 120.165 310.118 120.165 253.54C120.165 196.962 159.138 99.167 215.663 99.167C257.61 99.167 350.182 100.184 367.933 151.08C374.106 168.797 324.87 238.949 324.87 253.54Z" fill="white"/>
</mask>
<g mask="url(#mask0_476_1996)">
<path d="M180.186 153.734C180.186 153.734 177.608 132.964 184.103 123.485C192.582 111.152 216.63 107.703 228.108 114.502C240.802 122.021 250.917 141.426 246.479 158.424C265.345 163.859 269.857 185.324 256.594 190.832L267.948 215.176C275.014 230.313 267.8 248.403 251.586 256.22L222.555 270.215C222.555 270.215 168.98 278.652 158.369 253.812C147.758 228.973 168.534 210.858 168.534 210.858C168.534 210.858 151.576 191.999 159.658 173.611C167.765 155.223 180.186 153.734 180.186 153.734Z" fill="#634124"/>
<path d="M262.569 224.903C262.569 224.903 311.259 232.62 324.449 232.049C334.787 232.62 351.819 175.968 353.306 172.494C361.562 167.308 363.619 160.211 363.495 156.29C363.371 152.369 352.835 149.069 351.819 151.054C353.554 145.868 353.951 144.23 354.422 142.443C355.413 138.746 352.587 135.942 348.546 149.863C344.555 163.585 344.951 161.327 343.984 166.166C337.464 178.698 320.655 207.929 319.515 212.346C297.723 211.825 260.808 203.339 260.808 203.339L262.569 224.903ZM165.063 211.676C165.063 211.676 141.982 255.028 137.495 267.138C133.032 276.145 179.392 317.636 181.996 320.638C183.607 330.49 187.871 333.889 191.491 335.651C195.11 337.388 202.126 329.522 200.713 327.686C204.804 331.706 206.143 332.822 207.581 334.113C210.58 336.743 214.225 335.552 203.044 325.328C192.011 315.229 193.945 316.668 189.879 313.492C180.905 301.705 160.576 272.771 156.981 269.644C165.732 250.363 187.549 221.255 187.549 221.255L165.063 211.676Z" fill="#FFE3CA"/>
<path d="M217.944 356L231.405 297.536L254.338 311.284C254.338 311.284 256.197 328.108 258.577 349.92C258.577 349.92 240.628 356.422 217.944 356Z" fill="#020407"/>
<path d="M241.074 354.213C244.743 332.029 247.669 314.162 247.669 314.162C247.669 314.162 184.921 305.427 184.698 322.599C184.623 327.86 185.243 337.984 186.706 349.548C219.704 360.168 241.074 354.213 241.074 354.213Z" fill="#0E1223"/>
<path d="M241.545 241.132C239.686 245.45 253.792 305.402 256.147 319.224C256.147 319.224 255.85 319.175 255.28 319.075C249.156 318.157 211.696 313.219 181.425 325.85L178.649 241.157L178.525 238.005C178.525 238.005 178.525 234.804 178.822 229.916V229.866C179.516 219.791 181.599 202.793 188.069 191.875C191.416 186.217 195.854 182.172 201.928 181.576C220.745 179.715 220.646 187.433 238.124 191.751L266.485 198.798C266.485 198.798 263.312 220.809 266.485 227.36H246.801C246.801 227.335 243.38 236.765 241.545 241.132Z" fill="#367AD4"/>
<path d="M230.736 125.073C230.736 125.073 247.991 150.98 238.942 163.635C232.174 173.115 220.819 178.078 220.819 178.078V191.726C220.819 191.726 219.456 192.942 217.076 193.066C212.935 193.289 201.928 186.639 201.928 186.639V132.89L230.736 125.073Z" fill="#FFE3CA"/>
<path d="M178.599 244.631C178.599 244.631 204.63 214.431 200.49 199.889C196.35 185.348 176.665 190.336 165.658 207.086C154.65 223.836 150.287 229.568 150.287 229.568C150.287 229.568 161.617 244.904 178.599 244.631Z" fill="#C4DEF4"/>
<path d="M230.686 122.616C230.686 122.616 232.025 149.59 219.034 156.116C206.044 162.643 215.861 178.723 203.49 190.733C199.821 194.281 194.367 193.686 190.177 192.445C184.177 190.658 177.31 191.949 173.12 196.291C172.724 196.713 172.352 197.16 172.054 197.607C155.989 186.986 196.697 127.951 196.697 127.951L230.686 122.616Z" fill="#755438"/>
</g>
<path d="M277.865 270.091C272.237 278.801 268.965 289.174 268.965 300.316C268.965 331.061 293.88 356 324.597 356C355.314 356 380.23 331.061 380.23 300.316C380.23 269.57 355.314 244.631 324.597 244.631C311.036 244.631 298.591 249.495 288.947 257.584L270.08 252.597L277.865 270.091ZM343.166 103.286C343.166 111.723 336.324 122.617 327.895 122.617C319.465 122.617 312.623 111.723 312.623 103.286C312.623 94.8489 319.441 88 327.895 88C336.349 88 343.166 94.8489 343.166 103.286Z" fill="url(#paint7_linear_476_1996)"/>
<path d="M328.366 129.54C326.804 129.54 325.341 128.448 324.052 126.289C323.135 124.75 323.829 120.11 324.573 115.197C324.771 113.906 324.944 112.641 325.118 111.499C324.027 108.1 324.275 105.891 324.746 105.246C324.92 104.998 325.168 104.923 325.391 105.023C325.837 105.246 326.085 106.189 326.085 107.703C326.085 108.695 325.961 109.961 325.787 111.375C325.862 111.623 325.961 111.872 326.06 112.145C326.953 114.527 327.845 114.006 328.143 113.807C328.862 113.385 329.556 112.194 330.076 110.829C329.878 107.752 330.101 105.544 330.448 104.899C330.622 104.551 330.845 104.526 330.944 104.526C331.291 104.551 331.465 105.023 331.514 105.172C331.96 106.363 331.564 108.869 330.746 111.003C330.994 114.601 331.837 119.539 333.919 124.726L334.018 124.949L333.894 125.147C333.795 125.321 331.489 129.416 328.44 129.465C328.415 129.54 328.39 129.54 328.366 129.54ZM325.564 112.815C325.44 113.633 325.316 114.477 325.192 115.346C324.548 119.663 323.804 124.527 324.548 125.768C325.738 127.728 327.027 128.721 328.39 128.696C330.746 128.646 332.704 125.718 333.2 124.924C331.39 120.358 330.498 115.892 330.151 112.318C329.63 113.36 329.01 114.204 328.366 114.576C327.771 114.973 326.581 115.222 325.564 112.815ZM325.168 105.866C324.994 106.189 324.771 107.504 325.292 109.762C325.366 108.993 325.415 108.298 325.415 107.727C325.415 106.561 325.242 106.04 325.168 105.866ZM330.894 105.569C330.746 106.065 330.597 107.306 330.622 109.092C331.018 107.653 331.167 106.263 330.894 105.569Z" fill="white"/>
<path d="M327.895 131.625C324.821 131.625 322.267 129.292 322.019 126.24L321.499 120.384L323.06 120.979C326.259 122.195 329.779 122.17 332.952 120.905L334.266 120.384L333.746 126.24C333.498 129.292 330.944 131.625 327.895 131.625Z" fill="#0B4870"/>
<path d="M331.613 156.761C331.911 160.186 329.556 164.851 326.134 165.149C322.713 165.447 319.54 161.303 319.242 157.878C318.945 154.454 321.449 151.426 324.87 151.128C328.291 150.831 331.291 153.337 331.613 156.761Z" fill="#0E1223"/>
<path d="M326.556 167.928C325.911 167.978 325.292 167.606 324.697 166.762C324.275 166.167 324.374 164.256 324.498 162.246C324.523 161.725 324.548 161.204 324.573 160.732C324.002 159.392 324.027 158.499 324.201 158.226C324.275 158.127 324.349 158.077 324.449 158.102C324.647 158.176 324.771 158.548 324.821 159.169C324.845 159.566 324.845 160.087 324.821 160.682L324.969 160.98C325.416 161.923 325.763 161.675 325.862 161.576C326.135 161.377 326.382 160.881 326.531 160.31C326.333 159.069 326.358 158.176 326.457 157.903C326.506 157.754 326.606 157.729 326.655 157.729C326.804 157.729 326.878 157.903 326.903 157.978C327.126 158.449 327.052 159.467 326.804 160.385C327.027 161.824 327.548 163.809 328.589 165.819L328.638 165.918L328.589 166.018C328.564 166.092 327.771 167.829 326.531 167.978C326.581 167.928 326.581 167.928 326.556 167.928ZM324.821 161.253C324.796 161.576 324.771 161.948 324.771 162.295C324.672 164.057 324.548 166.067 324.895 166.539C325.44 167.283 326.011 167.655 326.556 167.581C327.498 167.482 328.192 166.216 328.366 165.869C327.473 164.082 326.953 162.295 326.655 160.856C326.482 161.303 326.258 161.65 326.011 161.849C325.787 162.047 325.316 162.196 324.821 161.253ZM324.399 158.449C324.325 158.598 324.3 159.144 324.597 160.012C324.597 159.69 324.597 159.417 324.573 159.194C324.523 158.722 324.449 158.524 324.399 158.449ZM326.73 158.127C326.68 158.325 326.68 158.846 326.754 159.566C326.853 158.97 326.853 158.399 326.73 158.127Z" fill="white"/>
<path d="M326.457 168.797C325.217 168.922 324.102 168.053 323.879 166.837L323.457 164.48L324.102 164.653C325.44 165.026 326.878 164.877 328.118 164.256L328.638 163.983V166.366C328.638 167.656 327.696 168.698 326.457 168.797Z" fill="#0B4870"/>
<path d="M443.142 50.6868C435.405 69.2348 410.476 86.915 392.101 79.1053C373.726 71.2957 368.783 41.0332 376.52 22.3767C384.256 3.82876 405.425 -4.95712 423.908 2.85255C442.39 10.6622 450.879 32.0304 443.142 50.6868Z" fill="#3A9BDC"/>
<path d="M387.219 94.3612C383.927 92.9423 381.87 89.1222 381.047 83.1192C380.43 78.8625 385.985 69.2577 391.849 59.1071C393.392 56.4876 394.832 53.8681 396.169 51.4669C396.889 42.9535 399.358 38.2602 400.901 37.2779C401.519 36.8413 402.033 36.9505 402.444 37.3871C403.165 38.2602 402.856 40.6614 401.519 43.9358C400.696 46.1187 399.255 48.8474 397.609 51.7943C397.609 52.4492 397.507 53.1041 397.507 53.759C397.301 59.8711 399.564 59.5437 400.387 59.4345C402.239 59.1071 404.708 57.1425 407.074 54.6321C409.337 47.6468 411.806 42.9535 413.04 41.8621C413.658 41.3163 414.172 41.4255 414.378 41.5346C415.098 41.9712 414.995 43.0627 414.995 43.4992C414.892 46.5553 411.806 51.6852 408.205 55.7236C405.531 63.9095 402.959 75.5881 402.856 89.0131V89.5588L402.444 89.8863C402.136 90.2137 393.7 97.0899 387.322 94.3612H387.219ZM396.066 54.7413C395.141 56.4876 394.112 58.2339 393.083 59.9803C387.939 68.9302 382.179 79.0808 382.59 82.4643C383.31 87.9216 385.162 91.3051 388.042 92.5057C392.98 94.5795 399.667 89.8863 401.416 88.5765C401.621 76.7887 403.679 66.0924 406.148 57.7973C404.193 59.6528 402.136 60.8534 400.49 61.1809C398.741 61.5083 396.066 60.9626 396.066 54.7413ZM401.313 38.9151C400.696 39.4609 399.05 42.1895 398.227 47.6468C399.05 46.0096 399.77 44.4816 400.284 43.281C401.21 40.7706 401.416 39.4609 401.313 38.9151ZM413.555 43.6084C412.835 44.5907 411.394 47.2102 409.954 51.1395C412.012 48.4108 413.555 45.4639 413.555 43.6084Z" fill="white"/>
<path d="M384.126 97.9155C377.823 95.1573 374.57 87.8376 376.603 81.0482L380.67 68L383.415 70.6521C388.904 76.1684 396.224 79.2448 403.849 79.457L407 79.5631L400.9 91.6566C397.749 98.0215 390.429 100.674 384.126 97.9155Z" fill="#0B4870"/>
<g opacity="0.7">
<path d="M529.398 275.274C523.132 275.416 515.385 271.602 515.072 266.068C514.765 263.094 514.207 262.766 511.344 263.137C506.457 263.689 507.619 260.019 504.921 260.123C503.266 260.432 501.435 260.548 499.815 260.048C498.008 259.53 496.348 257.186 495.411 255.299C493.056 253.138 490.087 252.877 489.336 245.794C489.013 238.325 492.264 235.363 493.694 232.758C494.37 225.978 504.179 214.596 511.137 214.269C513.699 213.865 511.076 208.872 516.686 205.836C519.841 204.294 523.067 202.293 526.67 202.226C528.703 202.225 530.67 202.831 532.354 203.976C535.499 205.508 533.547 199.199 540.017 199.352C542.639 198.956 544.769 202.292 546.31 201.246C550.142 198.664 556.626 200.104 558.503 204.553C558.71 205.143 559.229 205.546 559.838 205.542C560.404 205.468 562.526 204.781 565.21 204.577C566.724 204.603 568.002 205.642 569.314 206.284C570.612 207.016 571.414 208.402 571.406 209.901C571.369 210.546 571.781 211.139 572.402 211.317C572.478 211.339 580.313 213.687 585.892 220.713C587.633 222.905 588.344 225.788 587.843 228.621C587.562 229.882 588.994 230.314 589.934 230.519C595.319 231.664 594.447 243.893 592.008 246.61C590.72 248.377 590.802 249.003 592.198 250.606C593.412 251.414 593.503 257.536 591.261 259.303C591.103 259.429 590.454 259.739 588.058 259.739C573.752 258.628 557.254 262.492 545.439 269.4C542.099 271.392 533.648 275.803 529.398 275.274Z" fill="#6097DD"/>
<path d="M555.54 271.708C554.492 273.122 552.767 273.804 550.537 273.829C548.346 274 544.593 272.515 546.84 270.186C549.894 268.811 552.589 267.156 555.907 265.961C557.648 266.186 557.033 269.373 555.54 271.708ZM588.537 264.643C586.774 272.966 580.217 276.523 571.905 275.699C565.828 275.318 562.218 274.586 559.283 270.93C557.387 268.709 557.965 265.629 559.862 264.699C568.121 261.474 575.17 261.134 583.146 261.491C585.604 261.516 589.112 261.173 588.537 264.643Z" fill="#AFCFEF"/>
<path d="M592.531 248.781C592.235 248.507 593.089 247.592 593.175 247.347C596.343 243.054 596.816 229.771 589.202 228.861C592.064 218.727 574.229 209.8 572.784 209.992C572.965 206.699 570.075 204.877 567.41 203.716C565.771 202.442 559.899 204.129 559.836 204.163C557.736 198.822 550.086 196.995 545.536 200.104C541.812 196.866 534.681 197.06 533.136 202.839C529.486 200.283 524.773 200.338 520.87 202.294C516.138 204.079 510.936 207.127 511.067 212.84C503.328 213.454 493.253 224.895 492.351 232.447C487.584 237.297 485.144 251.39 493.552 255.548C493.677 255.656 494.137 255.775 494.192 255.945C495.836 259.484 498.958 262.61 504.043 261.652C504.306 261.634 505.273 261.334 505.445 261.626C507.203 264.729 509.854 264.769 513.091 264.379C513.264 264.364 513.425 264.489 513.452 264.663C514.078 268.13 514.346 272.04 521.172 274.986C529.341 278.259 536.002 276.345 543.693 271.93C547.28 276.647 555.679 276.241 557.579 270.858C560.735 276.099 566.903 277.056 573.879 277.114C583.715 277.873 590.367 270.148 590.33 260.994C592.611 260.705 593.271 259.379 594.006 257.049C595.149 252.289 594.184 250.87 592.531 248.781ZM555.54 271.707C554.492 273.121 552.767 273.804 550.537 273.829C548.353 273.995 544.61 272.534 546.826 270.197C549.87 268.738 552.797 267.156 556.035 265.972C557.589 266.354 557.022 269.393 555.54 271.707ZM588.537 264.643C587.012 271.294 582.463 275.662 575.267 275.719C570.477 275.953 563.788 275.121 561.179 272.845C556.808 269.465 556.934 264.808 562.491 263.795C568.76 261.782 576.513 261.04 583.146 261.491C585.604 261.516 589.112 261.172 588.537 264.643ZM592.676 256.683C591.589 259.483 591.976 259.603 588.058 259.74C573.803 258.644 557.424 262.417 545.416 269.413C543.481 270.499 537.029 274.114 534.005 274.65C528.355 275.281 528.317 267.486 531.32 264.407C537.487 259.386 550.303 262.467 558.202 259.996C558.553 259.923 558.449 259.364 558.086 259.44C554.767 260.075 551.381 260.287 547.993 260.363C542.101 260.856 534.734 259.224 530.102 263.77C528.533 265.678 527.776 268.065 527.695 270.494C527.383 278.709 516.7 272 515.782 268.427C513.684 255.125 539.271 258.918 543.651 246.785C545.371 243.247 547.38 239.787 549.952 236.804C550.213 236.552 549.792 236.126 549.54 236.411C546.84 239.395 544.729 242.845 542.892 246.408C542.016 248.129 540.813 249.671 539.294 250.864C537.936 252.227 535.022 252.04 533.907 250.267C532.238 247.518 533.008 244.039 534.464 241.354C536.256 237.628 540.073 235.784 542.918 233.028C543.083 232.79 543.637 232.057 543.157 231.87C543.004 231.819 542.839 231.907 542.795 232.061C542.449 232.961 541.412 233.534 540.63 234.098C534.861 237.361 528.896 244.802 532.824 251.503C532.824 251.504 532.823 251.506 532.823 251.506C533.647 252.767 533.073 254.07 532.184 254.345C530.14 254.755 527.061 256.97 525.843 254.12C525.293 252.534 524.954 250.844 524.95 249.175C523.801 247.467 524.368 254.027 524.594 254.484C524.845 255.867 523.837 256.93 522.665 257.361C520.473 258.242 518.316 259.341 516.401 260.748C514.442 262.173 510.608 264.224 508.093 262.581C504.22 259.235 506.402 251.311 510.932 249.231C515.487 246.336 516.129 240.245 514.802 235.437C514.719 235.093 514.16 235.208 514.248 235.57C515.331 240.174 514.58 246.045 510.016 248.458C507.237 241.559 500.627 241.196 494.598 244.012C494.257 244.177 494.495 244.675 494.831 244.531C500.525 242.321 506.548 242.729 508.593 249.333C506.315 251.071 505.147 253.832 504.64 256.704C504.639 256.704 504.639 256.702 504.639 256.702C503.343 264.131 493.9 258.597 496.716 253.068C497.954 251.253 499.358 249.538 500.905 247.985C501.168 247.734 500.815 247.333 500.533 247.553C498.331 248.824 494.877 254.633 492.301 252.946C490.988 251.658 489.593 249.452 489.336 245.795C488.997 237.608 492.795 231.232 500.641 232.492C503.915 232.882 507.523 234.085 509.744 236.628C509.833 236.755 510.01 236.792 510.141 236.702C510.474 236.437 510.03 236.08 509.869 235.859C507.832 233.511 504.86 232.201 501.899 231.454C499.688 230.927 494.306 231.003 495.389 227.772C496.823 223.301 504.568 216.154 507.986 215.108C511.552 214.071 510.252 219.336 511.237 221.274C512.363 224.612 514.851 227.237 516.826 230.073C517.051 230.369 517.486 230.058 517.298 229.754C514.798 225.825 511.449 221.907 512.032 216.935C512.482 213.115 512.93 208.548 516.685 205.836C531.435 197.467 536.95 204.405 529.787 218.856C529.636 219.19 530.115 219.424 530.292 219.117C530.623 218.53 530.964 217.946 531.288 217.351C532.863 214.324 534.023 211.051 534.344 207.631C534.582 205.748 534.149 203.291 535.378 201.341C536.959 199.252 540.229 198.804 542.54 199.913C544.181 200.751 543.995 202.998 543.605 204.635C542.74 208.12 542.075 211.686 541.913 215.275L541.912 215.274C541.604 218.88 539.806 222.017 537.229 224.212C535.429 226.004 533.845 227.446 531.091 226.569L531.091 226.57C526.012 224.872 521.097 227.275 520.444 232.783C520.379 233.133 520.918 233.251 521.001 232.902C521.891 228.447 525.59 226.249 529.91 227.771C532.917 229.311 525.75 231.349 525.305 238.296C525.263 238.756 524.671 243.587 525.683 242.099C525.072 230.73 534.948 229.628 540.933 222.473C540.933 222.473 540.932 222.476 540.932 222.476C541.504 221.823 542.338 222.122 542.52 222.855C544.764 233.578 561.813 234.812 555.443 244.773C556.116 245.106 557.244 242.517 557.448 241.923C559.326 234.339 544.507 230.898 543.613 222.251C542.682 217.246 543.148 200.972 550.106 199.965C552.677 199.933 555.506 200.629 557.239 202.618C558.269 203.759 557.98 206.251 557.304 207.814C556.369 210.307 555.703 212.908 555.322 215.54C555.305 215.945 554.41 220.867 555.507 219.438C556.248 215.124 557.57 206.144 562.488 204.952C565.324 204.173 566.867 204.764 569.313 206.284C571.541 207.17 570.69 210.279 569.487 211.775C567.111 214.563 565.078 217.652 563.59 221.001C563.308 221.443 560.705 228.62 562.312 227.178C563.524 221.829 566.624 217.095 570.313 213.107C571.241 212.179 573.355 211.597 574.698 212.204C579.965 214.293 592.763 223.264 586.163 231.664C583.871 234.21 580.941 236.758 577.363 236.866C576.989 236.82 576.913 237.368 577.281 237.429C578.108 237.528 578.94 237.408 579.74 237.211C581.458 236.783 583.085 235.913 584.508 234.872C585.564 234.125 586.514 233.263 587.43 232.344C591.009 229.25 593.4 232.067 593.901 237.044C594.051 241.915 593.807 247.807 588.777 246.388C585.732 245.474 582.545 245.04 579.365 245.108C578.993 245.13 579.01 245.669 579.374 245.677C581.598 245.795 583.841 246.216 585.979 246.842C590.914 248.384 594.356 250.634 592.676 256.683Z" fill="#004273"/>
<path d="M571.018 244.075C566.534 241.066 566.774 235.009 569.125 230.688C571.135 227.215 575.236 225.472 579.102 225.124C580.545 223.97 575.917 224.965 575.549 225.108C566.829 226.768 562.455 239.586 569.884 245.317C577.803 251.043 571.858 257.56 564.171 258.28C562.998 259.35 566.525 258.445 566.932 258.428C574.945 257.063 577.902 249.334 571.018 244.075Z" fill="#004273"/>
<path d="M585.234 269.2C584.765 269.211 584.439 268.66 584.688 268.255C585.356 267.02 586.099 265.414 586.272 263.906C584.105 263.785 581.996 263.787 579.643 263.726C579.294 263.721 579.015 263.435 579.02 263.087C579.024 262.739 579.311 262.46 579.658 262.464C581.911 262.49 583.926 262.584 585.989 262.603C587.727 262.53 587.732 264.26 587.231 265.454C586.78 266.55 586.291 268.917 585.234 269.2ZM569.725 264.451C569.426 264.451 569.16 264.237 569.105 263.932C568.986 263.204 569.814 263.152 570.332 263.072C571.461 263.106 571.367 264.48 569.725 264.451ZM572.932 263.943C572.621 263.943 572.351 263.713 572.308 263.397C572.329 262.191 574.44 262.668 575.217 262.494C576.014 262.63 577.572 261.973 577.758 263.084C577.762 263.432 577.482 263.717 577.134 263.721C575.741 263.74 574.345 263.736 572.932 263.943Z" fill="url(#paint8_linear_476_1996)"/>
<path d="M541.796 263.812C541.463 263.812 541.185 263.552 541.166 263.216C541.142 262.412 542.102 262.55 542.639 262.502C542.984 262.481 543.286 262.745 543.307 263.093C543.323 263.915 542.369 263.761 541.796 263.812ZM545.197 263.651C544.398 263.665 544.369 262.409 545.172 262.39C546.504 262.336 547.924 262.275 549.359 262.187C550.17 262.127 550.258 263.406 549.437 263.446C547.979 263.535 546.546 263.598 545.197 263.651ZM551.913 263.258C551.136 263.274 551.073 262.054 551.858 261.999C554.315 261.778 556.464 261.459 558.428 261.024C558.768 260.949 559.105 261.163 559.18 261.503C559.649 262.811 553.347 262.993 551.913 263.258Z" fill="url(#paint9_linear_476_1996)"/>
<path d="M526.015 271.047C525.636 271.049 525.342 270.71 525.388 270.336C525.481 269.696 525.234 268.43 526.198 268.476C527.112 268.654 526.59 269.75 526.648 270.389C526.656 270.746 526.373 271.049 526.015 271.047ZM526.662 267.274C524.903 267.018 527.616 263.281 528.114 262.554C528.606 261.903 529.622 262.69 529.109 263.329C528.302 264.367 527.68 265.547 527.262 266.837C527.176 267.104 526.929 267.274 526.662 267.274ZM530.437 261.846C526.989 260.621 538.41 257.12 538.222 258.959C538.256 259.307 538.002 259.616 537.655 259.649C535.197 259.816 532.613 260.589 530.437 261.846Z" fill="url(#paint10_linear_476_1996)"/>
<path d="M539.486 254.638C538.887 254.661 538.614 253.802 539.136 253.482C539.743 253.194 540.439 252.117 541.089 252.828C541.642 253.649 540.107 254.409 539.486 254.638ZM542.459 252.155C541.929 252.173 541.616 251.472 542.001 251.091C542.921 250.115 543.701 249.013 544.319 247.813C544.479 247.504 544.859 247.382 545.169 247.542C546.462 247.836 543.106 252.21 542.459 252.155ZM546.002 246.474C543.866 246.559 548.652 240.415 548.982 239.733C549.447 239.063 550.495 239.806 550.009 240.467C548.77 242.202 547.642 244.055 546.562 246.134C546.449 246.35 546.23 246.474 546.002 246.474Z" fill="url(#paint11_linear_476_1996)"/>
<path d="M557.262 236.073C556.684 235.966 555.725 234.991 556.308 234.411C557.177 233.629 558.722 235.934 557.262 236.073ZM554.893 233.783C554.508 233.782 554.252 233.395 553.962 233.191C553.491 232.794 553.006 232.413 552.516 232.018C552.034 231.472 550.575 230.993 551.143 230.099C551.9 229.364 552.663 230.688 553.304 231.033C553.798 231.431 554.297 231.823 554.775 232.226C555.438 232.583 555.978 233.622 554.893 233.783ZM549.714 229.489C547.47 228.088 545.358 225.332 544.642 222.042C544.46 221.211 545.782 220.984 545.886 221.831C546.302 226.088 552.183 228.984 549.714 229.489Z" fill="url(#paint12_linear_476_1996)"/>
<path d="M553.259 219.949C552.357 219.959 552.433 218.306 553.321 218.374C554.168 218.416 554.093 219.962 553.259 219.949ZM553.497 217.12C552.111 217.168 553.55 213.109 553.586 212.208C553.663 211.868 554.001 211.655 554.34 211.731C555.401 212.165 554.38 213.634 554.426 214.47C554.11 215.241 554.552 216.954 553.497 217.12ZM554.835 210.535C553.076 210.356 555.963 206.185 555.601 204.889C555.631 203.46 553.835 202.897 552.727 202.583C551.923 202.44 552.168 201.174 552.97 201.345C556.119 202.066 557.76 203.97 556.417 207.179C555.924 207.949 555.749 210.495 554.835 210.535Z" fill="url(#paint13_linear_476_1996)"/>
<path d="M562.808 219.356C561.134 219.056 563.504 216.496 563.81 215.642C564.228 214.94 565.324 215.611 564.885 216.303C564.219 217.045 563.683 219.206 562.808 219.356ZM565.735 214.497C563.472 214.01 568.538 210.318 568.368 208.754C568.445 208.038 566.099 207.317 565.775 207.026C565.462 206.875 565.33 206.498 565.481 206.184C566.092 205.178 567.744 206.794 568.798 207.199C570.275 208.044 569.471 210.065 568.66 211.125C567.748 211.923 566.649 214.224 565.735 214.497Z" fill="url(#paint14_linear_476_1996)"/>
<path d="M586.307 227.082C585.23 227.185 585.997 224.242 584.08 222.151C583.422 221.322 582.688 220.516 581.9 219.757C581.303 219.2 582.193 218.271 582.775 218.849C584.935 220.901 586.876 223.291 586.937 226.422C586.955 226.781 586.665 227.083 586.307 227.082ZM580.439 218.272C579.125 217.661 578.022 216.482 576.655 215.808C576.354 215.632 576.254 215.245 576.43 214.945C577.09 213.828 580.047 216.71 580.833 217.148C581.302 217.496 581.012 218.294 580.439 218.272ZM574.747 214.71C573.685 214.694 573.903 213.082 574.925 213.465C575.609 213.669 575.455 214.725 574.747 214.71Z" fill="url(#paint15_linear_476_1996)"/>
<path d="M592.001 242.63C591.608 242.633 591.299 242.26 591.382 241.874C591.679 240.423 591.736 238.783 591.597 237.246C591.541 236.603 591.442 236.009 591.303 235.481C591.083 234.695 592.326 234.365 592.523 235.161C592.866 236.357 593.492 242.393 592.001 242.63ZM585.479 236.877C584.884 236.899 584.609 236.051 585.122 235.726C585.767 235.375 586.309 234.404 586.978 235.07C587.555 235.809 586.138 236.66 585.479 236.877ZM588.368 234.415C587.151 234.21 587.984 232.95 588.778 232.685C589.505 232.248 591.57 232.269 591.208 233.516C590.727 234.359 589.766 233.206 589.035 234.009C588.859 234.194 588.645 234.433 588.368 234.415Z" fill="url(#paint16_linear_476_1996)"/>
<path d="M591.055 256.869C589.168 256.522 592.739 253.179 589.047 250.751C588.406 250.246 589.215 249.245 589.843 249.772C590.797 250.561 591.322 251.208 591.534 251.498C592.216 252.253 592.39 256.66 591.055 256.869ZM587.258 249.665C586.605 249.525 585.969 249.214 585.341 249.066C584.841 248.935 584.068 248.802 584.244 248.109C584.69 247.005 586.621 248.299 587.478 248.443C588.13 248.663 587.934 249.688 587.258 249.665ZM582.393 248.352C581.884 248.305 581.102 248.222 581.204 247.529C581.311 246.872 582.019 246.982 582.503 247.1C583.247 247.215 583.136 248.371 582.393 248.352Z" fill="url(#paint17_linear_476_1996)"/>
<path d="M550.974 270.86C550.333 270.883 550.097 269.93 550.697 269.662C551.774 269.136 552.833 268.621 553.943 268.093C554.599 267.927 555.672 266.976 556.137 267.877C556.427 268.829 555.038 268.888 554.472 269.239C553.271 269.752 552.18 270.46 550.974 270.86Z" fill="url(#paint18_linear_476_1996)"/>
<path d="M540.232 215.791C539.858 215.792 539.562 215.476 539.605 215.104C539.668 213.756 539.796 212.392 539.996 210.951C540.096 210.14 541.371 210.315 541.246 211.125C541.051 212.527 540.926 213.853 540.864 215.178C540.846 215.515 540.566 215.791 540.232 215.791ZM541.028 209.179C539.264 209.151 542.201 203.297 541.46 201.958C540.608 201.236 538.756 202.323 538.502 201.125C538.484 200.282 539.494 200.458 540.066 200.402C542.667 200.273 543.245 201.989 542.583 204.388C542.129 205.424 541.942 209.386 541.028 209.179Z" fill="url(#paint19_linear_476_1996)"/>
<path d="M522.631 233.948C520.704 233.736 523.914 229.032 524.481 229.062C525.174 228.469 529.012 227.693 528.976 229.231C528.912 229.574 528.584 229.801 528.241 229.738C525.511 229.183 523.935 230.52 523.242 233.473C523.169 233.758 522.913 233.948 522.631 233.948Z" fill="url(#paint20_linear_476_1996)"/>
<path d="M535.225 249.812C534.468 249.861 533.546 247.248 534.621 247.134C535.577 247.032 535.351 248.353 535.78 248.883C536.011 249.288 535.686 249.822 535.225 249.812ZM534.797 245.878C533.2 245.692 535.267 242.258 535.389 241.853C535.667 241.358 536.017 240.43 536.73 240.846C537.391 241.29 536.733 241.963 536.499 242.452C536.202 243.001 535.667 244.111 535.415 245.371C535.355 245.671 535.092 245.878 534.797 245.878ZM537.955 240.035C535.483 239.447 541.391 235.872 541.871 235.366C542.509 234.887 543.264 234.328 543.81 233.586C544.269 232.909 545.323 233.646 544.843 234.31C544.207 235.192 543.335 235.846 542.627 236.376C541.251 237.37 539.726 238.456 538.412 239.839C538.288 239.969 538.122 240.035 537.955 240.035Z" fill="url(#paint21_linear_476_1996)"/>
<path d="M527.448 254.25C526.274 254.111 526.042 250.049 526.001 249.204C525.986 248.387 527.271 248.378 527.263 249.197C527.27 250.517 527.527 251.918 528.028 253.361C528.209 253.769 527.898 254.258 527.448 254.25Z" fill="url(#paint22_linear_476_1996)"/>
<path d="M511.835 251.281C511.228 251.304 510.962 250.427 511.499 250.116C512.018 249.832 512.633 248.975 513.2 249.621C513.755 250.372 512.424 251.11 511.835 251.281ZM514.484 248.862C513.314 248.693 514.122 247.582 514.552 247.056C514.948 246.449 515.288 245.788 515.563 245.091C515.852 244.327 517.049 244.797 516.737 245.555C516.166 246.661 515.665 248.379 514.484 248.862ZM516.842 243.531C516.453 243.535 516.146 243.168 516.222 242.784C516.443 241.611 516.512 240.32 516.438 239.085C516.581 238.291 515.679 236.767 516.75 236.419C517.094 236.364 517.418 236.599 517.472 236.943C517.622 238.122 518.261 243.34 516.842 243.531Z" fill="url(#paint23_linear_476_1996)"/>
<path d="M502.981 257.053C502.557 257.058 502.254 256.631 502.375 256.229C502.516 255.649 502.488 254.592 503.341 254.744C503.68 254.823 503.891 255.162 503.812 255.501C503.628 256.026 503.759 257.034 502.981 257.053ZM503.943 253.582C502.254 253.327 504.658 250.391 505.01 249.692C505.609 248.824 506.678 249.937 505.918 250.609C505.233 251.206 504.716 253.586 503.943 253.582ZM505.751 248.207C505.247 248.231 505.15 247.683 504.921 247.349C504.005 246.008 502.618 245.685 500.847 245.639C500.498 245.639 500.216 245.357 500.216 245.008C500.394 243.513 504.194 244.954 504.719 245.372C505.41 245.817 507.369 247.837 505.751 248.207Z" fill="url(#paint24_linear_476_1996)"/>
<path d="M508.447 238.331C506.155 236.529 504.282 235.381 501.674 234.993C500.871 234.85 501.11 233.587 501.913 233.754C504.049 234.165 506.999 235.111 508.919 237.282C509.284 237.667 508.97 238.348 508.447 238.331ZM493.289 237.071C491.802 236.93 493.411 234.452 494.299 235.375C494.73 235.791 494.178 236.337 493.94 236.586C493.814 236.842 493.587 237.086 493.289 237.071ZM496.002 235.162C495.338 235.185 495.127 234.184 495.763 233.947C496.631 233.515 498.206 233.256 499.325 233.429C500.141 233.462 500.076 234.744 499.256 234.689C498.091 234.533 497.292 234.721 496.002 235.162Z" fill="url(#paint25_linear_476_1996)"/>
<path d="M513.953 229.641C513.229 229.525 512.965 228.582 512.48 228.093C512.273 227.813 512.333 227.418 512.614 227.212C513.513 226.689 513.923 228.131 514.443 228.613C514.781 229.006 514.465 229.657 513.953 229.641ZM511.547 226.28C509.82 225.37 508.575 220.804 508.422 219.005C508.382 218.653 508.359 218.263 508.337 217.826C508.257 217.015 509.534 216.898 509.593 217.716C509.551 223.323 513.616 225.951 511.547 226.28Z" fill="url(#paint26_linear_476_1996)"/>
<path d="M528.254 218.793C526.721 218.49 528.573 216.521 528.689 215.726C528.998 214.969 530.182 215.471 529.85 216.22C529.422 216.87 529.146 218.642 528.254 218.793ZM530.16 214.244C529.055 214.132 529.778 212.887 529.904 212.256C530.235 211.038 530.457 209.818 530.564 208.628C530.625 207.814 531.906 207.925 531.82 208.741C531.64 209.74 531.303 214.136 530.16 214.244ZM531.013 206.83C530.249 206.788 530.018 205.109 529.208 204.962C526.915 204.102 524.449 204.664 522.308 205.694C521.562 206.024 521.056 204.84 521.816 204.532C522.359 204.303 522.907 204.081 523.446 203.874C525.302 203.155 527.404 203.086 529.304 203.667C530.666 203.93 532.633 206.585 531.013 206.83Z" fill="url(#paint27_linear_476_1996)"/>
<path d="M576.576 252.286C575.692 252.247 576.027 251.255 576.013 250.68C575.997 250.322 576.284 250.019 576.643 250.02C577.61 249.945 577.459 252.358 576.576 252.286ZM576.19 248.814C575.933 248.814 575.691 248.655 575.598 248.398C575.06 246.921 574.003 245.446 572.367 243.888C571.767 243.334 572.651 242.4 573.236 242.974C574.447 244.103 578.208 248.378 576.19 248.814ZM570.935 242.365C567.337 240.176 568.318 234.553 570.036 231.213C570.438 230.504 571.549 231.145 571.125 231.849C569.9 234.306 569.031 238.024 570.602 240.345C570.978 240.913 572.364 242.056 570.935 242.365Z" fill="url(#paint28_linear_476_1996)"/>
<path d="M527.491 240.663C526.598 240.673 526.694 239.158 527.568 239.257C528.376 239.323 528.286 240.679 527.491 240.663ZM527.936 238.033C527.528 238.038 527.213 237.63 527.328 237.236C527.603 236.282 529.05 232.442 530.321 233.26C530.584 233.489 530.61 233.888 530.381 234.15C529.488 235.17 528.905 236.256 528.544 237.569C528.467 237.85 528.213 238.033 527.936 238.033ZM531.749 232.648C529.24 231.976 535.028 229.211 535.757 228.501C536.619 228.151 538.329 225.859 539.062 226.716C539.937 227.639 536.139 229.613 535.461 230.206C534.062 230.995 533.005 232.079 531.749 232.648Z" fill="url(#paint29_linear_476_1996)"/>
</g>
<defs>
<filter id="filter0_d_476_1996" x="251" y="-93" width="774" height="774" filterUnits="userSpaceOnUse" color-interpolation-filters="sRGB">
<feFlood flood-opacity="0" result="BackgroundImageFix"/>
<feColorMatrix in="SourceAlpha" type="matrix" values="0 0 0 0 0 0 0 0 0 0 0 0 0 0 0 0 0 0 127 0" result="hardAlpha"/>
<feMorphology radius="50" operator="dilate" in="SourceAlpha" result="effect1_dropShadow_476_1996"/>
<feOffset dx="-28" dy="111"/>
<feGaussianBlur stdDeviation="100"/>
<feComposite in2="hardAlpha" operator="out"/>
<feColorMatrix type="matrix" values="0 0 0 0 0.843137 0 0 0 0 0.898039 0 0 0 0 0.968627 0 0 0 1 0"/>
<feBlend mode="normal" in2="BackgroundImageFix" result="effect1_dropShadow_476_1996"/>
<feBlend mode="normal" in="SourceGraphic" in2="effect1_dropShadow_476_1996" result="shape"/>
</filter>
<filter id="filter1_d_476_1996" x="477.914" y="112.548" width="362.361" height="301.286" filterUnits="userSpaceOnUse" color-interpolation-filters="sRGB">
<feFlood flood-opacity="0" result="BackgroundImageFix"/>
<feColorMatrix in="SourceAlpha" type="matrix" values="0 0 0 0 0 0 0 0 0 0 0 0 0 0 0 0 0 0 127 0" result="hardAlpha"/>
<feOffset dx="-16" dy="19"/>
<feGaussianBlur stdDeviation="50"/>
<feComposite in2="hardAlpha" operator="out"/>
<feColorMatrix type="matrix" values="0 0 0 0 0.258824 0 0 0 0 0.509804 0 0 0 0 0.843137 0 0 0 1 0"/>
<feBlend mode="normal" in2="BackgroundImageFix" result="effect1_dropShadow_476_1996"/>
<feBlend mode="normal" in="SourceGraphic" in2="effect1_dropShadow_476_1996" result="shape"/>
</filter>
<linearGradient id="paint0_linear_476_1996" x1="367.902" y1="477.286" x2="363.928" y2="471.78" gradientUnits="userSpaceOnUse">
<stop stop-color="#3A9BDC"/>
<stop offset="1" stop-color="#1260CC"/>
</linearGradient>
<linearGradient id="paint1_linear_476_1996" x1="372.106" y1="482.096" x2="366.645" y2="481.392" gradientUnits="userSpaceOnUse">
<stop stop-color="#3A9BDC"/>
<stop offset="1" stop-color="#1260CC"/>
</linearGradient>
<linearGradient id="paint2_linear_476_1996" x1="380.075" y1="476.944" x2="384.038" y2="482.458" gradientUnits="userSpaceOnUse">
<stop stop-color="#3A9BDC"/>
<stop offset="1" stop-color="#1260CC"/>
</linearGradient>
<linearGradient id="paint3_linear_476_1996" x1="375.88" y1="472.126" x2="381.34" y2="472.841" gradientUnits="userSpaceOnUse">
<stop stop-color="#3A9BDC"/>
<stop offset="1" stop-color="#1260CC"/>
</linearGradient>
<linearGradient id="paint4_linear_476_1996" x1="719.898" y1="172.079" x2="666.95" y2="164.481" gradientUnits="userSpaceOnUse">
<stop stop-color="#5C330F"/>
<stop offset="1" stop-color="#C3AE9B"/>
</linearGradient>
<linearGradient id="paint5_linear_476_1996" x1="614.976" y1="193.445" x2="750.57" y2="286.654" gradientUnits="userSpaceOnUse">
<stop stop-color="#D7EBF8"/>
<stop offset="1" stop-color="#1260CC"/>
</linearGradient>
<linearGradient id="paint6_linear_476_1996" x1="637.366" y1="288.899" x2="733.991" y2="239.621" gradientUnits="userSpaceOnUse">
<stop stop-color="#D7EBF8"/>
<stop offset="1" stop-color="#4886D8"/>
</linearGradient>
<linearGradient id="paint7_linear_476_1996" x1="324.597" y1="88" x2="324.597" y2="356" gradientUnits="userSpaceOnUse">
<stop stop-color="#BDD9F2"/>
<stop offset="1" stop-color="#276FD1"/>
</linearGradient>
<linearGradient id="paint8_linear_476_1996" x1="586.946" y1="266.8" x2="570.965" y2="260.936" gradientUnits="userSpaceOnUse">
<stop stop-color="white" stop-opacity="0.15"/>
<stop offset="1" stop-color="white" stop-opacity="0.5"/>
</linearGradient>
<linearGradient id="paint9_linear_476_1996" x1="541.166" y1="262.41" x2="559.205" y2="262.41" gradientUnits="userSpaceOnUse">
<stop stop-color="white" stop-opacity="0.15"/>
<stop offset="1" stop-color="white" stop-opacity="0.5"/>
</linearGradient>
<linearGradient id="paint10_linear_476_1996" x1="524.988" y1="269.052" x2="537.285" y2="256.82" gradientUnits="userSpaceOnUse">
<stop stop-color="white" stop-opacity="0.15"/>
<stop offset="1" stop-color="white" stop-opacity="0.5"/>
</linearGradient>
<linearGradient id="paint11_linear_476_1996" x1="538.859" y1="247.054" x2="550.134" y2="247.054" gradientUnits="userSpaceOnUse">
<stop stop-color="white" stop-opacity="0.15"/>
<stop offset="1" stop-color="white" stop-opacity="0.5"/>
</linearGradient>
<linearGradient id="paint12_linear_476_1996" x1="544.625" y1="228.685" x2="557.864" y2="228.685" gradientUnits="userSpaceOnUse">
<stop stop-color="white" stop-opacity="0.15"/>
<stop offset="1" stop-color="white" stop-opacity="0.5"/>
</linearGradient>
<linearGradient id="paint13_linear_476_1996" x1="555.735" y1="219.077" x2="553.222" y2="201.097" gradientUnits="userSpaceOnUse">
<stop stop-color="white" stop-opacity="0.15"/>
<stop offset="1" stop-color="white" stop-opacity="0.5"/>
</linearGradient>
<linearGradient id="paint14_linear_476_1996" x1="563.575" y1="219.902" x2="568.14" y2="205.821" gradientUnits="userSpaceOnUse">
<stop stop-color="white" stop-opacity="0.15"/>
<stop offset="1" stop-color="white" stop-opacity="0.5"/>
</linearGradient>
<linearGradient id="paint15_linear_476_1996" x1="575.454" y1="213.029" x2="587.181" y2="226.689" gradientUnits="userSpaceOnUse">
<stop stop-color="white" stop-opacity="0.15"/>
<stop offset="1" stop-color="white" stop-opacity="0.5"/>
</linearGradient>
<linearGradient id="paint16_linear_476_1996" x1="586.797" y1="233.612" x2="594.214" y2="240.262" gradientUnits="userSpaceOnUse">
<stop stop-color="white" stop-opacity="0.15"/>
<stop offset="1" stop-color="white" stop-opacity="0.5"/>
</linearGradient>
<linearGradient id="paint17_linear_476_1996" x1="591.656" y1="254.43" x2="582.609" y2="246.73" gradientUnits="userSpaceOnUse">
<stop stop-color="white" stop-opacity="0.15"/>
<stop offset="1" stop-color="white" stop-opacity="0.5"/>
</linearGradient>
<linearGradient id="paint18_linear_476_1996" x1="549.757" y1="271.407" x2="554.578" y2="268.322" gradientUnits="userSpaceOnUse">
<stop stop-color="white" stop-opacity="0.15"/>
<stop offset="1" stop-color="white" stop-opacity="0.5"/>
</linearGradient>
<linearGradient id="paint19_linear_476_1996" x1="541.851" y1="215.688" x2="540.37" y2="199.776" gradientUnits="userSpaceOnUse">
<stop stop-color="white" stop-opacity="0.15"/>
<stop offset="1" stop-color="white" stop-opacity="0.5"/>
</linearGradient>
<linearGradient id="paint20_linear_476_1996" x1="522.022" y1="231.14" x2="528.976" y2="231.14" gradientUnits="userSpaceOnUse">
<stop stop-color="white" stop-opacity="0.15"/>
<stop offset="1" stop-color="white" stop-opacity="0.5"/>
</linearGradient>
<linearGradient id="paint21_linear_476_1996" x1="534.131" y1="241.565" x2="544.966" y2="241.565" gradientUnits="userSpaceOnUse">
<stop stop-color="white" stop-opacity="0.15"/>
<stop offset="1" stop-color="white" stop-opacity="0.5"/>
</linearGradient>
<linearGradient id="paint22_linear_476_1996" x1="528.134" y1="254.211" x2="526.074" y2="248.933" gradientUnits="userSpaceOnUse">
<stop stop-color="white" stop-opacity="0.15"/>
<stop offset="1" stop-color="white" stop-opacity="0.5"/>
</linearGradient>
<linearGradient id="paint23_linear_476_1996" x1="512.9" y1="251.393" x2="517.733" y2="236.314" gradientUnits="userSpaceOnUse">
<stop stop-color="white" stop-opacity="0.15"/>
<stop offset="1" stop-color="white" stop-opacity="0.5"/>
</linearGradient>
<linearGradient id="paint24_linear_476_1996" x1="505.336" y1="256.176" x2="502.572" y2="244.286" gradientUnits="userSpaceOnUse">
<stop stop-color="white" stop-opacity="0.15"/>
<stop offset="1" stop-color="white" stop-opacity="0.5"/>
</linearGradient>
<linearGradient id="paint25_linear_476_1996" x1="493.571" y1="235.19" x2="509.132" y2="236.219" gradientUnits="userSpaceOnUse">
<stop stop-color="white" stop-opacity="0.15"/>
<stop offset="1" stop-color="white" stop-opacity="0.5"/>
</linearGradient>
<linearGradient id="paint26_linear_476_1996" x1="514.606" y1="229.909" x2="507.524" y2="216.775" gradientUnits="userSpaceOnUse">
<stop stop-color="white" stop-opacity="0.15"/>
<stop offset="1" stop-color="white" stop-opacity="0.5"/>
</linearGradient>
<linearGradient id="paint27_linear_476_1996" x1="532.085" y1="216.812" x2="525.079" y2="203.378" gradientUnits="userSpaceOnUse">
<stop stop-color="white" stop-opacity="0.15"/>
<stop offset="1" stop-color="white" stop-opacity="0.5"/>
</linearGradient>
<linearGradient id="paint28_linear_476_1996" x1="575.429" y1="252.222" x2="568.984" y2="231.471" gradientUnits="userSpaceOnUse">
<stop stop-color="white" stop-opacity="0.15"/>
<stop offset="1" stop-color="white" stop-opacity="0.5"/>
</linearGradient>
<linearGradient id="paint29_linear_476_1996" x1="526.865" y1="233.594" x2="539.192" y2="233.594" gradientUnits="userSpaceOnUse">
<stop stop-color="white" stop-opacity="0.15"/>
<stop offset="1" stop-color="white" stop-opacity="0.5"/>
</linearGradient>
<clipPath id="clip0_476_1996">
<rect width="274" height="274" fill="white" transform="matrix(-1 0 0 1 803 46)"/>
</clipPath>
</defs>
</svg>
