<svg width="653" height="577" viewBox="0 0 653 577" fill="none" xmlns="http://www.w3.org/2000/svg">
<path d="M621.593 156.718H591.417V159.231H621.593V156.718Z" fill="url(#paint0_linear_476_2037)"/>
<path d="M307.781 256.45C301.844 243.045 298.891 228.569 299.003 213.425C299.111 198.897 302.013 184.55 307.629 170.78C313.241 157.022 321.192 144.749 331.263 134.302C341.757 123.416 353.972 115.146 367.568 109.722C394.295 97.7522 426.108 97.8678 454.854 110.041C483.328 122.098 505.403 144.549 515.548 171.723L564.064 171.682V255.947H561.551V174.197L513.791 174.237L513.49 173.409C503.725 146.517 481.996 124.264 453.874 112.355C425.76 100.45 394.669 100.33 368.572 112.026L368.523 112.047C342.55 122.401 321.203 144.154 309.956 171.729C298.699 199.328 298.744 229.837 310.079 255.433L307.781 256.45Z" fill="url(#paint1_linear_476_2037)"/>
<path d="M626.757 157.853C626.731 163.557 618.057 163.557 618.032 157.852C618.13 152.118 626.66 152.119 626.757 157.853Z" fill="#0E1223"/>
<path d="M626.142 157.228C625.841 157.232 625.728 156.67 626.042 156.592C626.42 156.49 626.554 157.227 626.142 157.228ZM625.871 156.457C625.682 156.468 624.886 155.314 625.192 155.198C625.573 154.88 626.539 156.409 625.871 156.457ZM624.874 155.167C624.312 154.872 623.786 154.418 623.117 154.333C622.979 154.304 622.889 154.168 622.918 154.03C623.063 153.347 625.951 154.843 624.874 155.167Z" fill="url(#paint2_linear_476_2037)"/>
<path d="M624.827 157.852C624.873 161.009 619.915 161.009 619.961 157.852C619.915 154.695 624.874 154.695 624.827 157.852Z" fill="#1C67CE"/>
<path d="M624.298 157.414C624.069 157.405 623.881 156.923 624.126 156.809C624.447 156.66 624.693 157.405 624.298 157.414ZM623.908 156.741C623.567 156.586 623.325 156.198 622.913 156.129C622.802 156.095 622.739 155.978 622.772 155.866C622.966 155.348 624.674 156.537 623.908 156.741Z" fill="url(#paint3_linear_476_2037)"/>
<path d="M621.064 157.852C621.064 156.509 621.66 155.419 622.395 155.419C619.237 155.373 619.238 160.332 622.395 160.285C621.66 160.285 621.064 159.196 621.064 157.852Z" fill="url(#paint4_linear_476_2037)"/>
<path d="M556.901 111.487H508.951V114H556.901V111.487Z" fill="url(#paint5_linear_476_2037)"/>
<path d="M566.425 159.231H519.146L518.802 158.525C513.565 147.775 506.799 137.839 498.693 128.992L500.546 127.294C508.638 136.126 515.421 146.021 520.715 156.718H566.425V159.231Z" fill="url(#paint6_linear_476_2037)"/>
<path d="M541.812 98.8801H509.538L509.891 97.3425C513.324 82.3808 525.565 70.9467 541.837 67.5019C558.075 64.0642 573.859 69.5361 583.03 81.782L581.018 83.2884C572.441 71.8351 557.627 66.728 542.357 69.9606C527.619 73.0806 516.407 83.1264 512.73 96.367H541.812V98.8801Z" fill="url(#paint7_linear_476_2037)"/>
<path d="M644.138 115.37C637.089 104.407 621.328 99.5683 610.166 101.222L608.892 101.411L608.735 100.133C606.787 84.3037 597.289 70.2223 582.674 61.4992C568.01 52.7469 550.989 51.0891 535.974 56.9503L535.061 54.6093C543.091 51.4745 551.6 50.3737 560.35 51.3383C568.537 52.2407 576.702 55.0081 583.962 59.3413C591.204 63.6636 597.5 69.5157 602.168 76.2651C606.895 83.0979 609.883 90.5979 611.06 98.5748C617.088 97.9226 623.731 98.8814 629.92 101.313C636.968 104.083 642.768 108.592 646.252 114.011L644.138 115.37Z" fill="url(#paint8_linear_476_2037)"/>
<path d="M476.479 105.941L475.169 103.796C481.957 99.6515 490.407 97.7739 498.539 98.5737C500.688 85.8858 507.148 74.2071 516.818 65.5771L518.491 67.4522C508.955 75.9629 502.685 87.5726 500.835 100.143L500.655 101.368L499.427 101.205C491.606 100.172 483.027 101.942 476.479 105.941Z" fill="url(#paint9_linear_476_2037)"/>
<path d="M597.515 256.069H595.002V172.142L596.381 172.277C615.144 174.12 630.55 170.572 639.763 162.286C646.788 155.966 650.396 146.898 650.487 135.332L653 135.352C652.903 147.653 649.015 157.343 641.443 164.154C636.252 168.823 629.388 172.071 621.043 173.808C614.013 175.27 606.105 175.638 597.515 174.905V256.069Z" fill="url(#paint10_linear_476_2037)"/>
<path d="M624.807 144.144H541.813V141.631H624.807C628.274 141.631 631.094 138.81 631.094 135.343C631.094 131.877 628.274 129.056 624.807 129.056H526.725V126.543H624.807C629.66 126.543 633.608 130.491 633.608 135.343C633.608 140.196 629.66 144.144 624.807 144.144Z" fill="url(#paint11_linear_476_2037)"/>
<path d="M593.666 114.001H570.732V98.8803H556.9V96.3672H573.245V111.488H593.666V114.001Z" fill="url(#paint12_linear_476_2037)"/>
<path d="M598.028 112.744C598.003 118.449 589.328 118.449 589.304 112.744C589.402 107.009 597.931 107.01 598.028 112.744Z" fill="#0E1223"/>
<path d="M597.414 112.119C597.113 112.124 596.999 111.562 597.314 111.484C597.692 111.381 597.826 112.119 597.414 112.119ZM597.143 111.348C596.953 111.359 596.157 110.206 596.463 110.09C596.844 109.772 597.81 111.301 597.143 111.348ZM596.146 110.059C595.583 109.764 595.057 109.31 594.389 109.225C594.25 109.196 594.161 109.06 594.189 108.922C594.335 108.239 597.223 109.734 596.146 110.059Z" fill="url(#paint13_linear_476_2037)"/>
<path d="M596.099 112.744C596.145 115.901 591.186 115.901 591.233 112.743C591.187 109.587 596.145 109.587 596.099 112.744Z" fill="#1C67CE"/>
<path d="M595.569 112.306C595.34 112.296 595.152 111.815 595.397 111.7C595.718 111.551 595.964 112.297 595.569 112.306ZM595.179 111.633C594.838 111.477 594.596 111.089 594.184 111.021C594.073 110.987 594.01 110.869 594.043 110.757C594.237 110.239 595.945 111.429 595.179 111.633Z" fill="url(#paint14_linear_476_2037)"/>
<path d="M592.335 112.744C592.335 111.4 592.931 110.311 593.666 110.311C590.508 110.265 590.509 115.224 593.666 115.177C592.931 115.177 592.335 114.088 592.335 112.744Z" fill="url(#paint15_linear_476_2037)"/>
<path d="M595.78 157.977C595.754 163.681 587.08 163.681 587.055 157.976C587.153 152.242 595.683 152.243 595.78 157.977Z" fill="#0E1223"/>
<path d="M595.165 157.352C594.864 157.356 594.75 156.794 595.065 156.716C595.443 156.614 595.577 157.351 595.165 157.352ZM594.894 156.581C594.705 156.592 593.909 155.438 594.215 155.322C594.596 155.004 595.562 156.533 594.894 156.581ZM593.897 155.291C593.335 154.996 592.809 154.542 592.14 154.457C592.002 154.428 591.912 154.292 591.941 154.154C592.086 153.471 594.974 154.967 593.897 155.291Z" fill="url(#paint16_linear_476_2037)"/>
<path d="M593.85 157.976C593.896 161.133 588.938 161.133 588.984 157.976C588.938 154.819 593.897 154.819 593.85 157.976Z" fill="#1C67CE"/>
<path d="M593.321 157.538C593.092 157.529 592.904 157.047 593.149 156.933C593.47 156.784 593.716 157.529 593.321 157.538ZM592.931 156.865C592.59 156.71 592.348 156.322 591.936 156.254C591.825 156.219 591.762 156.102 591.795 155.99C591.989 155.472 593.697 156.661 592.931 156.865Z" fill="url(#paint17_linear_476_2037)"/>
<path d="M590.087 157.976C590.087 156.633 590.683 155.543 591.417 155.543C588.26 155.497 588.261 160.456 591.417 160.409C590.683 160.409 590.087 159.32 590.087 157.976Z" fill="url(#paint18_linear_476_2037)"/>
<g clip-path="url(#clip0_476_2037)">
<path d="M264.416 276.419C263.187 290.923 260.021 305.258 255.007 318.939C253.495 323.041 251.637 327.313 247.985 329.713C242.971 333.013 236.343 331.696 230.54 330.117C230.506 330.107 230.461 330.096 230.427 330.084C229.898 333.667 229.694 337.635 229.3 341.568C229.142 343.178 228.917 344.836 228.049 346.188C227.272 347.394 226.02 348.227 224.714 348.814C224.634 348.848 224.555 348.881 224.476 348.916C222.639 349.704 220.633 350.098 218.627 350.075C216.329 350.054 214.063 349.468 211.843 348.802C204.023 346.448 196.551 342.921 189.755 338.378C194.083 307.612 183.76 285.232 186.363 276.744C187.67 272.498 190.003 268.643 192.189 264.777C195.289 259.346 198.174 253.778 201.881 248.741C205.6 243.715 210.209 239.184 215.911 236.603C222.47 233.639 230.079 233.437 237.064 235.172C250.274 238.462 261.779 249.281 264.191 262.669C264.991 267.189 264.799 271.832 264.416 276.419Z" fill="#FFC5A6"/>
<path d="M211.484 227.328C211.484 227.328 189.215 216.509 177.473 236.75C165.73 256.99 172.356 274.457 177.698 286.505C183.04 298.553 189.892 317.677 189.892 321.96C189.892 321.96 206.931 313.676 212.138 292.918C212.138 292.918 198.626 288.298 203.921 275.157C209.218 262.017 227.961 270.366 223.001 300.434C223.001 300.434 229.661 281.501 234.631 275.54C239.601 269.578 243.636 268.789 257.171 271.067C270.694 273.342 294.383 265.431 294.383 236.198C294.383 236.198 279.833 239.726 268.609 236.852C252.201 232.671 232.298 208.87 211.484 227.328Z" fill="url(#paint19_linear_476_2037)"/>
<path d="M229.29 341.566C229.133 343.178 228.906 344.836 228.038 346.188C227.261 347.394 226.009 348.227 224.703 348.813L213.298 320.944C219.766 326.341 230.427 330.084 230.427 330.084C230.427 330.084 229.685 337.623 229.29 341.566Z" fill="#FF9F6B"/>
<path d="M427.972 318.725C433.787 313.586 439.13 307.906 443.907 301.798C446.442 298.563 448.831 295.17 450.477 291.406C451.458 289.154 452.168 286.594 451.368 284.272C450.77 282.537 449.418 281.185 448.054 279.956C445.8 277.929 443.288 276.002 440.334 275.313C435.206 274.119 430.078 276.846 425.514 279.483C423.508 280.645 421.458 281.828 419.925 283.574C418.381 285.332 417.435 287.553 416.85 289.817C415.034 296.77 416.354 304.152 418.313 311.072C418.967 313.382 419.744 315.771 421.424 317.496C423.103 319.219 426.147 320.335 427.972 318.725Z" fill="#FFC5A6"/>
<path d="M350.539 265.228C335.822 270.93 321.114 276.633 306.397 282.336C305.731 282.593 305.033 282.864 304.537 283.395C303.804 284.172 303.681 285.321 303.658 286.38C303.59 290.144 304.493 293.908 306.341 297.672C306.87 298.755 308.031 299.409 309.237 299.284C325.938 297.628 342.605 295.666 359.24 293.424C357.053 284.047 354.653 274.706 350.539 265.228Z" fill="#1767CE"/>
<path d="M477.716 287.723C435.568 293.335 393.387 294.158 352.118 299.657C349.876 299.949 347.756 298.586 347.102 296.422C343.925 285.953 341.592 275.867 341.084 265.566C341.005 263.91 341.852 262.175 343.429 261.667C378.139 250.533 419.116 236.683 469.919 220.398C474.302 242.261 476.658 264.541 477.716 287.723Z" fill="black"/>
<path d="M410.639 319.581C411.27 313.19 411.643 306.632 409.906 300.456C408.6 295.792 406.11 291.441 405.579 286.629C405.252 283.63 405.715 280.611 406.198 277.635C406.379 276.555 406.56 275.439 407.158 274.525C407.754 273.602 408.858 272.925 409.929 273.173C410.639 273.343 411.203 273.883 411.676 274.447C414.143 277.387 414.978 281.321 416.534 284.825C418.167 288.489 420.658 291.768 423.756 294.326C425.662 295.892 427.847 297.244 429.12 299.363C430.428 301.516 430.609 304.175 430.361 306.689C429.753 312.898 426.405 319.029 420.894 321.947C418.786 323.063 416.342 323.684 414.02 323.176C411.699 322.668 409.579 320.808 410.639 319.581ZM371.726 317.35C374.057 298.519 394.389 286.021 397.555 267.303C397.701 266.424 397.803 265.478 397.397 264.678C397.049 263.989 396.372 263.528 395.706 263.133C387.571 258.354 376.527 259.956 369.347 266.074C362.169 272.194 358.832 282.155 359.734 291.543C360.625 300.942 365.425 309.699 371.726 317.35Z" fill="#FFC5A6"/>
<path d="M319.435 257.137C304.718 262.839 290.012 268.542 275.293 274.245C274.629 274.504 273.929 274.774 273.433 275.305C272.702 276.082 272.577 277.232 272.554 278.29C272.486 282.053 273.389 285.817 275.237 289.581C275.766 290.664 276.927 291.318 278.133 291.193C294.834 289.537 311.501 287.577 328.136 285.335C325.949 275.958 323.549 266.615 319.435 257.137Z" fill="#1767CE"/>
<path d="M446.611 279.62C404.461 285.233 362.281 286.056 321.012 291.555C318.769 291.849 316.65 290.485 315.996 288.321C312.818 277.851 310.485 267.765 309.978 257.465C309.899 255.807 310.745 254.073 312.322 253.565C347.033 242.431 388.009 228.581 438.812 212.296C443.195 234.17 445.552 256.44 446.611 279.62Z" fill="black"/>
<path d="M380.787 289.21C377.181 287.441 373.359 285.469 371.388 281.963C369.315 278.278 369.776 273.749 370.296 269.544C370.859 264.947 371.432 260.36 371.996 255.762C372.165 254.365 372.311 252.809 371.501 251.649C370.363 250.026 367.951 250.003 366.035 250.522C360.648 251.986 356.49 256.269 353.199 260.778C348.702 266.942 345.198 274.368 346.021 281.963C346.504 286.494 348.521 290.833 348.489 295.386C348.466 299.285 346.956 303.004 346.144 306.824C345.333 310.646 345.367 315.029 347.937 317.958C350.787 321.216 356.344 321.407 359.646 318.601C360.84 317.587 361.741 316.268 362.631 314.971C368.515 306.441 374.386 297.9 380.787 289.21Z" fill="#FFC5A6"/>
<g filter="url(#filter0_d_476_2037)">
<path d="M440.301 313.99C427.296 310.418 413.571 309.505 400.746 312.559C396.238 333.939 390.129 354.99 382.511 375.477C378.758 385.551 373.992 396.247 364.547 401.398C352.659 407.877 337.907 403.223 325.724 397.307C294.159 381.991 266.199 358.777 232.502 348.995C227.454 347.529 224.613 354.607 219.453 353.738C201.86 350.808 201.489 339.076 168.176 343.28C159.397 343.28 145.13 347.269 137.421 352.216C124.394 360.567 118.996 376.671 115.153 391.671C110.476 409.928 106.757 428.432 104.289 447.456C104.188 469.409 102.441 491.35 98.395 514.848C129.082 519.683 160.062 522.647 191.109 523.706C209.04 524.326 227.161 524.291 244.708 520.55C249.643 492.173 254.569 463.808 259.854 435.904C285.031 440.751 310.205 445.608 335.381 450.454C352.466 453.745 371.388 456.742 386.275 447.737C398.594 440.288 405.141 426.315 410.607 412.994C423.791 380.887 431.748 348.656 440.301 313.99Z" fill="url(#paint20_linear_476_2037)"/>
</g>
<path d="M210.853 358.494C213.355 366.576 215.429 374.79 217.166 384.166C212.646 425.47 206.662 466.602 199.234 507.477C199.077 508.368 198.907 509.316 199.225 510.172C199.427 510.735 199.809 511.208 200.192 511.67C203.191 515.322 206.201 518.973 209.197 522.635C212.286 519.469 215.373 516.313 218.462 513.147C219.441 512.143 220.456 511.095 220.951 509.777C221.347 508.729 221.38 507.579 221.403 506.452C222.405 467.122 223.409 427.791 224.422 388.461C224.524 384.686 224.615 380.887 225.269 377.158C226.011 372.898 227.488 368.76 227.804 364.445C228.154 359.632 227.071 354.855 225.99 350.156C225.888 349.704 225.763 349.231 225.403 348.939C224.997 348.623 224.434 348.644 223.915 348.691C221.38 348.904 218.833 349.108 216.296 349.321C215.338 349.4 214.302 349.523 213.638 350.212C213.198 350.673 213.007 351.316 212.827 351.935C212.228 354.02 211.644 356.093 210.853 358.494Z" fill="#0E1223"/>
<path d="M229.133 342.854C227.036 345.885 224.265 347.687 219.779 348.68C209.942 345.558 198.729 340.79 190.456 334.807C188.653 337.647 187.222 340.475 186.095 343.033C193.295 353.661 201.771 363.432 211.271 372.075C213.39 365.347 216.319 358.879 219.981 352.838C223.499 358.135 226.98 364.209 229.763 372.683C232.446 362.112 232.785 353.965 229.133 342.854Z" fill="#0E1223"/>
<path d="M381.991 310.082C367.747 306.757 353.107 305.112 337.872 305.033C332.823 319.187 327.784 333.352 322.735 347.508C319.841 355.632 316.91 363.849 312.244 371.105C307.58 378.364 300.952 384.686 292.737 387.335C284.757 389.904 276.125 388.81 267.832 387.56C252.774 385.271 237.786 382.522 222.899 379.299C212.959 377.147 201.86 374.96 193.193 380.28C190.511 381.924 188.279 384.178 186.206 386.546C180.898 392.608 176.469 399.652 174.745 407.518C173.009 415.384 174.271 424.139 179.298 430.44C185.608 438.339 196.315 440.988 206.243 442.927C237.934 449.114 270.175 453.059 302.462 452.347C313.473 452.101 325.126 451.097 334.05 444.65C339.934 440.403 344.057 434.17 347.494 427.792C354.776 414.269 359.51 399.55 363.904 384.844C371.196 360.354 377.687 335.653 381.991 310.082Z" fill="url(#paint21_linear_476_2037)"/>
<path d="M439.287 212.813C430.148 213.951 433.223 279.72 445.992 280.181C458.321 280.622 453.78 211.009 439.287 212.813ZM469.139 220.433C460 221.572 463.077 287.34 475.846 287.802C488.175 288.254 483.632 218.629 469.139 220.433Z" fill="#D3E5F5"/>
<path d="M273.804 288.048C274.333 291.205 277.603 292.466 280.465 292.343C284.194 292.185 287.981 291.295 291.666 290.731C299.611 289.525 307.557 288.32 315.502 287.114C316.933 286.9 316.358 284.713 314.938 284.927C308.085 285.963 301.235 287.012 294.382 288.048C291.001 288.568 287.619 289.075 284.24 289.593C281.726 289.976 276.599 291.205 275.979 287.475C275.754 286.054 273.567 286.629 273.804 288.048ZM343.608 290.056C343.719 293.224 344.869 296.197 346.831 298.679C347.214 299.152 348.037 299.061 348.42 298.667C348.893 298.194 348.791 297.552 348.408 297.076C346.887 295.161 345.952 292.582 345.862 290.068C345.839 289.46 345.365 288.941 344.746 288.929C344.148 288.941 343.584 289.449 343.608 290.056Z" fill="#203752"/>
<path d="M304.312 296.965C305.179 300.188 308.572 300.571 311.399 300.323C315.231 299.996 319.064 299.567 322.884 299.105C330.446 298.192 337.984 297.065 345.479 295.724C346.91 295.465 346.335 293.291 344.915 293.537C338.413 294.699 331.889 295.703 325.34 296.547C322.072 296.965 318.793 297.336 315.525 297.675C313.902 297.844 312.278 298.025 310.645 298.136C309.124 298.238 306.981 298.215 306.497 296.401C306.114 294.991 303.939 295.567 304.312 296.965ZM377.247 286.812C397.465 284.94 417.683 283.069 437.901 281.199C440.447 280.963 443.005 280.805 445.54 280.466C447.625 280.184 449.689 279.564 451.097 277.92C452.032 276.826 450.431 275.225 449.497 276.341C448.223 277.83 446.308 278.157 444.448 278.347C442.092 278.595 439.726 278.787 437.358 279.001C432.537 279.451 427.713 279.891 422.889 280.341C413.151 281.243 403.416 282.146 393.678 283.048C388.202 283.553 382.736 284.061 377.258 284.569C375.816 284.692 375.795 286.946 377.247 286.812ZM424.951 293.73C435.42 292.782 445.89 291.835 456.359 290.901C461.589 290.427 466.828 289.975 472.057 289.481C475.629 289.143 479.326 288.556 481.58 285.481C482.438 284.319 480.476 283.203 479.62 284.363C477.32 287.485 472.125 287.215 468.699 287.531C463.843 287.969 458.973 288.41 454.117 288.848C444.39 289.729 434.677 290.608 424.951 291.476C423.52 291.599 423.509 293.864 424.951 293.73ZM424.749 217.92C429.392 217.198 433.55 214.381 438.284 214.179C440.459 214.088 442.746 214.538 444.279 216.196C445.913 217.954 446.623 220.568 447.412 222.778C450.837 232.458 452.686 242.69 452.855 252.957C452.957 258.773 452.528 264.587 451.558 270.323C451.322 271.744 453.497 272.34 453.734 270.909C455.571 259.968 455.559 248.787 453.666 237.857C452.72 232.368 451.299 226.969 449.406 221.73C448.572 219.397 447.771 216.86 446.162 214.935C444.752 213.254 442.723 212.33 440.582 212.038C434.745 211.226 429.763 214.865 424.174 215.735C422.755 215.96 423.328 218.145 424.749 217.92ZM453.172 227.127C457.611 225.459 462.087 223.926 466.616 222.54C468.69 221.909 470.73 221.412 472.657 222.676C474.179 223.667 475.215 225.301 476.027 226.89C477.987 230.733 479.149 235.128 480.162 239.309C481.266 243.829 481.999 248.426 482.361 253.059C482.755 258.219 482.686 263.403 482.18 268.565C482.034 270.007 484.297 270.007 484.434 268.576C485.413 258.602 484.703 248.483 482.338 238.746C481.255 234.316 480.005 229.652 477.875 225.594C476.139 222.282 473.231 219.249 469.197 219.633C466.493 219.891 463.754 221.064 461.185 221.909C458.3 222.866 455.438 223.882 452.586 224.951C451.256 225.448 451.808 227.634 453.172 227.127Z" fill="#203752"/>
<path d="M464.112 226.507C461.194 245.54 462.896 265.116 469.184 283.328C469.657 284.692 471.844 284.128 471.37 282.765C465.218 264.947 463.425 245.744 466.287 227.092C466.503 225.672 464.327 225.076 464.112 226.507ZM434.283 218.539C430.496 236.818 434.204 255.401 438.058 273.342C438.362 274.762 440.549 274.186 440.243 272.779C436.479 255.244 432.761 237.008 436.468 219.123C436.75 217.704 434.575 217.117 434.283 218.539ZM186.51 347.519C193.228 356.998 200.744 365.878 209.005 374.048C209.466 374.509 210.491 374.486 210.774 373.8C213.636 366.891 216.971 360.198 220.77 353.762C220.116 353.762 219.462 353.762 218.819 353.762C222.37 360.411 225.932 367.06 229.48 373.721C229.932 374.565 231.329 374.386 231.544 373.45C233.279 365.989 233.527 358.327 232.333 350.764C232.108 349.333 229.921 349.908 230.146 351.328C231.285 358.496 231.013 365.799 229.369 372.863C230.056 372.775 230.744 372.684 231.431 372.594C227.88 365.945 224.32 359.296 220.77 352.635C220.364 351.868 219.237 351.926 218.819 352.635C215.023 359.08 211.686 365.764 208.824 372.673C209.41 372.594 210.007 372.515 210.593 372.425C202.479 364.4 195.076 355.69 188.471 346.381C187.637 345.219 185.677 346.336 186.51 347.519Z" fill="#203752"/>
<path d="M157.626 360.052C181.326 361.415 202.231 374.431 224.68 380.799C236.693 384.213 249.124 386.59 261.542 387.921C267.876 388.596 274.254 388.911 280.622 388.665C286.515 388.438 292.624 387.921 298.157 385.769C308.21 381.857 313.528 372.155 317.946 362.902C318.565 361.606 316.617 360.467 315.986 361.787C312.165 369.788 307.679 378.668 299.363 382.793C294.112 385.395 288.036 386.017 282.266 386.332C276.093 386.669 269.882 386.455 263.729 385.88C251.31 384.72 238.857 382.353 226.832 379.062C215.665 376.008 205.037 371.49 194.274 367.274C182.487 362.654 170.383 358.54 157.649 357.798C156.184 357.707 156.172 359.961 157.626 360.052Z" fill="#203752"/>
<path d="M212.544 368.728C213.208 371.479 213.885 374.239 214.55 376.989C214.696 377.574 215.339 377.947 215.925 377.801C216.521 377.643 216.871 377.022 216.735 376.426C216.071 373.675 215.394 370.915 214.729 368.165C214.583 367.578 213.94 367.207 213.356 367.353C212.757 367.511 212.407 368.13 212.544 368.728ZM225.942 368.942C224.726 372.279 223.936 375.749 223.553 379.276C223.486 379.886 224.105 380.403 224.669 380.415C225.334 380.415 225.74 379.895 225.807 379.299C226.178 375.964 226.969 372.683 228.117 369.54C228.333 368.965 227.869 368.311 227.317 368.165C226.698 367.972 226.157 368.367 225.942 368.942ZM156.467 429.009C187.706 439.286 219.701 447.852 252.449 451.537C268.734 453.363 285.165 453.959 301.517 452.878C309.372 452.359 317.621 451.886 325.194 449.564C331.877 447.525 337.659 443.513 342.325 438.363C352.084 427.588 355.565 413.277 360.333 399.923C360.818 398.559 358.642 397.984 358.158 399.336C354.055 410.821 351.059 423.261 343.677 433.189C339.63 438.634 334.412 443.377 328.148 446.104C320.889 449.272 312.527 449.768 304.729 450.387C272.712 452.934 240.55 448.956 209.367 441.732C191.684 437.641 174.273 432.502 157.042 426.834C155.678 426.382 155.092 428.557 156.467 429.009Z" fill="#203752"/>
<path d="M209.174 443.367C207.314 454.511 205.445 465.656 203.585 476.802C202.66 482.324 201.736 487.857 200.811 493.379C200.35 496.141 199.888 498.903 199.427 501.675C198.975 504.356 198.323 507.095 198.096 509.81C197.871 512.572 199.99 514.386 201.681 516.28C203.854 518.725 206.029 521.183 208.205 523.628C209.162 524.709 210.751 523.108 209.782 522.027C207.98 519.998 206.176 517.971 204.373 515.942C202.773 514.138 200.057 512.122 200.396 509.495C201.083 504.21 202.154 498.947 203.033 493.695C204.802 483.103 206.572 472.509 208.351 461.916C209.355 455.932 210.357 449.937 211.361 443.952C211.586 442.532 209.411 441.934 209.174 443.367ZM213.694 519.627C215.665 517.633 217.648 515.638 219.622 513.642C221.187 512.065 222.743 510.678 222.945 508.324C223.17 505.619 222.855 502.79 222.81 500.074C222.755 497.359 222.72 494.643 222.685 491.925C222.562 480.972 222.63 470.007 222.878 459.054C222.912 457.6 220.658 457.588 220.624 459.042C220.387 469.432 220.32 479.833 220.422 490.225C220.466 495.374 220.556 500.525 220.691 505.675C220.726 506.948 220.962 508.481 220.285 509.62C219.643 510.689 218.495 511.58 217.637 512.447C215.788 514.307 213.952 516.167 212.103 518.027C211.067 519.075 212.667 520.664 213.694 519.627Z" fill="#203752"/>
</g>
<defs>
<filter id="filter0_d_476_2037" x="-17.605" y="229.713" width="541.906" height="413.293" filterUnits="userSpaceOnUse" color-interpolation-filters="sRGB">
<feFlood flood-opacity="0" result="BackgroundImageFix"/>
<feColorMatrix in="SourceAlpha" type="matrix" values="0 0 0 0 0 0 0 0 0 0 0 0 0 0 0 0 0 0 127 0" result="hardAlpha"/>
<feOffset dx="-16" dy="19"/>
<feGaussianBlur stdDeviation="50"/>
<feComposite in2="hardAlpha" operator="out"/>
<feColorMatrix type="matrix" values="0 0 0 0 0.258824 0 0 0 0 0.509804 0 0 0 0 0.843137 0 0 0 1 0"/>
<feBlend mode="normal" in2="BackgroundImageFix" result="effect1_dropShadow_476_2037"/>
<feBlend mode="normal" in="SourceGraphic" in2="effect1_dropShadow_476_2037" result="shape"/>
</filter>
<linearGradient id="paint0_linear_476_2037" x1="606.505" y1="156.718" x2="606.505" y2="159.231" gradientUnits="userSpaceOnUse">
<stop stop-color="#367AD4" stop-opacity="0.16"/>
<stop offset="1" stop-color="#9FC3EB"/>
</linearGradient>
<linearGradient id="paint1_linear_476_2037" x1="431.532" y1="100.827" x2="431.532" y2="256.45" gradientUnits="userSpaceOnUse">
<stop stop-color="#367AD4" stop-opacity="0.16"/>
<stop offset="1" stop-color="#9FC3EB"/>
</linearGradient>
<linearGradient id="paint2_linear_476_2037" x1="618.231" y1="150.687" x2="628.502" y2="158.076" gradientUnits="userSpaceOnUse">
<stop stop-color="white"/>
<stop offset="1" stop-color="white" stop-opacity="0"/>
</linearGradient>
<linearGradient id="paint3_linear_476_2037" x1="616.03" y1="151.585" x2="626.493" y2="158.349" gradientUnits="userSpaceOnUse">
<stop stop-color="white"/>
<stop offset="1" stop-color="white" stop-opacity="0"/>
</linearGradient>
<linearGradient id="paint4_linear_476_2037" x1="621.211" y1="155.747" x2="621.211" y2="159.735" gradientUnits="userSpaceOnUse">
<stop stop-color="#000C16" stop-opacity="0.1"/>
<stop offset="1" stop-color="#000C16" stop-opacity="0.9"/>
</linearGradient>
<linearGradient id="paint5_linear_476_2037" x1="532.926" y1="111.487" x2="532.926" y2="114" gradientUnits="userSpaceOnUse">
<stop stop-color="#367AD4" stop-opacity="0.16"/>
<stop offset="1" stop-color="#9FC3EB"/>
</linearGradient>
<linearGradient id="paint6_linear_476_2037" x1="532.559" y1="127.294" x2="532.559" y2="159.231" gradientUnits="userSpaceOnUse">
<stop stop-color="#367AD4" stop-opacity="0.16"/>
<stop offset="1" stop-color="#9FC3EB"/>
</linearGradient>
<linearGradient id="paint7_linear_476_2037" x1="546.284" y1="66.4912" x2="546.284" y2="98.8801" gradientUnits="userSpaceOnUse">
<stop stop-color="#367AD4" stop-opacity="0.16"/>
<stop offset="1" stop-color="#9FC3EB"/>
</linearGradient>
<linearGradient id="paint8_linear_476_2037" x1="590.656" y1="51" x2="590.656" y2="115.37" gradientUnits="userSpaceOnUse">
<stop stop-color="#367AD4" stop-opacity="0.16"/>
<stop offset="1" stop-color="#9FC3EB"/>
</linearGradient>
<linearGradient id="paint9_linear_476_2037" x1="496.83" y1="65.5771" x2="496.83" y2="105.941" gradientUnits="userSpaceOnUse">
<stop stop-color="#367AD4" stop-opacity="0.16"/>
<stop offset="1" stop-color="#9FC3EB"/>
</linearGradient>
<linearGradient id="paint10_linear_476_2037" x1="624.001" y1="135.332" x2="624.001" y2="256.069" gradientUnits="userSpaceOnUse">
<stop stop-color="#367AD4" stop-opacity="0.16"/>
<stop offset="1" stop-color="#9FC3EB"/>
</linearGradient>
<linearGradient id="paint11_linear_476_2037" x1="580.166" y1="126.543" x2="580.166" y2="144.144" gradientUnits="userSpaceOnUse">
<stop stop-color="#367AD4" stop-opacity="0.16"/>
<stop offset="1" stop-color="#9FC3EB"/>
</linearGradient>
<linearGradient id="paint12_linear_476_2037" x1="575.283" y1="96.3672" x2="575.283" y2="114.001" gradientUnits="userSpaceOnUse">
<stop stop-color="#367AD4" stop-opacity="0.16"/>
<stop offset="1" stop-color="#9FC3EB"/>
</linearGradient>
<linearGradient id="paint13_linear_476_2037" x1="589.502" y1="105.579" x2="599.773" y2="112.967" gradientUnits="userSpaceOnUse">
<stop stop-color="white"/>
<stop offset="1" stop-color="white" stop-opacity="0"/>
</linearGradient>
<linearGradient id="paint14_linear_476_2037" x1="587.301" y1="106.476" x2="597.764" y2="113.241" gradientUnits="userSpaceOnUse">
<stop stop-color="white"/>
<stop offset="1" stop-color="white" stop-opacity="0"/>
</linearGradient>
<linearGradient id="paint15_linear_476_2037" x1="592.482" y1="110.639" x2="592.482" y2="114.627" gradientUnits="userSpaceOnUse">
<stop stop-color="#000C16" stop-opacity="0.1"/>
<stop offset="1" stop-color="#000C16" stop-opacity="0.9"/>
</linearGradient>
<linearGradient id="paint16_linear_476_2037" x1="587.254" y1="150.811" x2="597.525" y2="158.2" gradientUnits="userSpaceOnUse">
<stop stop-color="white"/>
<stop offset="1" stop-color="white" stop-opacity="0"/>
</linearGradient>
<linearGradient id="paint17_linear_476_2037" x1="585.053" y1="151.709" x2="595.516" y2="158.473" gradientUnits="userSpaceOnUse">
<stop stop-color="white"/>
<stop offset="1" stop-color="white" stop-opacity="0"/>
</linearGradient>
<linearGradient id="paint18_linear_476_2037" x1="590.234" y1="155.871" x2="590.234" y2="159.859" gradientUnits="userSpaceOnUse">
<stop stop-color="#000C16" stop-opacity="0.1"/>
<stop offset="1" stop-color="#000C16" stop-opacity="0.9"/>
</linearGradient>
<linearGradient id="paint19_linear_476_2037" x1="175" y1="265.5" x2="286.5" y2="249.5" gradientUnits="userSpaceOnUse">
<stop stop-color="#5C330F"/>
<stop offset="1" stop-color="#C3AE9B"/>
</linearGradient>
<linearGradient id="paint20_linear_476_2037" x1="395.947" y1="310.497" x2="110.409" y2="506.779" gradientUnits="userSpaceOnUse">
<stop stop-color="#D7EBF8"/>
<stop offset="1" stop-color="#1260CC"/>
</linearGradient>
<linearGradient id="paint21_linear_476_2037" x1="361" y1="311.5" x2="174" y2="428" gradientUnits="userSpaceOnUse">
<stop stop-color="#D7EBF8"/>
<stop offset="1" stop-color="#4886D8"/>
</linearGradient>
<clipPath id="clip0_476_2037">
<rect width="577" height="577" fill="white"/>
</clipPath>
</defs>
</svg>
