<svg width="26" height="19" viewBox="0 0 26 19" fill="none" xmlns="http://www.w3.org/2000/svg">
<path d="M18.3521 18.3417L13.4133 6.49593L17.3148 4.48193L18.3521 18.3417Z" fill="url(#paint0_linear_212_2091)"/>
<path d="M26.0001 0L21.6077 10.5351L17.3149 4.4818L26.0001 0Z" fill="url(#paint1_linear_212_2091)"/>
<path d="M25.9999 0L17.3148 4.4818L13.4133 6.4958L13.543 6.18454L13.6781 5.8561L15.976 0.348749L16.1221 0H25.9999Z" fill="url(#paint2_linear_212_2091)"/>
<path d="M10.5328 4.77939L4.94576 11.8606L0 0L10.5328 4.77939Z" fill="url(#paint3_linear_212_2091)"/>
<path d="M12.8628 5.8357L12.5882 6.49571L7.64793 18.3415L4.9458 11.8605L10.5328 4.7793L12.8628 5.8357Z" fill="url(#paint4_linear_212_2091)"/>
<path d="M15.2969 0L13.0006 5.50696L12.8627 5.83579L10.5328 4.77939L0 0H15.2969Z" fill="url(#paint5_linear_212_2091)"/>
<path d="M21.6077 10.5353L18.3522 18.3417L17.3149 4.48193L21.6077 10.5353Z" fill="url(#paint6_linear_212_2091)"/>
<defs>
<linearGradient id="paint0_linear_212_2091" x1="13.9929" y1="6.47758" x2="17.4691" y2="10.9434" gradientUnits="userSpaceOnUse">
<stop stop-color="#3A9BDC"/>
<stop offset="1" stop-color="#1260CC"/>
</linearGradient>
<linearGradient id="paint1_linear_212_2091" x1="23.5663" y1="5.25897" x2="17.8344" y2="5.05199" gradientUnits="userSpaceOnUse">
<stop stop-color="#3A9BDC"/>
<stop offset="1" stop-color="#1260CC"/>
</linearGradient>
<linearGradient id="paint2_linear_212_2091" x1="13.7726" y1="3.68667" x2="24.1086" y2="-0.871288" gradientUnits="userSpaceOnUse">
<stop stop-color="#3A9BDC"/>
<stop offset="1" stop-color="#1260CC"/>
</linearGradient>
<linearGradient id="paint3_linear_212_2091" x1="6.32318" y1="6.81018" x2="1.10913" y2="1.25089" gradientUnits="userSpaceOnUse">
<stop stop-color="#3A9BDC"/>
<stop offset="1" stop-color="#1260CC"/>
</linearGradient>
<linearGradient id="paint4_linear_212_2091" x1="11.6943" y1="11.5602" x2="5.51364" y2="11.5602" gradientUnits="userSpaceOnUse">
<stop stop-color="#3A9BDC"/>
<stop offset="1" stop-color="#1260CC"/>
</linearGradient>
<linearGradient id="paint5_linear_212_2091" x1="7.6928" y1="0.711949" x2="7.95172" y2="4.87312" gradientUnits="userSpaceOnUse">
<stop stop-color="#3A9BDC"/>
<stop offset="1" stop-color="#1260CC"/>
</linearGradient>
<linearGradient id="paint6_linear_212_2091" x1="17.8785" y1="11.4108" x2="21.1242" y2="11.3534" gradientUnits="userSpaceOnUse">
<stop stop-color="#3A9BDC"/>
<stop offset="1" stop-color="#1260CC"/>
</linearGradient>
</defs>
</svg>
