<svg width="1240" height="403" viewBox="0 0 1240 403" fill="none" xmlns="http://www.w3.org/2000/svg">
<mask id="mask0_212_2439" style="mask-type:alpha" maskUnits="userSpaceOnUse" x="0" y="0" width="1240" height="403">
<rect width="1240" height="403" rx="20" fill="#0B0A0A"/>
</mask>
<g mask="url(#mask0_212_2439)">
<g opacity="0.4">
<path d="M1117.64 242.923L1123.03 254.57L1119.21 256.732L1117.64 242.923Z" fill="url(#paint0_linear_212_2439)"/>
<path d="M1110.7 261.545L1114.69 250.849L1119.21 256.732L1110.7 261.545Z" fill="url(#paint1_linear_212_2439)"/>
<path d="M1110.7 261.545L1119.21 256.732L1123.03 254.57L1122.91 254.886L1122.79 255.219L1120.71 260.811L1120.58 261.165L1110.7 261.545Z" fill="url(#paint2_linear_212_2439)"/>
<path d="M1125.98 256.174L1131.29 248.884L1136.69 260.545L1125.98 256.174Z" fill="url(#paint3_linear_212_2439)"/>
<path d="M1123.61 255.208L1123.86 254.538L1128.34 242.511L1131.29 248.883L1125.98 256.174L1123.61 255.208Z" fill="url(#paint4_linear_212_2439)"/>
<path d="M1121.4 261.133L1123.48 255.542L1123.61 255.208L1125.98 256.174L1136.69 260.545L1121.4 261.133Z" fill="url(#paint5_linear_212_2439)"/>
<path d="M1114.69 250.849L1117.64 242.923L1119.21 256.732L1114.69 250.849Z" fill="url(#paint6_linear_212_2439)"/>
</g>
<g opacity="0.4">
<path d="M935.368 120.262L942.834 109.823L946.602 112.078L935.368 120.262Z" fill="url(#paint7_linear_212_2439)"/>
<path d="M954.987 117.099L943.718 118.916L946.602 112.078L954.987 117.099Z" fill="url(#paint8_linear_212_2439)"/>
<path d="M954.987 117.099L946.602 112.078L942.834 109.823L943.167 109.769L943.517 109.711L949.409 108.763L949.783 108.703L954.987 117.099Z" fill="url(#paint9_linear_212_2439)"/>
<path d="M942.776 106.47L933.813 105.452L941.289 95L942.776 106.47Z" fill="url(#paint10_linear_212_2439)"/>
<path d="M943.105 109.007L942.399 109.122L929.728 111.163L933.813 105.452L942.775 106.47L943.105 109.007Z" fill="url(#paint11_linear_212_2439)"/>
<path d="M949.348 108.002L943.457 108.951L943.105 109.007L942.776 106.47L941.289 95L949.348 108.002Z" fill="url(#paint12_linear_212_2439)"/>
<path d="M943.718 118.916L935.368 120.262L946.602 112.078L943.718 118.916Z" fill="url(#paint13_linear_212_2439)"/>
</g>
<g opacity="0.4">
<path d="M861.187 255.782L872.856 261.126L871.358 265.253L861.187 255.782Z" fill="url(#paint14_linear_212_2439)"/>
<path d="M868.024 274.44L864.097 263.723L871.358 265.253L868.024 274.44Z" fill="url(#paint15_linear_212_2439)"/>
<path d="M868.025 274.44L871.358 265.253L872.855 261.126L872.972 261.442L873.095 261.775L875.147 267.379L875.277 267.734L868.025 274.44Z" fill="url(#paint16_linear_212_2439)"/>
<path d="M876.136 260.43L875.43 251.438L887.114 256.788L876.136 260.43Z" fill="url(#paint17_linear_212_2439)"/>
<path d="M873.708 261.236L873.461 260.565L869.046 248.514L875.43 251.438L876.136 260.43L873.708 261.236Z" fill="url(#paint18_linear_212_2439)"/>
<path d="M875.883 267.174L873.83 261.571L873.708 261.236L876.136 260.43L887.114 256.788L875.883 267.174Z" fill="url(#paint19_linear_212_2439)"/>
<path d="M864.097 263.723L861.187 255.781L871.358 265.253L864.097 263.723Z" fill="url(#paint20_linear_212_2439)"/>
</g>
<g opacity="0.4">
<path d="M1172.58 122.156L1191.98 118.977L1193.68 125.396L1172.58 122.156Z" fill="url(#paint21_linear_212_2439)"/>
<path d="M1197.47 139.684L1183.17 129.617L1193.68 125.396L1197.47 139.684Z" fill="url(#paint22_linear_212_2439)"/>
<path d="M1197.47 139.684L1193.68 125.395L1191.98 118.977L1192.4 119.274L1192.85 119.585L1200.32 124.85L1200.79 125.185L1197.47 139.684Z" fill="url(#paint23_linear_212_2439)"/>
<path d="M1195.52 115.338L1186.8 104.704L1206.22 101.52L1195.52 115.338Z" fill="url(#paint24_linear_212_2439)"/>
<path d="M1193.15 118.395L1192.26 117.766L1176.18 106.444L1186.8 104.704L1195.52 115.338L1193.15 118.395Z" fill="url(#paint25_linear_212_2439)"/>
<path d="M1201.07 123.974L1193.6 118.711L1193.15 118.395L1195.52 115.338L1206.22 101.52L1201.07 123.974Z" fill="url(#paint26_linear_212_2439)"/>
<path d="M1183.17 129.617L1172.58 122.156L1193.68 125.396L1183.17 129.617Z" fill="url(#paint27_linear_212_2439)"/>
</g>
<g opacity="0.4">
<path d="M49.6315 136.739L54.131 124.719L58.3546 125.919L49.6315 136.739Z" fill="url(#paint28_linear_212_2439)"/>
<path d="M67.756 128.59L57.3459 133.271L58.3547 125.919L67.756 128.59Z" fill="url(#paint29_linear_212_2439)"/>
<path d="M67.7559 128.59L58.3546 125.918L54.1309 124.719L54.4384 124.581L54.7616 124.434L60.2049 121.988L60.55 121.833L67.7559 128.59Z" fill="url(#paint30_linear_212_2439)"/>
<path d="M53.2037 121.497L44.2845 122.841L48.7891 110.806L53.2037 121.497Z" fill="url(#paint31_linear_212_2439)"/>
<path d="M54.1808 123.861L53.529 124.155L41.8228 129.417L44.2845 122.841L53.2036 121.497L54.1808 123.861Z" fill="url(#paint32_linear_212_2439)"/>
<path d="M59.9481 121.269L54.5063 123.716L54.1808 123.861L53.2037 121.497L48.7891 110.806L59.9481 121.269Z" fill="url(#paint33_linear_212_2439)"/>
<path d="M57.3459 133.271L49.6316 136.739L58.3547 125.919L57.3459 133.271Z" fill="url(#paint34_linear_212_2439)"/>
</g>
<g opacity="0.4">
<path d="M318.632 176.859L309.356 172.558L310.564 169.275L318.632 176.859Z" fill="url(#paint35_linear_212_2439)"/>
<path d="M313.254 161.969L316.343 170.521L310.564 169.275L313.254 161.969Z" fill="url(#paint36_linear_212_2439)"/>
<path d="M313.254 161.968L310.564 169.275L309.356 172.558L309.264 172.305L309.167 172.039L307.553 167.567L307.451 167.284L313.254 161.968Z" fill="url(#paint37_linear_212_2439)"/>
<path d="M306.74 173.1L307.269 180.266L297.981 175.96L306.74 173.1Z" fill="url(#paint38_linear_212_2439)"/>
<path d="M308.677 172.467L308.871 173.002L312.343 182.619L307.268 180.266L306.74 173.1L308.677 172.467Z" fill="url(#paint39_linear_212_2439)"/>
<path d="M306.967 167.728L308.581 172.199L308.677 172.466L306.74 173.1L297.981 175.96L306.967 167.728Z" fill="url(#paint40_linear_212_2439)"/>
<path d="M316.343 170.521L318.632 176.859L310.564 169.275L316.343 170.521Z" fill="url(#paint41_linear_212_2439)"/>
</g>
<g opacity="0.4">
<path d="M92.3262 275.244L76.4306 263.673L79.8018 257.952L92.3262 275.244Z" fill="url(#paint42_linear_212_2439)"/>
<path d="M87.3079 245.217L90.191 262.464L79.8019 257.952L87.3079 245.217Z" fill="url(#paint43_linear_212_2439)"/>
<path d="M87.3079 245.218L79.8019 257.952L76.4308 263.673L76.3454 263.164L76.2532 262.627L74.7483 253.61L74.6537 253.039L87.3079 245.218Z" fill="url(#paint44_linear_212_2439)"/>
<path d="M71.3539 263.711L69.9166 277.389L54 265.804L71.3539 263.711Z" fill="url(#paint45_linear_212_2439)"/>
<path d="M75.1921 263.246L75.3735 264.326L78.6134 283.719L69.9166 277.389L71.3539 263.71L75.1921 263.246Z" fill="url(#paint46_linear_212_2439)"/>
<path d="M73.5965 253.692L75.1031 262.708L75.1921 263.246L71.3539 263.711L54 265.804L73.5965 253.692Z" fill="url(#paint47_linear_212_2439)"/>
<path d="M90.1909 262.464L92.3262 275.244L79.8018 257.952L90.1909 262.464Z" fill="url(#paint48_linear_212_2439)"/>
</g>
<g opacity="0.4">
<g opacity="0.26">
<path d="M-55.074 -98C-55.074 -98 605.159 405.573 1427.85 125.843C2250.55 -153.887 1661.85 879.201 1661.85 879.201" stroke="#3C3C3B" stroke-width="1.5" stroke-miterlimit="10"/>
<path d="M-92.4468 -74.8154C-92.4468 -74.8154 585.085 411.237 1390.34 127.949C2187.04 -150.012 1659.55 867.507 1659.55 867.507" stroke="#424241" stroke-width="1.5" stroke-miterlimit="10"/>
<path d="M-129.82 -51.5889C-129.82 -51.5889 564.141 414.985 1352.81 130.054C2122.67 -148.082 1657.23 855.841 1657.23 855.841" stroke="#484847" stroke-width="1.5" stroke-miterlimit="10"/>
<path d="M-167.185 -28.4253C-167.185 -28.4253 543.652 419.829 1315.3 132.16C2058.77 -145.007 1654.94 844.119 1654.94 844.119" stroke="#4E4E4D" stroke-width="1.5" stroke-miterlimit="10"/>
<path d="M-204.557 -5.26221C-204.557 -5.26221 523.186 424.777 1277.78 134.266C1994.91 -141.821 1652.63 832.425 1652.63 832.425" stroke="#545453" stroke-width="1.5" stroke-miterlimit="10"/>
<path d="M-241.93 17.9434C-241.93 17.9434 502.744 429.831 1240.29 136.365C1931.1 -138.515 1650.34 820.738 1650.34 820.738" stroke="#5A5A59" stroke-width="1.5" stroke-miterlimit="10"/>
<path d="M-279.303 41.1348C-279.303 41.1348 482.349 435.004 1202.74 138.47C1867.29 -135.069 1648.02 809.037 1648.02 809.037" stroke="#60605F" stroke-width="1.5" stroke-miterlimit="10"/>
<path d="M-316.668 64.3193C-316.668 64.3193 461.993 440.311 1165.23 140.576C1803.56 -131.496 1645.71 797.343 1645.71 797.343" stroke="#666665" stroke-width="1.5" stroke-miterlimit="10"/>
<path d="M-354.041 87.5107C-354.041 87.5107 441.691 445.757 1127.7 142.682C1739.87 -127.776 1643.41 785.642 1643.41 785.642" stroke="#6C6C6B" stroke-width="1.5" stroke-miterlimit="10"/>
<path d="M-391.414 110.702C-391.414 110.702 421.477 451.359 1090.23 144.788C1676.29 -123.887 1641.1 773.962 1641.1 773.962" stroke="#737372" stroke-width="1.5" stroke-miterlimit="10"/>
<path d="M-428.786 133.887C-428.786 133.887 401.348 457.136 1052.64 146.893C1612.74 -119.9 1638.77 762.268 1638.77 762.268" stroke="#797978" stroke-width="1.5" stroke-miterlimit="10"/>
<path d="M-466.152 157.078C-466.152 157.078 381.329 463.116 1015.15 148.999C1549.35 -115.731 1636.49 750.546 1636.49 750.546" stroke="#7F7F7E" stroke-width="1.5" stroke-miterlimit="10"/>
<path d="M-503.524 180.27C-503.524 180.27 361.451 469.237 977.633 151.098C1486.06 -111.393 1634.2 738.88 1634.2 738.88" stroke="#858584" stroke-width="1.5" stroke-miterlimit="10"/>
<path d="M-540.913 203.454C-540.913 203.454 341.73 475.617 940.111 153.203C1422.85 -106.901 1631.85 727.186 1631.85 727.186" stroke="#8B8B8A" stroke-width="1.5" stroke-miterlimit="10"/>
<path d="M-578.27 226.646C-578.27 226.646 322.221 482.236 902.589 155.309C1359.81 -102.24 1629.57 715.492 1629.57 715.492" stroke="#919190" stroke-width="1.5" stroke-miterlimit="10"/>
<path d="M-615.635 249.83C-615.635 249.83 302.954 489.108 865.075 157.415C1296.96 -97.3823 1627.27 703.798 1627.27 703.798" stroke="#979796" stroke-width="1.5" stroke-miterlimit="10"/>
<path d="M-653 273.022C-653 273.022 283.986 496.233 827.561 159.521C1234.27 -92.4269 1624.97 692.104 1624.97 692.104" stroke="#9D9D9C" stroke-width="1.5" stroke-miterlimit="10"/>
</g>
</g>
</g>
<defs>
<linearGradient id="paint0_linear_212_2439" x1="1122.45" y1="254.611" x2="1118.81" y2="250.282" gradientUnits="userSpaceOnUse">
<stop stop-color="#3A9BDC"/>
<stop offset="1" stop-color="#1260CC"/>
</linearGradient>
<linearGradient id="paint1_linear_212_2439" x1="1112.93" y1="256.196" x2="1118.67" y2="256.183" gradientUnits="userSpaceOnUse">
<stop stop-color="#3A9BDC"/>
<stop offset="1" stop-color="#1260CC"/>
</linearGradient>
<linearGradient id="paint2_linear_212_2439" x1="1122.78" y1="257.391" x2="1112.63" y2="262.343" gradientUnits="userSpaceOnUse">
<stop stop-color="#3A9BDC"/>
<stop offset="1" stop-color="#1260CC"/>
</linearGradient>
<linearGradient id="paint3_linear_212_2439" x1="1130.11" y1="253.983" x2="1135.53" y2="259.338" gradientUnits="userSpaceOnUse">
<stop stop-color="#3A9BDC"/>
<stop offset="1" stop-color="#1260CC"/>
</linearGradient>
<linearGradient id="paint4_linear_212_2439" x1="1124.56" y1="249.443" x2="1130.73" y2="249.205" gradientUnits="userSpaceOnUse">
<stop stop-color="#3A9BDC"/>
<stop offset="1" stop-color="#1260CC"/>
</linearGradient>
<linearGradient id="paint5_linear_212_2439" x1="1128.97" y1="260.13" x2="1128.55" y2="255.982" gradientUnits="userSpaceOnUse">
<stop stop-color="#3A9BDC"/>
<stop offset="1" stop-color="#1260CC"/>
</linearGradient>
<linearGradient id="paint6_linear_212_2439" x1="1118.38" y1="249.83" x2="1115.14" y2="250.012" gradientUnits="userSpaceOnUse">
<stop stop-color="#3A9BDC"/>
<stop offset="1" stop-color="#1260CC"/>
</linearGradient>
<linearGradient id="paint7_linear_212_2439" x1="943.155" y1="110.306" x2="941.191" y2="115.614" gradientUnits="userSpaceOnUse">
<stop stop-color="#3A9BDC"/>
<stop offset="1" stop-color="#1260CC"/>
</linearGradient>
<linearGradient id="paint8_linear_212_2439" x1="949.234" y1="117.801" x2="946.391" y2="112.82" gradientUnits="userSpaceOnUse">
<stop stop-color="#3A9BDC"/>
<stop offset="1" stop-color="#1260CC"/>
</linearGradient>
<linearGradient id="paint9_linear_212_2439" x1="945.411" y1="108.649" x2="954.731" y2="115.032" gradientUnits="userSpaceOnUse">
<stop stop-color="#3A9BDC"/>
<stop offset="1" stop-color="#1260CC"/>
</linearGradient>
<linearGradient id="paint10_linear_212_2439" x1="938.832" y1="103.962" x2="940.81" y2="96.6017" gradientUnits="userSpaceOnUse">
<stop stop-color="#3A9BDC"/>
<stop offset="1" stop-color="#1260CC"/>
</linearGradient>
<linearGradient id="paint11_linear_212_2439" x1="937.624" y1="111.03" x2="934.368" y2="105.777" gradientUnits="userSpaceOnUse">
<stop stop-color="#3A9BDC"/>
<stop offset="1" stop-color="#1260CC"/>
</linearGradient>
<linearGradient id="paint12_linear_212_2439" x1="944.737" y1="101.914" x2="941.336" y2="104.326" gradientUnits="userSpaceOnUse">
<stop stop-color="#3A9BDC"/>
<stop offset="1" stop-color="#1260CC"/>
</linearGradient>
<linearGradient id="paint13_linear_212_2439" x1="941.009" y1="116.208" x2="942.768" y2="118.936" gradientUnits="userSpaceOnUse">
<stop stop-color="#3A9BDC"/>
<stop offset="1" stop-color="#1260CC"/>
</linearGradient>
<linearGradient id="paint14_linear_212_2439" x1="872.442" y1="261.533" x2="866.858" y2="260.614" gradientUnits="userSpaceOnUse">
<stop stop-color="#3A9BDC"/>
<stop offset="1" stop-color="#1260CC"/>
</linearGradient>
<linearGradient id="paint15_linear_212_2439" x1="866.241" y1="268.927" x2="870.59" y2="265.187" gradientUnits="userSpaceOnUse">
<stop stop-color="#3A9BDC"/>
<stop offset="1" stop-color="#1260CC"/>
</linearGradient>
<linearGradient id="paint16_linear_212_2439" x1="874.499" y1="263.432" x2="870.005" y2="273.796" gradientUnits="userSpaceOnUse">
<stop stop-color="#3A9BDC"/>
<stop offset="1" stop-color="#1260CC"/>
</linearGradient>
<linearGradient id="paint17_linear_212_2439" x1="877.848" y1="256.081" x2="885.45" y2="256.623" gradientUnits="userSpaceOnUse">
<stop stop-color="#3A9BDC"/>
<stop offset="1" stop-color="#1260CC"/>
</linearGradient>
<linearGradient id="paint18_linear_212_2439" x1="870.679" y1="256.24" x2="875.217" y2="252.044" gradientUnits="userSpaceOnUse">
<stop stop-color="#3A9BDC"/>
<stop offset="1" stop-color="#1260CC"/>
</linearGradient>
<linearGradient id="paint19_linear_212_2439" x1="880.982" y1="261.488" x2="877.967" y2="258.609" gradientUnits="userSpaceOnUse">
<stop stop-color="#3A9BDC"/>
<stop offset="1" stop-color="#1260CC"/>
</linearGradient>
<linearGradient id="paint20_linear_212_2439" x1="866.24" y1="260.548" x2="863.896" y2="262.794" gradientUnits="userSpaceOnUse">
<stop stop-color="#3A9BDC"/>
<stop offset="1" stop-color="#1260CC"/>
</linearGradient>
<linearGradient id="paint21_linear_212_2439" x1="1191.81" y1="119.834" x2="1184.02" y2="123.553" gradientUnits="userSpaceOnUse">
<stop stop-color="#3A9BDC"/>
<stop offset="1" stop-color="#1260CC"/>
</linearGradient>
<linearGradient id="paint22_linear_212_2439" x1="1190.41" y1="134.305" x2="1192.64" y2="125.959" gradientUnits="userSpaceOnUse">
<stop stop-color="#3A9BDC"/>
<stop offset="1" stop-color="#1260CC"/>
</linearGradient>
<linearGradient id="paint23_linear_212_2439" x1="1196.06" y1="120.469" x2="1199.16" y2="137.253" gradientUnits="userSpaceOnUse">
<stop stop-color="#3A9BDC"/>
<stop offset="1" stop-color="#1260CC"/>
</linearGradient>
<linearGradient id="paint24_linear_212_2439" x1="1193.9" y1="108.461" x2="1203.86" y2="102.519" gradientUnits="userSpaceOnUse">
<stop stop-color="#3A9BDC"/>
<stop offset="1" stop-color="#1260CC"/>
</linearGradient>
<linearGradient id="paint25_linear_212_2439" x1="1184.97" y1="114.713" x2="1187.05" y2="105.641" gradientUnits="userSpaceOnUse">
<stop stop-color="#3A9BDC"/>
<stop offset="1" stop-color="#1260CC"/>
</linearGradient>
<linearGradient id="paint26_linear_212_2439" x1="1202.57" y1="112.567" x2="1196.25" y2="111.533" gradientUnits="userSpaceOnUse">
<stop stop-color="#3A9BDC"/>
<stop offset="1" stop-color="#1260CC"/>
</linearGradient>
<linearGradient id="paint27_linear_212_2439" x1="1183.11" y1="123.842" x2="1182.1" y2="128.625" gradientUnits="userSpaceOnUse">
<stop stop-color="#3A9BDC"/>
<stop offset="1" stop-color="#1260CC"/>
</linearGradient>
<linearGradient id="paint28_linear_212_2439" x1="54.5663" y1="125.102" x2="54.0477" y2="130.738" gradientUnits="userSpaceOnUse">
<stop stop-color="#3A9BDC"/>
<stop offset="1" stop-color="#1260CC"/>
</linearGradient>
<linearGradient id="paint29_linear_212_2439" x1="62.3834" y1="130.762" x2="58.3436" y2="126.69" gradientUnits="userSpaceOnUse">
<stop stop-color="#3A9BDC"/>
<stop offset="1" stop-color="#1260CC"/>
</linearGradient>
<linearGradient id="paint30_linear_212_2439" x1="56.3145" y1="122.916" x2="66.9721" y2="126.66" gradientUnits="userSpaceOnUse">
<stop stop-color="#3A9BDC"/>
<stop offset="1" stop-color="#1260CC"/>
</linearGradient>
<linearGradient id="paint31_linear_212_2439" x1="48.7437" y1="120.099" x2="48.7426" y2="112.477" gradientUnits="userSpaceOnUse">
<stop stop-color="#3A9BDC"/>
<stop offset="1" stop-color="#1260CC"/>
</linearGradient>
<linearGradient id="paint32_linear_212_2439" x1="49.4129" y1="127.238" x2="44.9041" y2="123.01" gradientUnits="userSpaceOnUse">
<stop stop-color="#3A9BDC"/>
<stop offset="1" stop-color="#1260CC"/>
</linearGradient>
<linearGradient id="paint33_linear_212_2439" x1="53.914" y1="116.587" x2="51.2567" y2="119.8" gradientUnits="userSpaceOnUse">
<stop stop-color="#3A9BDC"/>
<stop offset="1" stop-color="#1260CC"/>
</linearGradient>
<linearGradient id="paint34_linear_212_2439" x1="54.0266" y1="131.359" x2="56.4336" y2="133.537" gradientUnits="userSpaceOnUse">
<stop stop-color="#3A9BDC"/>
<stop offset="1" stop-color="#1260CC"/>
</linearGradient>
<linearGradient id="paint35_linear_212_2439" x1="309.686" y1="172.235" x2="314.132" y2="172.988" gradientUnits="userSpaceOnUse">
<stop stop-color="#3A9BDC"/>
<stop offset="1" stop-color="#1260CC"/>
</linearGradient>
<linearGradient id="paint36_linear_212_2439" x1="314.655" y1="166.368" x2="311.176" y2="169.331" gradientUnits="userSpaceOnUse">
<stop stop-color="#3A9BDC"/>
<stop offset="1" stop-color="#1260CC"/>
</linearGradient>
<linearGradient id="paint37_linear_212_2439" x1="308.055" y1="170.714" x2="311.674" y2="162.474" gradientUnits="userSpaceOnUse">
<stop stop-color="#3A9BDC"/>
<stop offset="1" stop-color="#1260CC"/>
</linearGradient>
<linearGradient id="paint38_linear_212_2439" x1="305.36" y1="176.558" x2="299.305" y2="176.098" gradientUnits="userSpaceOnUse">
<stop stop-color="#3A9BDC"/>
<stop offset="1" stop-color="#1260CC"/>
</linearGradient>
<linearGradient id="paint39_linear_212_2439" x1="311.071" y1="176.458" x2="307.44" y2="179.784" gradientUnits="userSpaceOnUse">
<stop stop-color="#3A9BDC"/>
<stop offset="1" stop-color="#1260CC"/>
</linearGradient>
<linearGradient id="paint40_linear_212_2439" x1="302.883" y1="172.238" x2="305.274" y2="174.544" gradientUnits="userSpaceOnUse">
<stop stop-color="#3A9BDC"/>
<stop offset="1" stop-color="#1260CC"/>
</linearGradient>
<linearGradient id="paint41_linear_212_2439" x1="314.624" y1="173.042" x2="316.5" y2="171.262" gradientUnits="userSpaceOnUse">
<stop stop-color="#3A9BDC"/>
<stop offset="1" stop-color="#1260CC"/>
</linearGradient>
<linearGradient id="paint42_linear_212_2439" x1="77.1582" y1="263.19" x2="85.2755" y2="266.117" gradientUnits="userSpaceOnUse">
<stop stop-color="#3A9BDC"/>
<stop offset="1" stop-color="#1260CC"/>
</linearGradient>
<linearGradient id="paint43_linear_212_2439" x1="88.4381" y1="254.018" x2="80.9341" y2="258.296" gradientUnits="userSpaceOnUse">
<stop stop-color="#3A9BDC"/>
<stop offset="1" stop-color="#1260CC"/>
</linearGradient>
<linearGradient id="paint44_linear_212_2439" x1="74.6219" y1="259.717" x2="84.3877" y2="245.72" gradientUnits="userSpaceOnUse">
<stop stop-color="#3A9BDC"/>
<stop offset="1" stop-color="#1260CC"/>
</linearGradient>
<linearGradient id="paint45_linear_212_2439" x1="67.6016" y1="269.698" x2="56.3732" y2="266.785" gradientUnits="userSpaceOnUse">
<stop stop-color="#3A9BDC"/>
<stop offset="1" stop-color="#1260CC"/>
</linearGradient>
<linearGradient id="paint46_linear_212_2439" x1="78.3193" y1="271.653" x2="70.4014" y2="276.547" gradientUnits="userSpaceOnUse">
<stop stop-color="#3A9BDC"/>
<stop offset="1" stop-color="#1260CC"/>
</linearGradient>
<linearGradient id="paint47_linear_212_2439" x1="64.4301" y1="260.644" x2="68.1361" y2="265.868" gradientUnits="userSpaceOnUse">
<stop stop-color="#3A9BDC"/>
<stop offset="1" stop-color="#1260CC"/>
</linearGradient>
<linearGradient id="paint48_linear_212_2439" x1="86.1207" y1="266.561" x2="90.2342" y2="263.919" gradientUnits="userSpaceOnUse">
<stop stop-color="#3A9BDC"/>
<stop offset="1" stop-color="#1260CC"/>
</linearGradient>
</defs>
</svg>
